<svg xmlns="http://www.w3.org/2000/svg" width="24" height="24" viewBox="0 0 24 24" fill="none">
<path d="M15.0969 19.3708L16.0969 21.1108C15.1369 21.5508 14.0869 21.8408 12.9969 21.9508V19.9308C13.7369 19.8408 14.4369 19.6508 15.0969 19.3708ZM4.06688 13.0008H2.04688C2.15687 14.1008 2.44688 15.1408 2.88688 16.1008L4.62688 15.1008C4.34688 14.4408 4.15688 13.7408 4.06688 13.0008ZM15.0969 4.63078L16.0969 2.89078C15.1369 2.45078 14.0969 2.16078 12.9969 2.05078V4.07078C13.7369 4.16078 14.4369 4.35078 15.0969 4.63078ZM19.9269 11.0008H21.9469C21.8369 9.90078 21.5469 8.86078 21.1069 7.90078L19.3669 8.90078C19.6469 9.56078 19.8369 10.2608 19.9269 11.0008ZM8.89687 19.3708L7.89688 21.1108C8.85688 21.5508 9.90687 21.8408 10.9969 21.9508V19.9308C10.2569 19.8408 9.55687 19.6508 8.89687 19.3708ZM10.9969 4.07078V2.05078C9.89687 2.16078 8.85688 2.45078 7.89688 2.89078L8.89687 4.63078C9.55687 4.35078 10.2569 4.16078 10.9969 4.07078ZM18.3569 7.17078L20.0969 6.16078C19.4669 5.29078 18.6969 4.52078 17.8269 3.89078L16.8169 5.63078C17.4069 6.08078 17.9169 6.59078 18.3569 7.17078ZM4.62688 8.90078L2.88688 7.90078C2.44688 8.86078 2.15687 9.90078 2.04688 11.0008H4.06688C4.15688 10.2608 4.34688 9.56078 4.62688 8.90078ZM19.9269 13.0008C19.8369 13.7408 19.6469 14.4408 19.3669 15.1008L21.1069 16.1008C21.5469 15.1408 21.8369 14.0908 21.9469 13.0008H19.9269ZM16.8269 18.3608L17.8369 20.1008C18.7069 19.4708 19.4769 18.7008 20.1069 17.8308L18.3669 16.8208C17.9169 17.4108 17.4069 17.9208 16.8269 18.3608ZM7.16687 5.64078L6.16687 3.89078C5.28687 4.53078 4.52688 5.29078 3.89688 6.17078L5.63687 7.18078C6.07687 6.59078 6.58687 6.08078 7.16687 5.64078ZM5.63687 16.8308L3.89688 17.8308C4.52688 18.7008 5.29688 19.4708 6.16687 20.1008L7.17688 18.3608C6.58687 17.9208 6.07687 17.4108 5.63687 16.8308ZM12.9969 7.00078H10.9969V12.4108L15.2869 16.7008L16.6969 15.2908L12.9969 11.5908V7.00078Z" fill="#2D76F8"/>
</svg>
