<svg xmlns="http://www.w3.org/2000/svg" width="16" height="16" viewBox="0 0 16 16" fill="none">
  <g clip-path="url(#clip0_2056_60785)">
    <path d="M8.0013 7.9987C8.73464 7.9987 9.33464 7.3987 9.33464 6.66536C9.33464 5.93203 8.73464 5.33203 8.0013 5.33203C7.26797 5.33203 6.66797 5.93203 6.66797 6.66536C6.66797 7.3987 7.26797 7.9987 8.0013 7.9987ZM8.0013 1.33203C10.8013 1.33203 13.3346 3.4787 13.3346 6.7987C13.3346 8.9187 11.7013 11.412 8.4413 14.2854C8.18797 14.5054 7.80797 14.5054 7.55464 14.2854C4.3013 11.412 2.66797 8.9187 2.66797 6.7987C2.66797 3.4787 5.2013 1.33203 8.0013 1.33203Z" fill="white"/>
  </g>
  <defs>
    <clipPath id="clip0_2056_60785">
      <rect width="16" height="16" fill="white"/>
    </clipPath>
  </defs>
</svg>