<svg xmlns="http://www.w3.org/2000/svg" width="16" height="16" viewBox="0 0 16 16" fill="none">
  <g clip-path="url(#clip0_168_15285)">
    <path d="M9.99992 0.666016H2.66659C1.93325 0.666016 1.33325 1.26602 1.33325 1.99935V10.666C1.33325 11.0327 1.63325 11.3327 1.99992 11.3327C2.36659 11.3327 2.66659 11.0327 2.66659 10.666V2.66602C2.66659 2.29935 2.96659 1.99935 3.33325 1.99935H9.99992C10.3666 1.99935 10.6666 1.69935 10.6666 1.33268C10.6666 0.966016 10.3666 0.666016 9.99992 0.666016ZM12.6666 3.33268H5.33325C4.59992 3.33268 3.99992 3.93268 3.99992 4.66602V13.9993C3.99992 14.7327 4.59992 15.3327 5.33325 15.3327H12.6666C13.3999 15.3327 13.9999 14.7327 13.9999 13.9993V4.66602C13.9999 3.93268 13.3999 3.33268 12.6666 3.33268ZM11.9999 13.9993H5.99992C5.63325 13.9993 5.33325 13.6993 5.33325 13.3327V5.33268C5.33325 4.96602 5.63325 4.66602 5.99992 4.66602H11.9999C12.3666 4.66602 12.6666 4.96602 12.6666 5.33268V13.3327C12.6666 13.6993 12.3666 13.9993 11.9999 13.9993Z" fill="#7E7E7F"/>
  </g>
  <defs>
    <clipPath id="clip0_168_15285">
      <rect width="16" height="16" fill="white"/>
    </clipPath>
  </defs>
</svg>