<svg width="16" height="20" viewBox="0 0 16 20" fill="none" xmlns="http://www.w3.org/2000/svg">
<g id="Group 865">
<g id="Vector 102">
<path d="M7.1261 4.45703C3.41936 4.45703 0.83089 6.39251 0 7.36025C0.498534 5.98195 2.55132 1.96436 7.85924 1.96436C12.1056 1.96436 14.4575 5.42477 15.1026 7.15497C12.9032 5.42477 11.7595 4.45703 7.1261 4.45703Z" fill="#D6743F"/>
<path d="M7.62464 15.9233C3.4956 15.9233 0.821115 13.9487 0 12.9614C0.146628 13.5479 2.34604 18.3573 7.85924 18.3573C12.2698 18.3573 14.6628 14.7601 15.3079 12.9614C14.4673 13.9487 11.7537 15.9233 7.62464 15.9233Z" fill="#D6743F"/>
</g>
<ellipse id="Ellipse 67" cx="1.81761" cy="18.7683" rx="1.23167" ry="1.23167" fill="#767474"/>
<ellipse id="Ellipse 69" cx="13.5442" cy="1.23167" rx="1.23167" ry="1.23167" fill="#767474"/>
<circle id="Ellipse 70" cx="0.908977" cy="2.66825" r="0.791789" fill="#767474"/>
</g>
</svg>
