<svg xmlns="http://www.w3.org/2000/svg" width="32" height="32" viewBox="0 0 32 32" fill="none">
  <path fill-rule="evenodd" clip-rule="evenodd" d="M19.3666 4.2467C19.2638 5.3308 18.2957 6.12694 17.2041 6.02492C14.9493 5.81419 12.6897 6.37566 10.8004 7.61612C8.91106 8.85658 7.50571 10.7014 6.81759 12.8444C6.12947 14.9875 6.19995 17.2997 7.01735 19.3975C7.83475 21.4952 9.3499 23.2523 11.3113 24.377C13.2727 25.5016 15.5624 25.9263 17.8003 25.5805C20.0382 25.2347 22.0897 24.1391 23.6143 22.4758C25.1389 20.8124 26.0449 18.6812 26.1819 16.436C26.3189 14.1908 25.6787 11.9665 24.3675 10.1324C23.7328 9.2446 23.9429 8.01381 24.8369 7.38341C25.7308 6.75302 26.9701 6.96172 27.6048 7.84958C29.4405 10.4173 30.3368 13.5312 30.145 16.6745C29.9532 19.8179 28.6848 22.8015 26.5503 25.1302C24.4159 27.4589 21.5437 28.9927 18.4107 29.4768C15.2776 29.961 12.0721 29.3664 9.32612 27.7919C6.58016 26.2173 4.45896 23.7575 3.3146 20.8206C2.17025 17.8838 2.07157 14.6466 3.03494 11.6464C3.99831 8.64615 5.9658 6.06335 8.61081 4.32671C11.2558 2.59007 14.4193 1.80402 17.5761 2.09904C18.6677 2.20106 19.4693 3.16259 19.3666 4.2467Z" fill="#FA4E57"/>
</svg>