<svg width="178" height="178" viewBox="0 0 178 178" fill="none" xmlns="http://www.w3.org/2000/svg">
<rect x="0.5" y="0.5" width="177" height="177" rx="9.5" fill="#F5F7FB" fill-opacity="0.5"/>
<rect x="0.5" y="0.5" width="177" height="177" rx="9.5" stroke="#DBDBDB"/>
<path d="M37 96C37 92.6863 39.6863 90 43 90H51C54.3137 90 57 92.6863 57 96V110H37V96Z" fill="#DEE9FF"/>
<path d="M65 36C65 32.6863 67.6863 30 71 30H79C82.3137 30 85 32.6863 85 36V110H65V36Z" fill="#2D76F8"/>
<path d="M93 76C93 72.6863 95.6863 70 99 70H107C110.314 70 113 72.6863 113 76V110H93V76Z" fill="#D9D9D9"/>
<path d="M121 56C121 52.6863 123.686 50 127 50H135C138.314 50 141 52.6863 141 56V110H121V56Z" fill="#93BAFF"/>
<path d="M76.358 135.696H79.55C81.664 135.696 83.19 136.368 83.19 138.23C83.19 139.224 82.658 140.134 81.72 140.456V140.526C82.896 140.792 83.75 141.576 83.75 142.976C83.75 145.034 82.098 146 79.802 146H76.358V135.696ZM79.368 139.994C80.936 139.994 81.594 139.406 81.594 138.44C81.594 137.362 80.866 136.956 79.41 136.956H77.982V139.994H79.368ZM79.62 144.726C81.258 144.726 82.154 144.18 82.154 142.892C82.154 141.716 81.258 141.226 79.62 141.226H77.982V144.726H79.62ZM90.4419 143.06H86.8579L85.9759 146H84.3239L87.7399 135.696H89.6159L93.0319 146H91.3099L90.4419 143.06ZM90.0499 141.786L89.6439 140.4C89.2939 139.28 88.9859 138.146 88.6639 136.97H88.6079C88.3139 138.146 87.9919 139.28 87.6559 140.4L87.2359 141.786H90.0499ZM100.033 146L97.6949 141.842H96.0289V146H94.4049V135.696H97.7789C99.9069 135.696 101.503 136.452 101.503 138.678C101.503 140.302 100.649 141.226 99.3469 141.632L101.867 146H100.033ZM96.0289 140.54H97.5829C99.0949 140.54 99.8929 139.924 99.8929 138.678C99.8929 137.432 99.0949 136.998 97.5829 136.998H96.0289V140.54Z" fill="#747474"/>
</svg>
