<svg xmlns="http://www.w3.org/2000/svg" xmlns:xlink="http://www.w3.org/1999/xlink" width="48" height="48" viewBox="0 0 48 48">
    <defs>
        <path id="prefix__a" d="M34.287 43c.36 0 .711-.052 1.056-.157.344-.105.651-.262.92-.472.6-.39 1.026-.906 1.28-1.55.256-.644.323-1.31.203-1.999L35.77 29.03l7.142-6.289c.54-.419.899-.958 1.078-1.617.18-.659.18-1.318 0-1.977-.21-.628-.569-1.167-1.078-1.617-.509-.449-1.093-.718-1.752-.808l-10.017-1.528-3.954-8.49c-.299-.629-.733-1.123-1.302-1.482-.57-.36-1.198-.54-1.887-.54-.689 0-1.318.18-1.887.54-.569.36-1.003.853-1.302 1.482l-3.954 8.49L6.84 16.721c-.659.09-1.243.36-1.752.808-.51.45-.869.989-1.078 1.617-.18.66-.18 1.318 0 1.977s.524 1.198 1.033 1.617l7.232 6.29-1.976 9.792c-.15.69-.098 1.355.157 2 .255.643.666 1.16 1.235 1.55.57.388 1.206.59 1.91.606.703.015 1.355-.143 1.954-.472L24 37.34l8.445 5.12c.27.18.562.315.876.405.315.09.637.135.966.135zm-.494-4.178l-8.805-5.39c-.3-.18-.629-.27-.988-.27-.36 0-.689.09-.988.27l-8.805 5.39 2.022-10.107c.06-.33.037-.659-.068-.988-.105-.33-.292-.614-.561-.854l-7.457-6.514 10.332-1.527c.3-.06.584-.187.853-.382.27-.194.464-.442.584-.741L24 8.949l4.088 8.76c.15.3.352.547.606.741.255.195.547.322.876.382l10.287 1.527-7.457 6.514c-.27.24-.456.524-.561.854-.105.329-.127.658-.068.988l2.022 10.107z"/>
    </defs>
    <g fill="none" fill-rule="evenodd">
        <path fill="#000" fill-opacity="0" d="M0 0H48V48H0z"/>
        <mask id="prefix__b" fill="#ffffff">
            <use xlink:href="#prefix__a"/>
        </mask>
        <use fill="#ffffff" fill-opacity="0" fill-rule="nonzero" xlink:href="#prefix__a"/>
        <path fill="#ffffff" d="M0 0H48V48H0z" mask="url(#prefix__b)"/>
    </g>
</svg>
