<svg xmlns="http://www.w3.org/2000/svg" width="16" height="16" viewBox="0 0 16 16" fill="none">
  <g clip-path="url(#clip0_1_11102)">
    <path d="M11.0626 6H10.0026V2.66667C10.0026 2.3 9.7026 2 9.33594 2H6.66927C6.3026 2 6.0026 2.3 6.0026 2.66667V6H4.9426C4.34927 6 4.04927 6.72 4.46927 7.14L7.52927 10.2C7.78927 10.46 8.20927 10.46 8.46927 10.2L11.5293 7.14C11.9493 6.72 11.6559 6 11.0626 6ZM3.33594 12.6667C3.33594 13.0333 3.63594 13.3333 4.0026 13.3333H12.0026C12.3693 13.3333 12.6693 13.0333 12.6693 12.6667C12.6693 12.3 12.3693 12 12.0026 12H4.0026C3.63594 12 3.33594 12.3 3.33594 12.6667Z" fill="#7E7E7F"/>
  </g>
  <defs>
    <clipPath id="clip0_1_11102">
      <rect width="16" height="16" fill="white"/>
    </clipPath>
  </defs>
</svg>