<svg width="32" height="32" viewBox="0 0 32 32" fill="none" xmlns="http://www.w3.org/2000/svg">
<path d="M5.33301 25.3327V22.666H7.99967V13.3327C7.99967 11.4882 8.55523 9.8549 9.66634 8.43268C10.7775 6.98824 12.2219 6.04379 13.9997 5.59935V4.66602C13.9997 4.11046 14.1886 3.64379 14.5663 3.26601C14.9663 2.86602 15.4441 2.66602 15.9997 2.66602C16.5552 2.66602 17.0219 2.86602 17.3997 3.26601C17.7997 3.64379 17.9997 4.11046 17.9997 4.66602V5.59935C19.7775 6.04379 21.2219 6.98824 22.333 8.43268C23.4441 9.8549 23.9997 11.4882 23.9997 13.3327V22.666H26.6663V25.3327H5.33301ZM15.9997 29.3327C15.2663 29.3327 14.633 29.0771 14.0997 28.566C13.5886 28.0327 13.333 27.3993 13.333 26.666H18.6663C18.6663 27.3993 18.3997 28.0327 17.8663 28.566C17.3552 29.0771 16.733 29.3327 15.9997 29.3327ZM10.6663 22.666H21.333V13.3327C21.333 11.866 20.8108 10.6105 19.7663 9.56601C18.7219 8.52157 17.4663 7.99935 15.9997 7.99935C14.533 7.99935 13.2775 8.52157 12.233 9.56601C11.1886 10.6105 10.6663 11.866 10.6663 13.3327V22.666Z" fill="white"/>
</svg>
