<svg xmlns="http://www.w3.org/2000/svg" width="16" height="16" viewBox="0 0 16 16" fill="none">
  <g clip-path="url(#clip0_32_17984)">
    <path d="M9.99935 1.33398H3.99935C3.26602 1.33398 2.66602 1.93398 2.66602 2.66732V13.334C2.66602 14.0673 3.26602 14.6673 3.99935 14.6673H11.9993C12.7327 14.6673 13.3327 14.0673 13.3327 13.334V4.66732L9.99935 1.33398ZM3.99935 13.334V2.66732H9.33268V5.33398H11.9993V13.334H3.99935ZM10.666 6.66732V10.0007C10.666 11.474 9.47268 12.6673 7.99935 12.6673C6.52602 12.6673 5.33268 11.474 5.33268 10.0007V5.66732C5.33268 4.68732 6.17268 3.90732 7.17268 4.00732C8.03935 4.09398 8.66602 4.88732 8.66602 5.76065V10.0007H7.33268V5.66732C7.33268 5.48065 7.18602 5.33398 6.99935 5.33398C6.81268 5.33398 6.66602 5.48065 6.66602 5.66732V10.0007C6.66602 10.734 7.26602 11.334 7.99935 11.334C8.73268 11.334 9.33268 10.734 9.33268 10.0007V6.66732H10.666Z" fill="#747474"/>
  </g>
  <defs>
    <clipPath id="clip0_32_17984">
      <rect width="16" height="16" fill="white"/>
    </clipPath>
  </defs>
</svg>