<svg xmlns="http://www.w3.org/2000/svg" width="48" height="48" viewBox="0 0 48 48">
    <g fill="none" fill-rule="evenodd">
        <g>
            <path d="M0 0H48V48H0z" opacity=".2"/>
            <g fill="#ffffff">
                <path d="M27.434 27.75l.154 12.913c.008.667-.526 1.215-1.194 1.223-.628.007-1.15-.466-1.215-1.078l-.007-.116-.155-12.938 2.417-.004zm-6.29 9.303c.89 0 1.611.721 1.611 1.61 0 .89-.721 1.612-1.61 1.612-.89 0-1.612-.722-1.612-1.611 0-.89.722-1.611 1.611-1.611zm1.279-9.296l-.07 5.686c-.009.667-.557 1.201-1.224 1.193-.628-.008-1.138-.493-1.189-1.107l-.004-.116.07-5.652 2.417-.004zm-4.904.007v5.664c0 .667-.54 1.208-1.208 1.208-.628 0-1.144-.479-1.202-1.092l-.006-.116v-5.661l2.416-.003zm-8.457 3.65c.89 0 1.61.722 1.61 1.611 0 .89-.72 1.611-1.61 1.611-.89 0-1.611-.721-1.611-1.61 0-.89.721-1.612 1.61-1.612zm5.495-7.211l.008 2.417-13.342.163C.556 26.79.008 26.256 0 25.589c-.007-.628.465-1.15 1.077-1.216l.117-.007 13.363-.163zM3.423 18.526c.89 0 1.611.722 1.611 1.611 0 .89-.72 1.611-1.61 1.611-.89 0-1.612-.72-1.612-1.61 0-.89.722-1.612 1.611-1.612zm4.243.605l6.877.079.007 2.417-6.912-.08c-.667-.008-1.202-.555-1.194-1.222.007-.628.493-1.139 1.106-1.19l.116-.004zm.003-4.833l6.859.091.007 2.417-6.9-.092c-.666-.01-1.2-.557-1.191-1.225.009-.627.495-1.137 1.108-1.187l.117-.004zM34.219 23.964c.667-.009 1.215.526 1.223 1.193.007.628-.466 1.15-1.077 1.216l-.117.007-5.233.063-.041-2.416 5.245-.063zm-5.324-4.587l13.407.156c.668.008 1.202.555 1.195 1.223-.008.628-.493 1.138-1.106 1.19l-.117.004-13.338-.156-.041-2.417zm-.082-4.794l8.659.117c.667.01 1.2.558 1.192 1.225-.009.628-.495 1.137-1.108 1.188l-.117.004L28.854 17l-.041-2.417zm-2.85-8.944c.628-.008 1.15.465 1.215 1.077l.007.116.078 6.606-2.417-.014-.077-6.563c-.008-.667.527-1.214 1.194-1.222zM21.563 0c.627.008 1.137.494 1.188 1.107l.004.116-.153 12.187-2.418-.014.155-12.203c.008-.667.556-1.201 1.223-1.193zM16.31 5.64c.628 0 1.144.479 1.203 1.091l.006.117-.002 6.533-2.415-.014v-6.52c0-.667.541-1.207 1.208-1.207z" transform="translate(2 3)"/>
                <path d="M30.6 10.5c.552 0 1 .448 1 1v18c0 .552-.448 1-1 1h-18c-.552 0-1-.448-1-1v-18c0-.552.448-1 1-1h18zm-3 4h-12v12h12v-12z" transform="translate(2 3)"/>
                <path d="M27.6 14.5L15.6 14.5 15.6 26.5 27.6 26.5z" opacity=".7" transform="translate(2 3)"/>
            </g>
        </g>
    </g>
</svg>
