<svg xmlns="http://www.w3.org/2000/svg" xmlns:xlink="http://www.w3.org/1999/xlink" width="20" height="20" viewBox="0 0 20 20">
    <defs>
        <path id="q3plovrcta" d="M6.083 10.417c.553 0 1 .447 1 1v3.416c0 .553-.447 1-1 1H3.917c-.553 0-1-.447-1-1v-3.416c0-.553.447-1 1-1h2.166zm5 0c.553 0 1 .447 1 1v3.416c0 .553-.447 1-1 1H8.917c-.553 0-1-.447-1-1v-3.416c0-.553.447-1 1-1h2.166zm5 0c.553 0 1 .447 1 1v3.416c0 .553-.447 1-1 1h-2.166c-.553 0-1-.447-1-1v-3.416c0-.553.447-1 1-1h2.166zm-10-6.25c.553 0 1 .447 1 1v3.416c0 .553-.447 1-1 1H3.917c-.553 0-1-.447-1-1V5.167c0-.553.447-1 1-1h2.166zm5 0c.553 0 1 .447 1 1v3.416c0 .553-.447 1-1 1H8.917c-.553 0-1-.447-1-1V5.167c0-.553.447-1 1-1h2.166zm5 0c.553 0 1 .447 1 1v3.416c0 .553-.447 1-1 1h-2.166c-.553 0-1-.447-1-1V5.167c0-.553.447-1 1-1h2.166z"/>
    </defs>
    <g fill="none" fill-rule="evenodd">
        <g>
            <g>
                <g transform="translate(-1595 -122) translate(1585 114) translate(10 8)">
                    <path d="M0 0H20V20H0z" opacity=".2"/>
                    <mask id="09m1gthrkb" fill="#ffffff">
                        <use xlink:href="#q3plovrcta"/>
                    </mask>
                    <path fill="#747474" d="M0 0H20V20H0z" mask="url(#09m1gthrkb)"/>
                </g>
            </g>
        </g>
    </g>
</svg>
