<svg width="16" height="16" viewBox="0 0 16 16" fill="none" xmlns="http://www.w3.org/2000/svg">
<g clip-path="url(#clip0_54_8741)">
<path d="M12.0013 5.33329H11.3346V3.99996C11.3346 2.15996 9.8413 0.666626 8.0013 0.666626C6.1613 0.666626 4.66797 2.15996 4.66797 3.99996V5.33329H4.0013C3.26797 5.33329 2.66797 5.93329 2.66797 6.66663V13.3333C2.66797 14.0666 3.26797 14.6666 4.0013 14.6666H12.0013C12.7346 14.6666 13.3346 14.0666 13.3346 13.3333V6.66663C13.3346 5.93329 12.7346 5.33329 12.0013 5.33329ZM8.0013 11.3333C7.26797 11.3333 6.66797 10.7333 6.66797 9.99996C6.66797 9.26663 7.26797 8.66663 8.0013 8.66663C8.73463 8.66663 9.33463 9.26663 9.33463 9.99996C9.33463 10.7333 8.73463 11.3333 8.0013 11.3333ZM6.0013 5.33329V3.99996C6.0013 2.89329 6.89464 1.99996 8.0013 1.99996C9.10797 1.99996 10.0013 2.89329 10.0013 3.99996V5.33329H6.0013Z" fill="#7E7E7F"/>
</g>
<defs>
<clipPath id="clip0_54_8741">
<rect width="16" height="16" fill="white"/>
</clipPath>
</defs>
</svg>
