<svg width="16" height="16" viewBox="0 0 16 16" fill="none" xmlns="http://www.w3.org/2000/svg">
<g clip-path="url(#clip0_54_8746)">
<path d="M13.332 2.66663H2.66536C1.93203 2.66663 1.3387 3.26663 1.3387 3.99996L1.33203 12C1.33203 12.7333 1.93203 13.3333 2.66536 13.3333H13.332C14.0654 13.3333 14.6654 12.7333 14.6654 12V3.99996C14.6654 3.26663 14.0654 2.66663 13.332 2.66663ZM13.0654 5.49996L8.35203 8.44663C8.1387 8.57996 7.8587 8.57996 7.64536 8.44663L2.93203 5.49996C2.76536 5.39329 2.66536 5.21329 2.66536 5.01996C2.66536 4.57329 3.15203 4.30663 3.53203 4.53996L7.9987 7.33329L12.4654 4.53996C12.8454 4.30663 13.332 4.57329 13.332 5.01996C13.332 5.21329 13.232 5.39329 13.0654 5.49996Z" fill="#7E7E7F"/>
</g>
<defs>
<clipPath id="clip0_54_8746">
<rect width="16" height="16" fill="white"/>
</clipPath>
</defs>
</svg>
