<svg xmlns="http://www.w3.org/2000/svg" xmlns:xlink="http://www.w3.org/1999/xlink" width="24" height="24" viewBox="0 0 24 24">
    <defs>
        <path id="7b17fn1jaa" d="M12 20.5c1.146 0 2.227-.218 3.242-.654 1.016-.436 1.901-1.032 2.656-1.787.756-.756 1.351-1.638 1.788-2.647.436-1.009.654-2.093.654-3.252 0-1.146-.218-2.223-.654-3.232-.437-1.01-1.032-1.892-1.788-2.647-.755-.755-1.64-1.35-2.656-1.787-1.015-.436-2.096-.654-3.242-.654s-2.227.218-3.242.654c-1.016.436-1.901 1.032-2.656 1.787-.756.755-1.351 1.638-1.788 2.647-.436 1.009-.654 2.086-.654 3.232 0 1.159.218 2.243.654 3.252.437 1.01 1.032 1.891 1.788 2.647.755.755 1.64 1.35 2.656 1.787 1.015.436 2.096.654 3.242.654zm2.578-4.434L12 13.47l-2.578 2.597-1.309-1.308 2.578-2.598-2.578-2.578 1.309-1.309L12 10.852l2.578-2.579 1.309 1.309-2.578 2.578 2.578 2.598-1.309 1.308z"/>
    </defs>
    <g fill="none" fill-rule="evenodd">
        <path d="M0 0H24V24H0z" opacity=".2"/>
        <mask id="fzg8yuqdvb" fill="#ffffff">
            <use xlink:href="#7b17fn1jaa"/>
        </mask>
        <path fill="#c1c1c1" d="M0 0H24V24H0z" mask="url(#fzg8yuqdvb)"/>
    </g>
</svg>
