<svg xmlns="http://www.w3.org/2000/svg" width="14" height="14" viewBox="0 0 14 14" fill="none">
  <path fill-rule="evenodd" clip-rule="evenodd" d="M5.5 0C5.03587 0 4.59075 0.184374 4.26256 0.512563C3.93438 0.840752 3.75 1.28587 3.75 1.75V2H2.5H1.5C1.08579 2 0.75 2.33579 0.75 2.75C0.75 3.16421 1.08579 3.5 1.5 3.5H1.75V12.25C1.75 12.5815 1.8817 12.8995 2.11612 13.1339C2.35054 13.3683 2.66848 13.5 3 13.5H11C11.3315 13.5 11.6495 13.3683 11.8839 13.1339C12.1183 12.8995 12.25 12.5815 12.25 12.25V3.5H12.5C12.9142 3.5 13.25 3.16421 13.25 2.75C13.25 2.33579 12.9142 2 12.5 2H11.5H10.25V1.75C10.25 1.28587 10.0656 0.840752 9.73744 0.512563C9.40925 0.184374 8.96413 0 8.5 0H5.5ZM8.75 2V1.75C8.75 1.6837 8.72366 1.62011 8.67678 1.57322C8.62989 1.52634 8.5663 1.5 8.5 1.5H5.5C5.4337 1.5 5.37011 1.52634 5.32322 1.57322C5.27634 1.62011 5.25 1.6837 5.25 1.75V2H8.75ZM4.5 3.5H3.25V12H10.75V3.5H9.5H4.5ZM5.5 5C5.91421 5 6.25 5.33579 6.25 5.75V9.75C6.25 10.1642 5.91421 10.5 5.5 10.5C5.08579 10.5 4.75 10.1642 4.75 9.75V5.75C4.75 5.33579 5.08579 5 5.5 5ZM9.25 5.75C9.25 5.33579 8.91421 5 8.5 5C8.08579 5 7.75 5.33579 7.75 5.75V9.75C7.75 10.1642 8.08579 10.5 8.5 10.5C8.91421 10.5 9.25 10.1642 9.25 9.75V5.75Z" fill="#C1C1C1"/>
</svg>