<?xml version="1.0" standalone="no"?>
<!DOCTYPE svg PUBLIC "-//W3C//DTD SVG 20010904//EN"
 "http://www.w3.org/TR/2001/REC-SVG-20010904/DTD/svg10.dtd">
<svg version="1.0" xmlns="http://www.w3.org/2000/svg"
 width="180.000000pt" height="180.000000pt" viewBox="0 0 180.000000 180.000000"
 preserveAspectRatio="xMidYMid meet">

<g transform="translate(0.000000,180.000000) scale(0.100000,-0.100000)"
fill="#747474" stroke="none">
<path d="M678 1648 c11 -18 144 -251 297 -518 152 -267 280 -488 284 -493 4
-4 127 -6 273 -5 l265 3 -297 520 -297 520 -273 3 -272 2 20 -32z"/>
<path d="M267 1163 l-267 -506 118 -264 c64 -144 119 -263 122 -263 3 0 139
227 303 505 l297 505 -148 265 c-81 146 -149 265 -152 265 -3 0 -126 -228
-273 -507z"/>
<path d="M562 473 c-22 -38 -67 -117 -102 -178 -34 -60 -71 -125 -82 -143
l-20 -32 602 2 602 3 95 165 c52 91 106 184 119 208 l25 42 -600 0 -600 0 -39
-67z"/>
</g>
</svg>
