<svg xmlns="http://www.w3.org/2000/svg" xmlns:xlink="http://www.w3.org/1999/xlink" width="36" height="36" viewBox="0 0 36 36">
    <defs>
        <path id="prefix__a" d="M17.742 13.008c.547 0 1.016-.195 1.406-.586.391-.39.586-.86.586-1.406 0-.563-.195-1.04-.586-1.43-.39-.39-.859-.586-1.406-.586-.547 0-1.015.195-1.406.586-.39.39-.586.867-.586 1.43 0 .546.195 1.015.586 1.406.39.39.86.586 1.406.586zm0 7.008c.547 0 1.016-.196 1.406-.586.391-.39.586-.867.586-1.43 0-.547-.195-1.016-.586-1.406-.39-.39-.859-.586-1.406-.586-.547 0-1.015.195-1.406.586-.39.39-.586.86-.586 1.406 0 .563.195 1.04.586 1.43.39.39.86.586 1.406.586zm0 6.984c.547 0 1.016-.195 1.406-.586.391-.39.586-.86.586-1.406 0-.547-.195-1.016-.586-1.406-.39-.391-.859-.586-1.406-.586-.547 0-1.015.195-1.406.586-.39.39-.586.859-.586 1.406 0 .547.195 1.015.586 1.406.39.39.86.586 1.406.586z"/>
    </defs>
    <g fill="none" fill-rule="evenodd">
        <path fill="#000" fill-opacity="0" d="M0 0H36V36H0z"/>
        <mask id="prefix__b" fill="#ffffff">
            <use xlink:href="#prefix__a"/>
        </mask>
        <use fill="#ffffff" fill-opacity="0" fill-rule="nonzero" xlink:href="#prefix__a"/>
        <path fill="#979899" d="M0 0H36V36H0z" mask="url(#prefix__b)"/>
    </g>
</svg>
