<svg xmlns="http://www.w3.org/2000/svg" xmlns:xlink="http://www.w3.org/1999/xlink" width="48" height="49" viewBox="0 0 48 49">
    <defs>
        <path id="prefix__a" d="M24 41.152c1.948 0 3.803-.322 5.564-.966 1.762-.645 3.352-1.54 4.77-2.686 1.418-1.146 2.621-2.5 3.61-4.06.988-1.562 1.697-3.259 2.126-5.092h-3.78c-.402 1.317-.996 2.535-1.784 3.652s-1.719 2.084-2.793 2.9c-1.074.817-2.263 1.454-3.567 1.913-1.303.458-2.685.687-4.146.687-1.776 0-3.445-.337-5.006-1.01-1.561-.673-2.922-1.59-4.082-2.75-1.16-1.16-2.077-2.52-2.75-4.082-.673-1.561-1.01-3.23-1.01-5.006 0-1.747.337-3.401 1.01-4.963.673-1.56 1.59-2.921 2.75-4.082 1.16-1.16 2.52-2.076 4.082-2.75 1.561-.673 3.23-1.01 5.006-1.01 1.776 0 3.438.337 4.984 1.01 1.547.674 2.908 1.583 4.082 2.729L27.652 21H40.5V8.152l-4.855 4.856c-1.49-1.49-3.237-2.671-5.243-3.545-2.005-.874-4.139-1.31-6.402-1.31s-4.397.436-6.402 1.31c-2.006.874-3.76 2.055-5.264 3.545-1.504 1.49-2.686 3.237-3.545 5.242-.86 2.005-1.289 4.14-1.289 6.402 0 2.292.43 4.44 1.29 6.446.858 2.005 2.04 3.752 3.544 5.242 1.504 1.49 3.258 2.664 5.264 3.523 2.005.86 4.139 1.29 6.402 1.29z"/>
    </defs>
    <g fill="none" fill-rule="evenodd">
        <path fill="#000" fill-opacity="0" d="M0 0H48V48H0z"/>
        <mask id="prefix__b" fill="#ffffff">
            <use xlink:href="#prefix__a"/>
        </mask>
        <use fill="#ffffff" fill-opacity="0" fill-rule="nonzero" xlink:href="#prefix__a"/>
        <path fill="#ffffff" d="M0 0H48V48H0z" mask="url(#prefix__b)"/>
    </g>
</svg>
