<svg xmlns="http://www.w3.org/2000/svg" xmlns:xlink="http://www.w3.org/1999/xlink" width="16" height="16" viewBox="0 0 16 16">
    <defs>
        <path id="prefix__a" d="M6.202 1c.553 0 1 .448 1 1 0 .448-.294.827-.7.954V4.33h2.996V1.783l2.192-.001c.128-.406.507-.7.954-.7.552 0 1 .448 1 1 0 .553-.448 1-1 1-.447 0-.826-.293-.954-.699l-1.593-.001V4.33h1.163c.156 0 .289.054.397.163.109.108.163.237.163.385v1.024h1.226c.116-.37.441-.647.837-.693L14 5.202c.552 0 1 .448 1 1 0 .553-.448 1-1 1-.448 0-.827-.294-.954-.7l-1.226-.001v2.997h2.397l.001 2.192c.406.128.7.507.7.954 0 .552-.448 1-1 1-.553 0-1-.448-1-1 0-.447.293-.826.699-.954v-1.593H11.82v1.462c0 .125-.035.235-.104.33l-.059.068c-.108.108-.24.163-.397.163l-1.163-.001v.927c.37.116.648.441.694.837l.007.117c0 .552-.448 1-1 1-.553 0-1-.448-1-1 0-.448.294-.827.7-.954v-.927H6.501v2.098l-2.191.001c-.128.406-.507.7-.954.7-.552 0-1-.448-1-1 0-.553.448-1 1-1 .447 0 .826.293.954.699h1.592v-1.498H4.59c-.125 0-.235-.034-.33-.104l-.067-.058c-.109-.109-.163-.242-.163-.398l-.001-1.462H2.954c-.116.37-.441.648-.837.694L2 10.798c-.552 0-1-.448-1-1 0-.553.448-1 1-1 .448 0 .827.294.954.7H4.03V6.501H1.783L1.782 4.31c-.406-.128-.7-.507-.7-.954 0-.552.448-1 1-1 .553 0 1 .448 1 1 0 .447-.293.826-.699.954l-.001 1.592h1.647l.001-1.024c0-.119.035-.224.104-.318l.059-.067c.108-.109.24-.163.397-.163h1.313V2.954c-.406-.127-.7-.506-.7-.954 0-.552.447-1 1-1zm4.42 4.528H5.228v5.393h5.394V5.528zm-.9 4.494V6.427H6.128v3.595h3.596z"/>
    </defs>
    <g fill="none" fill-rule="evenodd">
        <path fill="#000" fill-opacity="0" d="M0 0H16V16H0z"/>
        <mask id="prefix__b" fill="#ffffff">
            <use xlink:href="#prefix__a"/>
        </mask>
        <use fill="#ffffff" fill-opacity="0" fill-rule="nonzero" xlink:href="#prefix__a"/>
        <path fill="#2d76f8" d="M0 0H16V16H0z" mask="url(#prefix__b)"/>
    </g>
</svg>
