<svg width="24" height="24" viewBox="0 0 24 24" fill="none" xmlns="http://www.w3.org/2000/svg">
<g id="warning">
<path id="Vector" d="M4.46621 20.9997H19.5262C21.0662 20.9997 22.0262 19.3297 21.2562 17.9997L13.7262 4.98969C12.9562 3.65969 11.0362 3.65969 10.2662 4.98969L2.73621 17.9997C1.96621 19.3297 2.92621 20.9997 4.46621 20.9997V20.9997ZM11.9962 13.9997C11.4462 13.9997 10.9962 13.5497 10.9962 12.9997V10.9997C10.9962 10.4497 11.4462 9.99969 11.9962 9.99969C12.5462 9.99969 12.9962 10.4497 12.9962 10.9997V12.9997C12.9962 13.5497 12.5462 13.9997 11.9962 13.9997ZM12.9962 17.9997H10.9962V15.9997H12.9962V17.9997Z" fill="#FFC500"/>
</g>
</svg>
