<svg xmlns="http://www.w3.org/2000/svg" width="64" height="64" viewBox="0 0 64 64" fill="none">
  <path d="M24.1707 63.1178L15.7036 58.5116V56.536L37.3794 49.7172L41.7936 43.824V1.60143L43.9273 0.878906L52.3831 5.46243V48.9946L47.2125 55.8473L24.1707 63.1178Z" fill="#1E5BC5"/>
  <path d="M41.7936 1.60156L50.2607 6.18509V48.3851L45.8465 54.2782L24.1707 61.1309V63.1179L15.7036 58.5118V56.5361L37.3794 49.7173L41.7936 43.8242V1.60156Z" fill="#002F77"/>
  <path d="M37.5714 54.1437C37.8894 54.1437 38.1471 53.8859 38.1471 53.568C38.1471 53.25 37.8894 52.9922 37.5714 52.9922C37.2534 52.9922 36.9956 53.25 36.9956 53.568C36.9956 53.8859 37.2534 54.1437 37.5714 54.1437Z" fill="white"/>
  <path d="M42.7984 50C43.1101 50 43.3628 49.7473 43.3628 49.4356C43.3628 49.1238 43.1101 48.8711 42.7984 48.8711C42.4866 48.8711 42.2339 49.1238 42.2339 49.4356C42.2339 49.7473 42.4866 50 42.7984 50Z" fill="white"/>
  <path d="M46.0271 11.5157C46.3389 11.5157 46.5916 11.2629 46.5916 10.9512C46.5916 10.6394 46.3389 10.3867 46.0271 10.3867C45.7154 10.3867 45.4626 10.6394 45.4626 10.9512C45.4626 11.2629 45.7154 11.5157 46.0271 11.5157Z" fill="white"/>
  <path d="M40.4614 25.9766L47.4044 30.6391V38.7788L39.2534 41.398L32.3104 36.7467V28.5957L40.4614 25.9766Z" fill="#00AFD8"/>
  <path d="M39.2535 33.2485V41.3995L47.4045 38.7803V30.6406L39.2535 33.2485Z" fill="#3AEDCE"/>
  <path d="M34.9861 34.7378V32.8863L29.4656 29.7027V22.5H27.806V29.8833L19.8695 37.8198L21.4726 38.5649L28.2011 31.8477L29.2849 31.4525L34.9861 34.7378Z" fill="#46E89B"/>
  <path d="M19.7678 31.5078L11.6168 34.127V42.278L18.5598 46.9405L26.7108 44.3214V36.1704L19.7678 31.5078Z" fill="#164ABE"/>
  <path d="M18.5599 38.791V46.942L26.7109 44.3229V36.1719L18.5599 38.791Z" fill="#2D76F8"/>
  <path d="M27.298 10.3867L19.147 13.0059V21.1569L26.09 25.8194L34.241 23.2003V15.0493L27.298 10.3867Z" fill="#46E89B"/>
  <path d="M26.09 17.6699V25.8209L34.241 23.2018V15.0508L26.09 17.6699Z" fill="#A7FF73"/>
</svg>