<svg xmlns="http://www.w3.org/2000/svg" xmlns:xlink="http://www.w3.org/1999/xlink" width="24" height="24" viewBox="0 0 24 24">
    <defs>
        <filter id="8gq7kjoy9a">
            <feColorMatrix in="SourceGraphic" values="0 0 0 0 0.709804 0 0 0 0 0.721569 0 0 0 0 0.737255 0 0 0 1.000000 0"/>
        </filter>
        <path id="y6tnj7ul7b" d="M17.144 21.5c.18 0 .355-.026.527-.079.173-.052.326-.13.46-.235.3-.195.514-.453.641-.775s.16-.655.101-1l-.988-4.896 3.571-3.145c.27-.21.45-.479.54-.808.089-.33.089-.66 0-.989-.106-.314-.285-.584-.54-.808-.255-.225-.546-.36-.876-.405l-5.009-.763-1.976-4.245c-.15-.315-.367-.562-.652-.742-.284-.18-.599-.27-.943-.27s-.659.09-.943.27c-.285.18-.502.427-.652.742L8.43 7.597l-5.01.763c-.329.045-.62.18-.875.405-.255.224-.434.494-.54.808-.089.33-.089.66 0 .989.09.329.263.598.517.808l3.617 3.145-.989 4.896c-.074.345-.048.678.079 1 .127.322.333.58.618.775.284.194.602.295.954.303.352.007.678-.071.977-.236L12 18.67l4.223 2.56c.134.09.28.158.438.203.157.045.318.067.483.067z"/>
    </defs>
    <g fill="none" fill-rule="evenodd">
        <g>
            <g>
                <g>
                    <g filter="url(#8gq7kjoy9a)" transform="translate(-316 -210) translate(278 58) translate(24 128) translate(0 12)">
                        <g transform="translate(14 12)">
                            <path d="M0 0H24V24H0z" opacity=".2"/>
                            <mask id="ulh62snhdc" fill="#ffffff">
                                <use xlink:href="#y6tnj7ul7b"/>
                            </mask>
                            <path fill="#ffffff" d="M0 0H24V24H0z" mask="url(#ulh62snhdc)"/>
                        </g>
                    </g>
                </g>
            </g>
        </g>
    </g>
</svg>
