<?xml version="1.0" encoding="UTF-8"?>
<svg width="24px" height="24px" viewBox="0 0 24 24" version="1.1" xmlns="http://www.w3.org/2000/svg" xmlns:xlink="http://www.w3.org/1999/xlink">
    <title>icon/service-enabled</title>
    <defs>
        <path d="M14.1217105,2 C14.1875,2 14.2450658,2.01953888 14.2944079,2.05861665 C14.3273026,2.08466849 14.3492325,2.1159307 14.3601974,2.15240328 L14.3684211,2.21101993 L14.7631579,4.88393904 C15.0427632,4.97772567 15.3141447,5.09495897 15.5773026,5.23563892 L15.9720395,5.45252052 L15.9720395,5.45252052 L16.3667763,5.68112544 L16.4161184,5.72801876 L16.4407895,5.73388042 L16.4407895,5.73388042 L16.4654605,5.75146542 L16.4819079,5.76449134 C16.4928728,5.7714385 16.5038377,5.77491208 16.5148026,5.77491208 C16.5476974,5.80617429 16.5805921,5.83352872 16.6134868,5.85697538 L16.6566612,5.88921454 L16.6566612,5.88921454 L16.6875,5.91559203 L16.8601974,6.05627198 L16.8848684,6.06213365 L16.8848684,6.06213365 L16.9095395,6.07971864 L16.9259868,6.09274456 L16.9424342,6.10056011 L16.9424342,6.10056011 L16.9588816,6.1031653 L19.5493421,5.11840563 C19.6151316,5.08714342 19.6768092,5.08323564 19.734375,5.1066823 C19.7727522,5.1223134 19.8056469,5.14315488 19.8330592,5.16920672 L19.8700658,5.21219226 L21.9671053,8.79953107 C22,8.84642438 22.0082237,8.89722548 21.9917763,8.95193435 C21.9808114,8.98840693 21.9625365,9.02314272 21.9369518,9.05614172 L21.8930921,9.10433763 L19.7220395,10.7690504 C19.7384868,10.8315748 19.7508224,10.898007 19.7590461,10.968347 L19.7682977,11.0709261 L19.7682977,11.0709261 L19.7713816,11.1676436 L19.7960526,11.2145369 L19.7960526,11.3083236 L19.8145559,11.475381 L19.8145559,11.475381 L19.8207237,11.6483001 L19.8207237,12.3399766 C19.8207237,12.4129217 19.8170687,12.4893405 19.8097588,12.5692328 L19.7960526,12.6916764 L19.7960526,12.7854631 L19.7713816,12.8323564 C19.7713816,12.8948808 19.7672697,12.9574052 19.7590461,13.0199297 L19.7436266,13.1137163 L19.7436266,13.1137163 L19.7220395,13.2075029 L21.8930921,14.8956624 C21.9424342,14.9269246 21.9753289,14.9738179 21.9917763,15.0363423 C22.0027412,15.0780253 22.0027412,15.1162346 21.9917763,15.1509704 L21.9671053,15.2004689 L19.8700658,18.7643611 C19.8371711,18.8268855 19.7919408,18.8659633 19.734375,18.8815944 C19.6959978,18.8920151 19.6557931,18.8954887 19.613761,18.8920151 L19.5493421,18.8815944 L16.9588816,17.873388 C16.9424342,17.8890191 16.9259868,17.9007425 16.9095395,17.908558 L16.8910362,17.9232122 L16.8910362,17.9232122 L16.8848684,17.943728 L16.7121711,18.084408 C16.6792763,18.1000391 16.6463816,18.119578 16.6134868,18.1430246 C16.5805921,18.1664713 16.5476974,18.1860102 16.5148026,18.2016413 C16.4983553,18.2172724 16.4860197,18.2289957 16.4777961,18.2368113 L16.4623766,18.2514654 L16.4623766,18.2514654 L16.4407895,18.2719812 L16.3914474,18.2954279 C16.1282895,18.4673701 15.8610197,18.6197733 15.5896382,18.7526377 C15.4087171,18.841214 15.2259686,18.9245799 15.0413925,19.0027354 L14.7631579,19.116061 L14.3684211,21.7889801 C14.3684211,21.8515045 14.34375,21.9023056 14.2944079,21.9413834 C14.2615132,21.9674352 14.2249635,21.9848031 14.1847588,21.993487 L14.1217105,22 L9.87828947,22 C9.8125,22 9.75493421,21.9804611 9.70559211,21.9413834 C9.67269737,21.9153315 9.65076754,21.8840693 9.63980263,21.8475967 L9.63157895,21.7889801 L9.23684211,19.116061 C8.95723684,19.0066432 8.68174342,18.8855021 8.41036184,18.7526377 C8.22944079,18.6640615 8.05034722,18.5668013 7.87308114,18.4608571 L7.60855263,18.2954279 L7.55921053,18.2719812 C7.54276316,18.2563501 7.53042763,18.2446268 7.52220395,18.2368113 C7.51398026,18.2289957 7.50164474,18.2172724 7.48519737,18.2016413 C7.45230263,18.1860102 7.41940789,18.1664713 7.38651316,18.1430246 L7.34333882,18.1107855 L7.34333882,18.1107855 L7.3125,18.084408 L7.11513158,17.943728 C7.11513158,17.9280969 7.10690789,17.9163736 7.09046053,17.908558 L7.06578947,17.8939039 L7.06578947,17.8939039 L7.04111842,17.873388 L4.45065789,18.8815944 C4.38486842,18.8972255 4.32319079,18.8972255 4.265625,18.8815944 C4.22724781,18.8711736 4.19435307,18.8503322 4.16694079,18.8190699 L4.12993421,18.7643611 L2.03289474,15.2004689 C2,15.1535756 1.99177632,15.0988667 2.00822368,15.0363423 C2.0191886,14.9946594 2.03746345,14.9599236 2.06304825,14.9321349 L2.10690789,14.8956624 L4.27796053,13.2075029 C4.26151316,13.1449785 4.24917763,13.0824541 4.24095395,13.0199297 L4.2317023,12.926143 L4.2317023,12.926143 L4.22861842,12.8323564 L4.22861842,12.7854631 L4.21011513,12.7620164 L4.21011513,12.7620164 L4.20394737,12.7385698 L4.20394737,12.6916764 C4.19298246,12.6083105 4.18567251,12.5284182 4.18201754,12.4519995 L4.17927632,12.3399766 L4.17927632,11.6483001 L4.18544408,11.475381 L4.18544408,11.475381 L4.20394737,11.3083236 L4.20394737,11.2614302 L4.21011513,11.2379836 L4.21011513,11.2379836 L4.22861842,11.2145369 L4.22861842,11.144197 C4.22861842,11.0816725 4.23273026,11.0191481 4.24095395,10.9566237 L4.25637336,10.862837 L4.25637336,10.862837 L4.27796053,10.7690504 L2.10690789,9.10433763 C2.05756579,9.05744431 2.02467105,9.00664322 2.00822368,8.95193435 C1.99725877,8.91546177 1.99725877,8.88072598 2.00822368,8.84772698 L2.03289474,8.79953107 L4.12993421,5.23563892 C4.16282895,5.1731145 4.20805921,5.13012896 4.265625,5.1066823 C4.30400219,5.09105119 4.34420687,5.08757761 4.38623904,5.09626156 L4.45065789,5.11840563 L7.04111842,6.1031653 L7.06578947,6.09730363 L7.06578947,6.09730363 L7.09046053,6.07971864 L7.10690789,6.06669272 L7.12335526,6.05887717 L7.12335526,6.05887717 L7.13980263,6.05627198 L7.3125,5.91559203 C7.34539474,5.88432982 7.37417763,5.86088316 7.39884868,5.84525205 C7.42351974,5.82962095 7.45230263,5.80617429 7.48519737,5.77491208 L7.50986842,5.76905041 L7.50986842,5.76905041 L7.53453947,5.75146542 L7.55098684,5.73843949 L7.56743421,5.73062394 L7.56743421,5.73062394 L7.58388158,5.72801876 L7.63322368,5.68112544 C7.89638158,5.52481438 8.15953947,5.37631887 8.42269737,5.23563892 C8.59813596,5.14185229 8.77722953,5.05848639 8.95997807,4.98554123 L9.23684211,4.88393904 L9.63157895,2.21101993 C9.63157895,2.14849551 9.65625,2.09769441 9.70559211,2.05861665 C9.73848684,2.0325648 9.77503655,2.01519691 9.81524123,2.00651296 L9.87828947,2 L14.1217105,2 Z M11.9930432,7 C10.6106575,7 9.43451479,7.49052397 8.46461512,8.47157191 C7.49471546,9.45261984 7.00976562,10.6231884 7.00976562,11.9832776 C7.00976562,13.3656633 7.49471546,14.5473802 8.46461512,15.5284281 C9.43451479,16.509476 10.6106575,17 11.9930432,17 C13.3754289,17 14.5571458,16.509476 15.5381937,15.5284281 C16.5192417,14.5473802 17.0097656,13.3656633 17.0097656,11.9832776 C17.0097656,10.6231884 16.5192417,9.45261984 15.5381937,8.47157191 C14.5571458,7.49052397 13.3754289,7 11.9930432,7 Z M14.5531953,9.4711427 L15.7996585,10.6981299 L11.3421225,14.9870023 L8.57842751,12.2233073 L9.81916636,10.9825684 L11.3573333,12.5139219 L14.5531953,9.4711427 Z" id="path-1"></path>
    </defs>
    <g id="icon/service-enabled" stroke="none" stroke-width="1" fill="none" fill-rule="evenodd">
        <mask id="mask-2" fill="white">
            <use xlink:href="#path-1"></use>
        </mask>
        <g id="Mask"></g>
        <rect id="_color" fill="#747474" mask="url(#mask-2)" x="0" y="0" width="24" height="24"></rect>
    </g>
</svg>
