<svg xmlns="http://www.w3.org/2000/svg" width="16" height="16" viewBox="0 0 16 16" fill="none">
  <g clip-path="url(#clip0_1817_22619)">
    <path d="M11.3359 7.33333H13.3359C14.0759 7.33333 14.6693 6.73333 14.6693 6V3.33333C14.6693 2.59333 14.0693 2 13.3359 2H11.3359C10.5959 2 10.0026 2.6 10.0026 3.33333V4H6.00927V3.33333C6.00927 2.59333 5.40927 2 4.67594 2H2.66927C1.93594 2 1.33594 2.6 1.33594 3.33333V6C1.33594 6.74 1.93594 7.33333 2.66927 7.33333H4.66927C5.40927 7.33333 6.0026 6.73333 6.0026 6V5.33333H7.33594V10.0067C7.33594 11.1067 8.22927 12 9.32927 12H10.0026V12.6667C10.0026 13.4067 10.6026 14 11.3359 14H13.3359C14.0759 14 14.6693 13.4 14.6693 12.6667V10C14.6693 9.26 14.0693 8.66667 13.3359 8.66667H11.3359C10.5959 8.66667 10.0026 9.26667 10.0026 10V10.6667H9.32927C8.96927 10.6667 8.66927 10.3667 8.66927 10.0067V5.33333H10.0026V6C10.0026 6.73333 10.6026 7.33333 11.3359 7.33333Z" fill="#2D76F8"/>
  </g>
  <defs>
    <clipPath id="clip0_1817_22619">
      <rect width="16" height="16" fill="white"/>
    </clipPath>
  </defs>
</svg>