<svg xmlns="http://www.w3.org/2000/svg" width="12" height="15" viewBox="0 0 12 15" fill="none">
<path d="M10.0013 5.33464H9.33464V4.0013C9.33464 2.1613 7.8413 0.667969 6.0013 0.667969C4.1613 0.667969 2.66797 2.1613 2.66797 4.0013V5.33464H2.0013C1.26797 5.33464 0.667969 5.93464 0.667969 6.66797V13.3346C0.667969 14.068 1.26797 14.668 2.0013 14.668H10.0013C10.7346 14.668 11.3346 14.068 11.3346 13.3346V6.66797C11.3346 5.93464 10.7346 5.33464 10.0013 5.33464ZM6.0013 11.3346C5.26797 11.3346 4.66797 10.7346 4.66797 10.0013C4.66797 9.26797 5.26797 8.66797 6.0013 8.66797C6.73464 8.66797 7.33464 9.26797 7.33464 10.0013C7.33464 10.7346 6.73464 11.3346 6.0013 11.3346ZM4.0013 5.33464V4.0013C4.0013 2.89464 4.89464 2.0013 6.0013 2.0013C7.10797 2.0013 8.0013 2.89464 8.0013 4.0013V5.33464H4.0013Z" fill="#7E7E7F"/>
</svg>