<svg width="24" height="24" viewBox="0 0 24 24" fill="none" xmlns="http://www.w3.org/2000/svg">
<path fill-rule="evenodd" clip-rule="evenodd" d="M12 4.5C7.44365 4.5 4.5 7.44365 4.5 12C4.5 16.5563 7.44365 19.5 12 19.5C16.5563 19.5 19.5 16.5563 19.5 12C19.5 7.44365 16.5563 4.5 12 4.5ZM2.25 12C2.25 6.61522 6.61522 2.25 12 2.25C17.3848 2.25 21.75 6.61522 21.75 12C21.75 17.3848 17.3848 21.75 12 21.75C6.61522 21.75 2.25 17.3848 2.25 12Z" fill="#3E3E3E"/>
<path fill-rule="evenodd" clip-rule="evenodd" d="M2.76562 9C2.76562 8.58579 3.10141 8.25 3.51562 8.25H20.4844C20.8986 8.25 21.2344 8.58579 21.2344 9C21.2344 9.41421 20.8986 9.75 20.4844 9.75H3.51562C3.10141 9.75 2.76562 9.41421 2.76562 9Z" fill="#3E3E3E"/>
<path fill-rule="evenodd" clip-rule="evenodd" d="M2.76562 15C2.76562 14.5858 3.10141 14.25 3.51562 14.25H20.4844C20.8986 14.25 21.2344 14.5858 21.2344 15C21.2344 15.4142 20.8986 15.75 20.4844 15.75H3.51562C3.10141 15.75 2.76562 15.4142 2.76562 15Z" fill="#3E3E3E"/>
<path fill-rule="evenodd" clip-rule="evenodd" d="M10.0378 6.1021C9.4079 7.57289 9 9.65704 9 11.9984C9 14.3398 9.4079 16.424 10.0378 17.8948C10.3533 18.6315 10.7097 19.1798 11.0673 19.533C11.4217 19.883 11.736 20.0047 12 20.0047C12.264 20.0047 12.5783 19.883 12.9327 19.533C13.2903 19.1798 13.6467 18.6315 13.9622 17.8948C14.5921 16.424 15 14.3398 15 11.9984C15 9.65704 14.5921 7.57289 13.9622 6.1021C13.6467 5.36536 13.2903 4.81709 12.9327 4.46392C12.5783 4.11392 12.264 3.99219 12 3.99219C11.736 3.99219 11.4217 4.11392 11.0673 4.46392C10.7097 4.81709 10.3533 5.36536 10.0378 6.1021ZM10.0133 3.39667C10.5562 2.8605 11.2284 2.49219 12 2.49219C12.7716 2.49219 13.4438 2.8605 13.9867 3.39667C14.5264 3.92968 14.978 4.66374 15.3411 5.51157C16.0684 7.20992 16.5 9.50389 16.5 11.9984C16.5 14.493 16.0684 16.787 15.3411 18.4853C14.978 19.3331 14.5264 20.0672 13.9867 20.6002C13.4438 21.1364 12.7716 21.5047 12 21.5047C11.2284 21.5047 10.5562 21.1364 10.0133 20.6002C9.47362 20.0672 9.02201 19.3331 8.65891 18.4853C7.93157 16.787 7.5 14.493 7.5 11.9984C7.5 9.50389 7.93157 7.20992 8.65891 5.51157C9.02201 4.66374 9.47362 3.92968 10.0133 3.39667Z" fill="#3E3E3E"/>
</svg>
