<svg width="24" height="24" viewBox="0 0 24 24" fill="none" xmlns="http://www.w3.org/2000/svg">
<g clip-path="url(#clip0_847_16343)">
<path d="M15.9035 13.0506L13.7822 15.1719L19.7784 21.1681L21.8997 19.0468L15.9035 13.0506Z" fill="#2d76f8"/>
<path d="M17.4996 9.9998C19.4296 9.9998 20.9996 8.4298 20.9996 6.4998C20.9996 5.9198 20.8396 5.3798 20.5896 4.8998L17.8896 7.5998L16.3996 6.1098L19.0996 3.4098C18.6196 3.1598 18.0796 2.9998 17.4996 2.9998C15.5696 2.9998 13.9996 4.5698 13.9996 6.4998C13.9996 6.9098 14.0796 7.2998 14.2096 7.6598L12.3596 9.5098L10.5796 7.7298L11.2896 7.0198L9.87961 5.6098L11.9996 3.4898C10.8296 2.3198 8.92961 2.3198 7.75961 3.4898L4.21961 7.0298L5.62961 8.4398H2.80961L2.09961 9.1498L5.63961 12.6898L6.34961 11.9798V9.1498L7.75961 10.5598L8.46961 9.8498L10.2496 11.6298L2.83961 19.0398L4.95961 21.1598L16.3396 9.7898C16.6996 9.9198 17.0896 9.9998 17.4996 9.9998Z" fill="#2d76f8"/>
</g>
<defs>
<clipPath id="clip0_847_16343">
<rect width="24" height="24" fill="white"/>
</clipPath>
</defs>
</svg>
