<svg xmlns="http://www.w3.org/2000/svg" width="16" height="16" viewBox="0 0 16 16" fill="none">
  <mask id="mask0_118_11854" style="mask-type:alpha" maskUnits="userSpaceOnUse" x="0" y="0" width="16" height="16">
    <rect width="16" height="16" fill="#D9D9D9"/>
  </mask>
  <g mask="url(#mask0_118_11854)">
    <path d="M3.83529 10.8646L3.56862 10.6313C2.99084 10.1201 2.58529 9.53681 2.35195 8.88125C2.11862 8.22569 2.00195 7.56458 2.00195 6.89792C2.00195 5.85347 2.26584 4.90625 2.79362 4.05625C3.3214 3.20625 4.03529 2.55347 4.93529 2.09792C5.09084 2.00903 5.25751 2.00347 5.43529 2.08125C5.61306 2.15903 5.72973 2.28681 5.78529 2.46458C5.84084 2.63125 5.83806 2.79792 5.77695 2.96458C5.71584 3.13125 5.60751 3.25903 5.45195 3.34792C4.80751 3.70347 4.29362 4.19514 3.91029 4.82292C3.52695 5.45069 3.33529 6.14236 3.33529 6.89792C3.33529 7.39792 3.42973 7.88403 3.61862 8.35625C3.80751 8.82847 4.10195 9.26458 4.50195 9.66458L4.66862 9.83125V8.86458C4.66862 8.67569 4.73251 8.51736 4.86029 8.38958C4.98806 8.26181 5.1464 8.19792 5.33529 8.19792C5.52418 8.19792 5.68251 8.26181 5.81029 8.38958C5.93806 8.51736 6.00195 8.67569 6.00195 8.86458V11.5312C6.00195 11.7201 5.93806 11.8785 5.81029 12.0063C5.68251 12.134 5.52418 12.1979 5.33529 12.1979H2.66862C2.47973 12.1979 2.3214 12.134 2.19362 12.0063C2.06584 11.8785 2.00195 11.7201 2.00195 11.5312C2.00195 11.3424 2.06584 11.184 2.19362 11.0563C2.3214 10.9285 2.47973 10.8646 2.66862 10.8646H3.83529ZM11.3353 3.89792V4.86458C11.3353 5.05347 11.2714 5.21181 11.1436 5.33958C11.0158 5.46736 10.8575 5.53125 10.6686 5.53125C10.4797 5.53125 10.3214 5.46736 10.1936 5.33958C10.0658 5.21181 10.002 5.05347 10.002 4.86458V2.19792C10.002 2.00903 10.0658 1.85069 10.1936 1.72292C10.3214 1.59514 10.4797 1.53125 10.6686 1.53125H13.3353C13.5242 1.53125 13.6825 1.59514 13.8103 1.72292C13.9381 1.85069 14.002 2.00903 14.002 2.19792C14.002 2.38681 13.9381 2.54514 13.8103 2.67292C13.6825 2.80069 13.5242 2.86458 13.3353 2.86458H12.1686L12.4353 3.09792C12.8908 3.56458 13.2408 4.05903 13.4853 4.58125C13.7297 5.10347 13.8853 5.64236 13.952 6.19792H12.602C12.5464 5.80903 12.427 5.43681 12.2436 5.08125C12.0603 4.72569 11.8131 4.38681 11.502 4.06458L11.3353 3.89792Z" fill="#3E3E3E"/>
    <path d="M11.3044 8.32562V11.3885C10.9127 11.1635 10.4293 11.076 9.9167 11.2552C9.3583 11.4552 8.92908 11.9511 8.82907 12.5345C8.63738 13.6763 9.60416 14.6514 10.7418 14.4722C11.5586 14.3431 12.1378 13.593 12.1378 12.7637V9.15906H12.9713C13.4296 9.15906 13.8047 8.78402 13.8047 8.32562C13.8047 7.86723 13.4296 7.49219 12.9713 7.49219H12.1378C11.6794 7.49219 11.3044 7.86723 11.3044 8.32562Z" fill="#3E3E3E"/>
  </g>
</svg>