<svg xmlns="http://www.w3.org/2000/svg" width="13" height="12" viewBox="0 0 13 12" fill="none">
  <path d="M2.61068 9.86458L2.34401 9.63125C1.76623 9.12014 1.36068 8.53681 1.12734 7.88125C0.89401 7.22569 0.777344 6.56458 0.777344 5.89792C0.777344 4.85347 1.04123 3.90625 1.56901 3.05625C2.09679 2.20625 2.81068 1.55347 3.71068 1.09792C3.86623 1.00903 4.0329 1.00347 4.21068 1.08125C4.38845 1.15903 4.50512 1.28681 4.56068 1.46458C4.61623 1.63125 4.61345 1.79792 4.55234 1.96458C4.49123 2.13125 4.3829 2.25903 4.22734 2.34792C3.5829 2.70347 3.06901 3.19514 2.68568 3.82292C2.30234 4.45069 2.11068 5.14236 2.11068 5.89792C2.11068 6.39792 2.20512 6.88403 2.39401 7.35625C2.5829 7.82847 2.87734 8.26458 3.27734 8.66458L3.44401 8.83125V7.86458C3.44401 7.67569 3.5079 7.51736 3.63568 7.38958C3.76345 7.26181 3.92179 7.19792 4.11068 7.19792C4.29957 7.19792 4.4579 7.26181 4.58568 7.38958C4.71345 7.51736 4.77734 7.67569 4.77734 7.86458V10.5312C4.77734 10.7201 4.71345 10.8785 4.58568 11.0063C4.4579 11.134 4.29957 11.1979 4.11068 11.1979H1.44401C1.25512 11.1979 1.09679 11.134 0.96901 11.0063C0.841233 10.8785 0.777344 10.7201 0.777344 10.5312C0.777344 10.3424 0.841233 10.184 0.96901 10.0563C1.09679 9.92847 1.25512 9.86458 1.44401 9.86458H2.61068ZM10.1107 2.89792V3.86458C10.1107 4.05347 10.0468 4.21181 9.91901 4.33958C9.79123 4.46736 9.6329 4.53125 9.44401 4.53125C9.25512 4.53125 9.09679 4.46736 8.96901 4.33958C8.84123 4.21181 8.77734 4.05347 8.77734 3.86458V1.19792C8.77734 1.00903 8.84123 0.850694 8.96901 0.722917C9.09679 0.595139 9.25512 0.53125 9.44401 0.53125H12.1107C12.2996 0.53125 12.4579 0.595139 12.5857 0.722917C12.7135 0.850694 12.7773 1.00903 12.7773 1.19792C12.7773 1.38681 12.7135 1.54514 12.5857 1.67292C12.4579 1.80069 12.2996 1.86458 12.1107 1.86458H10.944L11.2107 2.09792C11.6662 2.56458 12.0162 3.05903 12.2607 3.58125C12.5051 4.10347 12.6607 4.64236 12.7273 5.19792H11.3773C11.3218 4.80903 11.2023 4.43681 11.019 4.08125C10.8357 3.72569 10.5885 3.38681 10.2773 3.06458L10.1107 2.89792Z" fill="#3E3E3E"/>
</svg>