<svg xmlns="http://www.w3.org/2000/svg" width="16" height="16" viewBox="0 0 16 16" fill="none">
  <path d="M10.0326 3.38281H3.36589C2.99922 3.38281 2.69922 3.68281 2.69922 4.04948C2.69922 4.41615 2.99922 4.71615 3.36589 4.71615H10.0326C10.3992 4.71615 10.6992 4.41615 10.6992 4.04948C10.6992 3.68281 10.3992 3.38281 10.0326 3.38281ZM10.0326 6.04948H3.36589C2.99922 6.04948 2.69922 6.34948 2.69922 6.71615C2.69922 7.08281 2.99922 7.38281 3.36589 7.38281H10.0326C10.3992 7.38281 10.6992 7.08281 10.6992 6.71615C10.6992 6.34948 10.3992 6.04948 10.0326 6.04948ZM3.36589 10.0495H7.36589C7.73255 10.0495 8.03255 9.74948 8.03255 9.38281C8.03255 9.01615 7.73255 8.71615 7.36589 8.71615H3.36589C2.99922 8.71615 2.69922 9.01615 2.69922 9.38281C2.69922 9.74948 2.99922 10.0495 3.36589 10.0495Z" fill="#3E3E3E"/>
  <path d="M12.3004 10.9438C12.8999 10.9438 13.3839 10.4589 13.3839 9.85826L13.3839 7.06209C13.3839 6.46143 12.8999 5.97656 12.3004 5.97656C11.7009 5.97656 11.2169 6.46143 11.2169 7.06209L11.2169 9.85826C11.2169 10.4589 11.7009 10.9438 12.3004 10.9438ZM14.4349 9.85826C14.2579 9.85826 14.1099 9.98852 14.081 10.1658C13.9329 11.0162 13.1925 11.6675 12.3004 11.6675C11.4083 11.6675 10.6679 11.0162 10.5198 10.1658C10.4909 9.98852 10.3429 9.85826 10.1659 9.85826C9.94557 9.85826 9.77221 10.0537 9.80471 10.2708C9.98169 11.3563 10.8485 12.2066 11.9392 12.3622V13.1148C11.9392 13.3138 12.1018 13.4767 12.3004 13.4767C12.499 13.4767 12.6616 13.3138 12.6616 13.1148V12.3622C13.7523 12.2066 14.6191 11.3563 14.7961 10.2708C14.8322 10.0537 14.6552 9.85826 14.4349 9.85826Z" fill="#3E3E3E"/>
</svg>