<svg xmlns="http://www.w3.org/2000/svg" viewBox="0 0 461.4 110.25"><defs><style>.cls-1{fill:#282828;}.cls-2{fill:#545454;}.cls-3{fill:#292929;}.cls-4{opacity:0.7;}.cls-5{fill:#ffffff;}.cls-6{fill:#474747;}.cls-7{fill:#6e6e6e;}.cls-8{fill:silver;}.cls-9{fill:#dfdfdf;}.cls-10{fill:#939393;}.cls-11{fill:#bfbfbf;}</style></defs><g id="레이어_2" data-name="레이어 2"><g id="Layer_1" data-name="Layer 1"><polygon class="cls-1" points="105.67 74.7 110.87 74.7 110.87 58.48 124.62 58.48 126.26 53.69 110.87 53.69 110.87 41.9 127.79 41.9 129.43 37.06 105.67 37.06 105.67 74.7"/><polygon class="cls-1" points="144.91 36.23 139.71 37.83 139.71 74.7 161.88 74.7 163.52 69.92 144.91 69.92 144.91 36.23"/><polygon class="cls-1" points="174.82 74.7 180.02 74.7 180.02 36.33 174.82 37.93 174.82 74.7"/><path class="cls-1" d="M211.78,61.33h9.73v5.85a14.32,14.32,0,0,1-9.24,3.45,14.62,14.62,0,0,1-14.39-14.8c0-8.16,6.39-14.8,14.24-14.8a14.39,14.39,0,0,1,11.14,5.25l1.1,1.54V40.33l-.23-.19a19.14,19.14,0,0,0-12-4,19.69,19.69,0,0,0,.14,39.38h.29a19.8,19.8,0,0,0,14-6.22l.16-.17V56.5H213.42Z"/><polygon class="cls-1" points="264.89 53.59 244.52 53.59 244.52 36.33 239.33 37.93 239.33 74.7 244.52 74.7 244.52 58.43 264.89 58.43 264.89 74.7 270.09 74.7 270.09 36.33 264.89 37.93 264.89 53.59"/><polygon class="cls-1" points="281.39 41.84 294.14 41.84 294.14 74.7 299.33 74.7 299.33 41.84 310.44 41.84 312.07 37.01 283.03 37.01 281.39 41.84"/><path class="cls-1" d="M343.32,54.36c2.46-1.54,3.62-4,3.62-7.51,0-4.56-2-10-11.73-10H323.38V74.7h11.83c8.12,0,13.37-4.48,13.37-11.42C348.58,59.1,346.85,56.17,343.32,54.36Zm-8.11-2.51h-6.64V42.1h6.64c5.82,0,6.49,2.71,6.49,4.75C341.7,50.22,339.58,51.85,335.21,51.85Zm1.28,17.66h-7.92V57.05h7.92c3.84,0,6.84,2.73,6.84,6.23S340.33,69.51,336.49,69.51Z"/><path class="cls-1" d="M357.52,74.7h5.3l3.42-8.11h15.62l3.42,8.11h5.3L374.05,35.49Zm22.35-13H368.28L374.05,48Z"/><path class="cls-1" d="M413.62,52.86l-.69-.25c-4-1.42-8.11-2.9-8.11-6,0-3.76,2.17-5.51,6.84-5.51a13.64,13.64,0,0,1,10,3.83l1.06,1.19V40l-.18-.17c-1.11-1.12-4.4-3.7-10.84-3.7-5.94,0-12.29,2.77-12.29,10.55,0,6.88,7.72,9.55,11.43,10.84l.45.15c4.14,1.41,8.83,3,8.83,6.36,0,4.17-2.88,6.28-8.57,6.28-3.68,0-9-2.67-11.24-4.59l-1-.88v6.1l.2.18a18,18,0,0,0,12,4.19c9.3,0,14-3.8,14-11.28C425.53,57,418.36,54.52,413.62,52.86Z"/><polygon class="cls-1" points="442.79 58.27 456.54 58.27 458.18 53.49 442.79 53.49 442.79 41.69 459.76 41.69 461.39 36.85 437.59 36.85 437.59 74.7 459.76 74.7 461.39 69.87 442.79 69.87 442.79 58.27"/><polygon class="cls-2" points="14.99 110.25 0 102.1 0 98.59 38.4 86.51 46.22 76.07 46.22 1.27 49.99 0 64.98 8.12 64.98 85.23 55.82 97.38 14.99 110.25"/><polygon class="cls-3" points="46.22 1.27 61.21 9.39 61.21 84.16 53.4 94.6 14.99 106.74 14.99 110.25 0 102.1 0 98.59 38.4 86.51 46.22 76.07 46.22 1.27"/><g class="cls-4"><g class="cls-4"><circle class="cls-5" cx="38.74" cy="93.33" r="1.03"/></g><g class="cls-4"><circle class="cls-5" cx="47.99" cy="86" r="1.01"/></g><g class="cls-4"><circle class="cls-5" cx="53.72" cy="17.84" r="1"/></g></g><polygon class="cls-6" points="21.87 49.03 21.86 71.29 33.07 78.8 53.58 72.37 33.07 56.54 21.87 49.03"/><polygon class="cls-7" points="33.07 56.54 33.07 78.8 53.58 72.37 33.07 56.54"/><polygon class="cls-8" points="42.37 20.33 21.86 49.03 33.06 56.54 53.57 50.11 53.57 27.84 42.37 20.33"/><polygon class="cls-9" points="33.06 56.54 53.57 50.11 53.57 27.84 33.06 56.54"/><polygon class="cls-10" points="21.85 49.03 1.34 55.47 1.33 77.73 12.54 85.24 33.05 56.54 21.85 49.03"/><polygon class="cls-11" points="12.54 62.97 12.54 85.24 33.05 56.54 12.54 62.97"/><polygon class="cls-6" points="33.05 34.27 21.84 26.75 0.64 34.16 0.64 34.16 11.13 41.89 33.07 56.54 33.05 34.27"/><polygon class="cls-7" points="11.84 41.67 11.13 41.89 33.05 56.54 33.05 34.27 11.84 41.67"/></g></g></svg>
