<svg xmlns="http://www.w3.org/2000/svg" viewBox="0 0 498.21 110.25"><defs><style>.cls-1{fill:#282828;}.cls-2{fill:#545454;}.cls-3{fill:#292929;}.cls-4{opacity:0.7;}.cls-5{fill:#ffffff;}.cls-6{fill:silver;}.cls-7{fill:#474747;}.cls-8{fill:#6e6e6e;}.cls-9{fill:#dfdfdf;}.cls-10{fill:#939393;}.cls-11{fill:#bfbfbf;}</style></defs><g id="레이어_2" data-name="레이어 2"><g id="Layer_1" data-name="Layer 1"><polygon class="cls-1" points="140.55 53.59 120.18 53.59 120.18 36.33 114.98 37.93 114.98 74.7 120.18 74.7 120.18 58.43 140.55 58.43 140.55 74.7 145.74 74.7 145.74 36.33 140.55 37.93 140.55 53.59"/><polygon class="cls-1" points="182.01 41.69 183.65 36.85 159.84 36.85 159.84 74.7 182.01 74.7 183.65 69.87 165.04 69.87 165.04 58.27 178.79 58.27 180.43 53.49 165.04 53.49 165.04 41.69 182.01 41.69"/><path class="cls-1" d="M190.56,74.7h5.3l3.42-8.11H214.9l3.42,8.11h5.3L207.09,35.49Zm22.35-13H201.32L207.09,48Z"/><polygon class="cls-1" points="239.54 36.23 234.35 37.83 234.35 74.7 256.51 74.7 258.15 69.92 239.54 69.92 239.54 36.23"/><polygon class="cls-1" points="266.67 41.84 279.41 41.84 279.41 74.7 284.6 74.7 284.6 41.84 295.71 41.84 297.35 37.01 268.31 37.01 266.67 41.84"/><polygon class="cls-1" points="334.22 53.59 313.85 53.59 313.85 36.33 308.65 37.93 308.65 74.7 313.85 74.7 313.85 58.43 334.22 58.43 334.22 74.7 339.41 74.7 339.41 36.33 334.22 37.93 334.22 53.59"/><path class="cls-1" d="M371.67,36.14a19.69,19.69,0,0,0,0,39.38h.28A20,20,0,0,0,383,71.89l.26-.18v-7.2l-1.08,1.35a14.16,14.16,0,0,1-10.55,4.77,14.81,14.81,0,0,1,0-29.6,14.25,14.25,0,0,1,10.59,4.81l1.09,1.4V40l-.25-.18A20,20,0,0,0,371.67,36.14Z"/><path class="cls-1" d="M392.55,74.7h5.3l3.42-8.11h15.62l3.42,8.11h5.3L409.08,35.49Zm22.35-13H403.31L409.08,48Z"/><path class="cls-1" d="M461.38,47.82c0-7.28-4.47-10.81-13.67-10.81H436.34V74.7h5.24V58.63h6.67l11.32,16.92,4-3.27L453.81,58C458.9,56.6,461.38,53.28,461.38,47.82Zm-19.8-6h6.13c5.71,0,8.37,1.9,8.37,6s-2.73,6-8.37,6h-6.13Z"/><polygon class="cls-1" points="479.6 58.27 493.36 58.27 495 53.49 479.6 53.49 479.6 41.69 496.58 41.69 498.21 36.85 474.41 36.85 474.41 74.7 496.58 74.7 498.21 69.87 479.6 69.87 479.6 58.27"/><polygon class="cls-2" points="24.3 110.25 9.31 102.1 9.31 98.59 47.72 86.51 55.53 76.07 55.53 1.27 59.3 0 74.3 8.12 74.3 85.23 65.13 97.38 24.3 110.25"/><polygon class="cls-3" points="55.53 1.27 70.52 9.39 70.52 84.16 62.71 94.6 24.3 106.74 24.3 110.25 9.31 102.1 9.31 98.59 47.72 86.51 55.53 76.07 55.53 1.27"/><g class="cls-4"><g class="cls-4"><circle class="cls-5" cx="48.05" cy="93.33" r="1.03"/></g><g class="cls-4"><circle class="cls-5" cx="57.3" cy="86" r="1.01"/></g><g class="cls-4"><circle class="cls-5" cx="63.03" cy="17.84" r="1"/></g></g><polygon class="cls-6" points="62.03 38.5 50.04 30.43 33.36 35.78 45.35 43.84 62.03 38.5"/><polygon class="cls-7" points="45.35 77.18 28.67 82.52 16.68 74.45 16.68 24.46 33.36 19.11 45.35 27.18 45.35 77.18"/><polygon class="cls-8" points="28.67 32.52 45.35 27.18 45.35 43.84 62.03 38.5 62.03 55.17 45.35 60.51 45.35 77.18 28.67 82.52 28.67 65.85 11.99 71.19 11.99 54.53 28.67 49.18 28.67 32.52"/><polygon class="cls-9" points="45.35 43.84 45.35 60.51 62.03 55.17 62.03 38.5 45.35 43.84"/><polygon class="cls-10" points="28.67 49.18 16.68 41.12 0 46.46 0 63.13 11.99 71.19 28.67 65.85 28.67 49.18"/><polygon class="cls-11" points="28.67 49.18 28.67 65.85 11.99 71.19 11.99 54.53 28.67 49.18"/></g></g></svg>
