<svg xmlns="http://www.w3.org/2000/svg" viewBox="0 0 584.19 974.49"><defs><style>.cls-1{fill:#164abe;}.cls-2{fill:#002f77;}.cls-3{opacity:0.7;}.cls-4{fill:#ffffff;}.cls-5{fill:#164abe;}.cls-6{fill:#2d76f8;}.cls-7{fill:#6cddff;}.cls-8{fill:#ffe953;}.cls-9{fill:#f3b95b;}</style></defs><g id="레이어_2" data-name="레이어 2"><g id="Layer_1" data-name="Layer 1"><polygon class="cls-1" points="142.31 974.49 9.8 902.46 9.8 871.41 349.24 764.61 418.34 672.33 418.34 11.19 451.69 0 584.19 71.78 584.19 753.37 503.16 860.72 142.31 974.49"/><polygon class="cls-2" points="418.34 11.19 550.85 82.97 550.85 743.85 481.75 836.13 142.31 943.44 142.31 974.49 9.8 902.46 9.8 871.41 349.24 764.61 418.34 672.33 418.34 11.19"/><g class="cls-3"><g class="cls-3"><circle class="cls-4" cx="352.17" cy="824.96" r="9.08"/></g><g class="cls-3"><circle class="cls-4" cx="433.94" cy="760.17" r="8.89"/></g><g class="cls-3"><circle class="cls-4" cx="484.59" cy="157.7" r="8.84"/></g></g><polygon class="cls-5" points="475.75 218.4 370.02 144.6 110.87 228.18 0 374.66 0 694.37 105.71 768.16 216.57 621.69 365.07 573.68 475.75 427.45 475.75 218.4"/><polygon class="cls-6" points="105.71 768.16 105.71 448.61 216.74 301.92 475.75 218.4 475.75 427.45 365.07 573.68 216.57 621.69 105.71 768.16"/><polygon class="cls-7" points="475.75 218.49 364.89 254.1 364.89 364.96 475.75 329.36 475.75 218.49"/><polygon class="cls-8" points="364.89 254.1 420.32 291.73 475.75 329.36 475.75 218.4 364.89 254.1"/><polygon class="cls-9" points="259.15 180.3 364.89 254.1 475.75 218.4 370.02 144.6 259.15 180.3"/></g></g></svg>
