<svg xmlns="http://www.w3.org/2000/svg" viewBox="0 0 574.4 974.49"><defs><style>.cls-1{fill:#164abe;}.cls-2{fill:#002f77;}.cls-3{opacity:0.7;}.cls-4{fill:#ffffff;}.cls-5{fill:#f3b95b;}.cls-6{fill:#164abe;}.cls-7{fill:#2d76f8;}.cls-8{fill:#ffe953;}.cls-9{fill:#6cddff;}</style></defs><g id="레이어_2" data-name="레이어 2"><g id="Layer_1" data-name="Layer 1"><polygon class="cls-1" points="132.51 974.49 0 902.46 0 871.41 339.44 764.61 408.54 672.33 408.54 11.19 441.89 0 574.4 71.78 574.4 753.37 493.36 860.72 132.51 974.49"/><polygon class="cls-2" points="408.54 11.19 541.05 82.97 541.05 743.85 471.95 836.13 132.51 943.44 132.51 974.49 0 902.46 0 871.41 339.44 764.61 408.54 672.33 408.54 11.19"/><g class="cls-3"><g class="cls-3"><circle class="cls-4" cx="342.37" cy="824.96" r="9.08"/></g><g class="cls-3"><circle class="cls-4" cx="424.15" cy="760.17" r="8.89"/></g><g class="cls-3"><circle class="cls-4" cx="474.79" cy="157.7" r="8.84"/></g></g><polygon class="cls-5" points="490.63 240.32 382.12 167.52 127.33 249.39 127.33 519.24 235.83 576.96 490.63 495.14 490.63 240.32"/><polygon class="cls-6" points="108.5 745.25 0 672.45 0 417.68 235.83 341.92 363.21 408.66 363.39 663.3 108.5 745.25"/><polygon class="cls-7" points="108.5 490.49 363.21 408.66 363.39 663.3 108.5 745.25 108.5 490.49"/><polygon class="cls-8" points="235.83 322.19 490.63 240.32 490.63 495.14 235.83 576.96 235.83 322.19"/><polygon class="cls-9" points="235.83 449.57 363.21 408.66 363.21 536.04 235.83 576.96 235.83 449.57"/><polygon class="cls-5" points="127.33 376.78 235.83 449.57 235.83 322.19 127.33 376.78"/></g></g></svg>
