<svg xmlns="http://www.w3.org/2000/svg" viewBox="0 0 587.85 974.49"><defs><style>.cls-1{fill:#164abe;}.cls-2{fill:#002f77;}.cls-3{opacity:0.7;}.cls-4{fill:#ffffff;}.cls-5{fill:#164abe;}.cls-6{fill:#2d76f8;}.cls-7{fill:#3babff;}.cls-8{fill:#6cddff;}.cls-9{fill:#f3b95b;}.cls-10{fill:#ffe953;}</style></defs><g id="레이어_2" data-name="레이어 2"><g id="Layer_1" data-name="Layer 1"><polygon class="cls-1" points="145.96 974.49 13.45 902.46 13.45 871.41 352.89 764.61 421.99 672.33 421.99 11.19 455.34 0 587.85 71.78 587.85 753.37 506.81 860.72 145.96 974.49"/><polygon class="cls-2" points="421.99 11.19 554.5 82.97 554.5 743.85 485.4 836.13 145.96 943.44 145.96 974.49 13.45 902.46 13.45 871.41 352.89 764.61 421.99 672.33 421.99 11.19"/><g class="cls-3"><g class="cls-3"><circle class="cls-4" cx="355.83" cy="824.96" r="9.08"/></g><g class="cls-3"><circle class="cls-4" cx="437.6" cy="760.17" r="8.89"/></g><g class="cls-3"><circle class="cls-4" cx="488.25" cy="157.7" r="8.84"/></g></g><polygon class="cls-5" points="134.1 484.89 0 527.96 0 662.06 114.23 738.7 248.33 695.63 248.33 561.53 134.1 484.89"/><polygon class="cls-6" points="114.23 604.6 114.23 738.7 248.33 695.63 248.33 561.53 114.23 604.6"/><polygon class="cls-7" points="134.1 76.13 0 119.2 0 253.3 114.23 329.95 248.33 286.88 248.33 152.78 134.1 76.13"/><polygon class="cls-8" points="114.23 195.85 114.23 329.95 248.33 286.88 248.33 152.78 114.23 195.85"/><polygon class="cls-9" points="380.16 300.5 494.39 377.14 494.39 511.24 360.29 554.31 246.06 477.67 246.06 343.57 380.16 300.5"/><polygon class="cls-10" points="360.29 420.21 360.29 554.31 494.39 511.24 494.39 377.14 360.29 420.21"/></g></g></svg>
