<svg xmlns="http://www.w3.org/2000/svg" xmlns:xlink="http://www.w3.org/1999/xlink" width="111" height="33" viewBox="0 0 111 33">
    <defs>
        <path id="prefix__a" d="M0 0.26L26.196 0.26 26.196 32.25 0 32.25z"/>
        <path id="prefix__c" d="M0.208 0.081L25.47 0.081 25.47 30.992 0.208 30.992z"/>
    </defs>
    <g fill="none" fill-rule="evenodd">
        <g transform="translate(0 .49)">
            <mask id="prefix__b" fill="#fff">
                <use xlink:href="#prefix__a"/>
            </mask>
            <path fill="#fff" d="M24.385 25.116l1.811 5.768c-2.385.909-4.874 1.366-7.465 1.366-5.3 0-9.704-1.459-13.21-4.375C1.842 24.84.001 20.864.001 15.945c0-4.654 1.709-8.43 5.126-11.332C8.54 1.71 12.9.26 18.2.26c2.917 0 5.552.517 7.908 1.553l-2.298 5.5c-1.297-.385-3.006-.579-5.127-.579-2.478 0-4.524.75-6.143 2.249-1.888 1.732-2.829 4.171-2.829 7.315 0 3.086.956 5.482 2.874 7.186 1.706 1.528 3.887 2.293 6.539 2.293 1.621 0 3.372-.221 5.26-.66" mask="url(#prefix__b)"/>
        </g>
        <path fill="#fff" d="M38.669 18.584v8.634h1.768c1.647 0 2.95-.405 3.906-1.21.955-.81 1.435-1.946 1.435-3.415 0-2.672-1.487-4.01-4.459-4.01h-2.65zm0-12.249v7.235h1.633c3.057 0 4.587-1.315 4.587-3.946 0-1.168-.426-2.046-1.28-2.63-.676-.44-1.454-.659-2.338-.659H38.67zm3.406 25.896H29.34V1.321h13.73c3.119 0 5.6.618 7.438 1.855 1.84 1.236 2.761 2.958 2.761 5.166 0 2.061-.765 3.74-2.292 5.034-.646.53-1.895 1.222-3.747 2.076v.087c1.981.091 3.768.782 5.365 2.076 1.803 1.443 2.705 3.165 2.705 5.167 0 2.915-1.107 5.195-3.316 6.844-2.33 1.738-5.633 2.605-9.908 2.605zM73.765 32.232L64.435 32.232 64.435 7.098 55.484 7.098 55.484 1.321 82.653 1.321 82.653 7.098 73.765 7.098z"/>
        <g transform="translate(85.5 1.24)">
            <mask id="prefix__d" fill="#fff">
                <use xlink:href="#prefix__c"/>
            </mask>
            <path fill="#fff" d="M10.987 14.432l1.284-.134c.884-.086 1.74-.483 2.568-1.186 1.12-.909 1.682-2.11 1.682-3.606 0-2.433-1.488-3.648-4.463-3.648H9.54v25.134H.21V.082h12.83c3.921 0 6.972.75 9.156 2.25 2.183 1.498 3.276 3.718 3.276 6.658 0 2.823-1.125 5.294-3.368 7.41-2.45 2.322-5.596 3.484-9.433 3.484h-1.683v-5.452z" mask="url(#prefix__d)"/>
        </g>
    </g>
</svg>
