<svg xmlns="http://www.w3.org/2000/svg" width="16" height="16" viewBox="0 0 16 16" fill="none">
  <mask id="mask0_118_11890" style="mask-type:alpha" maskUnits="userSpaceOnUse" x="0" y="0" width="16" height="16">
    <rect width="16" height="16" fill="#D9D9D9"/>
  </mask>
  <g mask="url(#mask0_118_11890)">
    <path d="M2.66667 13.9962C2.47778 13.9962 2.31944 13.9323 2.19167 13.8045C2.06389 13.6767 2 13.5184 2 13.3295V12.6628C2 12.4739 2.06389 12.3156 2.19167 12.1878C2.31944 12.0601 2.47778 11.9962 2.66667 11.9962C2.85556 11.9962 3.01389 12.0601 3.14167 12.1878C3.26944 12.3156 3.33333 12.4739 3.33333 12.6628V13.3295C3.33333 13.5184 3.26944 13.6767 3.14167 13.8045C3.01389 13.9323 2.85556 13.9962 2.66667 13.9962ZM5.33333 13.9962C5.14444 13.9962 4.98611 13.9323 4.85833 13.8045C4.73056 13.6767 4.66667 13.5184 4.66667 13.3295V9.66283C4.66667 9.47394 4.73056 9.31561 4.85833 9.18783C4.98611 9.06006 5.14444 8.99617 5.33333 8.99617C5.52222 8.99617 5.68056 9.06006 5.80833 9.18783C5.93611 9.31561 6 9.47394 6 9.66283V13.3295C6 13.5184 5.93611 13.6767 5.80833 13.8045C5.68056 13.9323 5.52222 13.9962 5.33333 13.9962ZM8 13.9962C7.81111 13.9962 7.65278 13.9323 7.525 13.8045C7.39722 13.6767 7.33333 13.5184 7.33333 13.3295V10.9962C7.33333 10.8073 7.39722 10.6489 7.525 10.5212C7.65278 10.3934 7.81111 10.3295 8 10.3295C8.18889 10.3295 8.34722 10.3934 8.475 10.5212C8.60278 10.6489 8.66667 10.8073 8.66667 10.9962V13.3295C8.66667 13.5184 8.60278 13.6767 8.475 13.8045C8.34722 13.9323 8.18889 13.9962 8 13.9962ZM10.6667 13.9962C10.4778 13.9962 10.3194 13.9323 10.1917 13.8045C10.0639 13.6767 10 13.5184 10 13.3295V9.99617C10 9.80728 10.0639 9.64894 10.1917 9.52117C10.3194 9.39339 10.4778 9.3295 10.6667 9.3295C10.8556 9.3295 11.0139 9.39339 11.1417 9.52117C11.2694 9.64894 11.3333 9.80728 11.3333 9.99617V13.3295C11.3333 13.5184 11.2694 13.6767 11.1417 13.8045C11.0139 13.9323 10.8556 13.9962 10.6667 13.9962ZM13.3333 13.9962C13.1444 13.9962 12.9861 13.9323 12.8583 13.8045C12.7306 13.6767 12.6667 13.5184 12.6667 13.3295V7.3295C12.6667 7.14061 12.7306 6.98228 12.8583 6.8545C12.9861 6.72672 13.1444 6.66283 13.3333 6.66283C13.5222 6.66283 13.6806 6.72672 13.8083 6.8545C13.9361 6.98228 14 7.14061 14 7.3295V13.3295C14 13.5184 13.9361 13.6767 13.8083 13.8045C13.6806 13.9323 13.5222 13.9962 13.3333 13.9962ZM9.33333 7.9795C9.15556 7.9795 8.98611 7.94617 8.825 7.8795C8.66389 7.81283 8.51667 7.71839 8.38333 7.59617L6.66667 5.8795L3.13333 9.41283C3 9.54617 2.84167 9.61005 2.65833 9.6045C2.475 9.59894 2.31667 9.5295 2.18333 9.39617C2.06111 9.26283 2.00278 9.1045 2.00833 8.92117C2.01389 8.73783 2.07778 8.58506 2.2 8.46283L5.71667 4.94617C5.85 4.81283 5.99722 4.71561 6.15833 4.6545C6.31944 4.59339 6.48889 4.56283 6.66667 4.56283C6.84444 4.56283 7.01667 4.59339 7.18333 4.6545C7.35 4.71561 7.49444 4.81283 7.61667 4.94617L9.33333 6.66283L12.8667 3.1295C13 2.99617 13.1583 2.93228 13.3417 2.93783C13.525 2.94339 13.6833 3.01283 13.8167 3.14617C13.9389 3.2795 13.9972 3.43783 13.9917 3.62117C13.9861 3.8045 13.9222 3.95728 13.8 4.0795L10.2833 7.59617C10.1611 7.71839 10.0167 7.81283 9.85 7.8795C9.68333 7.94617 9.51111 7.9795 9.33333 7.9795Z" fill="#3E3E3E"/>
  </g>
</svg>