<svg xmlns="http://www.w3.org/2000/svg" width="16" height="16" viewBox="0 0 16 16" fill="none">
  <mask id="mask0_118_11932" style="mask-type:alpha" maskUnits="userSpaceOnUse" x="0" y="0" width="16" height="16">
    <rect width="16" height="16" fill="#D9D9D9"/>
  </mask>
  <g mask="url(#mask0_118_11932)">
    <path d="M1.99967 5.33594C1.81079 5.33594 1.65245 5.27205 1.52467 5.14427C1.3969 5.01649 1.33301 4.85816 1.33301 4.66927V2.66927C1.33301 2.3026 1.46356 1.98872 1.72467 1.7276C1.98579 1.46649 2.29967 1.33594 2.66634 1.33594H4.66634C4.85523 1.33594 5.01356 1.39983 5.14134 1.5276C5.26912 1.65538 5.33301 1.81372 5.33301 2.0026C5.33301 2.19149 5.26912 2.34983 5.14134 2.4776C5.01356 2.60538 4.85523 2.66927 4.66634 2.66927H2.66634V4.66927C2.66634 4.85816 2.60245 5.01649 2.47467 5.14427C2.3469 5.27205 2.18856 5.33594 1.99967 5.33594ZM2.66634 14.6693C2.29967 14.6693 1.98579 14.5387 1.72467 14.2776C1.46356 14.0165 1.33301 13.7026 1.33301 13.3359V11.3359C1.33301 11.147 1.3969 10.9887 1.52467 10.8609C1.65245 10.7332 1.81079 10.6693 1.99967 10.6693C2.18856 10.6693 2.3469 10.7332 2.47467 10.8609C2.60245 10.9887 2.66634 11.147 2.66634 11.3359V13.3359H4.66634C4.85523 13.3359 5.01356 13.3998 5.14134 13.5276C5.26912 13.6554 5.33301 13.8137 5.33301 14.0026C5.33301 14.1915 5.26912 14.3498 5.14134 14.4776C5.01356 14.6054 4.85523 14.6693 4.66634 14.6693H2.66634ZM13.333 14.6693H11.333C11.1441 14.6693 10.9858 14.6054 10.858 14.4776C10.7302 14.3498 10.6663 14.1915 10.6663 14.0026C10.6663 13.8137 10.7302 13.6554 10.858 13.5276C10.9858 13.3998 11.1441 13.3359 11.333 13.3359H13.333V11.3359C13.333 11.147 13.3969 10.9887 13.5247 10.8609C13.6525 10.7332 13.8108 10.6693 13.9997 10.6693C14.1886 10.6693 14.3469 10.7332 14.4747 10.8609C14.6025 10.9887 14.6663 11.147 14.6663 11.3359V13.3359C14.6663 13.7026 14.5358 14.0165 14.2747 14.2776C14.0136 14.5387 13.6997 14.6693 13.333 14.6693ZM13.333 4.66927V2.66927H11.333C11.1441 2.66927 10.9858 2.60538 10.858 2.4776C10.7302 2.34983 10.6663 2.19149 10.6663 2.0026C10.6663 1.81372 10.7302 1.65538 10.858 1.5276C10.9858 1.39983 11.1441 1.33594 11.333 1.33594H13.333C13.6997 1.33594 14.0136 1.46649 14.2747 1.7276C14.5358 1.98872 14.6663 2.3026 14.6663 2.66927V4.66927C14.6663 4.85816 14.6025 5.01649 14.4747 5.14427C14.3469 5.27205 14.1886 5.33594 13.9997 5.33594C13.8108 5.33594 13.6525 5.27205 13.5247 5.14427C13.3969 5.01649 13.333 4.85816 13.333 4.66927Z" fill="#3E3E3E"/>
    <path d="M10.8498 4.70312H5.15015C4.79257 4.70312 4.5 4.99569 4.5 5.35328C4.5 5.71087 4.79257 6.00343 5.15015 6.00343H10.8498C11.2074 6.00343 11.5 5.71087 11.5 5.35328C11.5 4.99569 11.2074 4.70312 10.8498 4.70312ZM9.74458 7.30374H5.15015C4.79257 7.30374 4.5 7.59631 4.5 7.9539C4.5 8.31148 4.79257 8.60405 5.15015 8.60405H9.74458C10.1022 8.60405 10.3947 8.31148 10.3947 7.9539C10.3947 7.59631 10.1022 7.30374 9.74458 7.30374ZM5.15015 11.2047H8.2709C8.62848 11.2047 8.92105 10.9121 8.92105 10.5545C8.92105 10.1969 8.62848 9.90436 8.2709 9.90436H5.15015C4.79257 9.90436 4.5 10.1969 4.5 10.5545C4.5 10.9121 4.79257 11.2047 5.15015 11.2047Z" fill="#3E3E3E"/>
  </g>
</svg>