<svg xmlns="http://www.w3.org/2000/svg" width="16" height="16" viewBox="0 0 16 16" fill="none">
  <g clip-path="url(#clip0_118_11974)">
    <path d="M2.16667 2.83333C1.97778 2.83333 1.81944 2.76944 1.69167 2.64167C1.56389 2.51389 1.5 2.35556 1.5 2.16667C1.5 1.97778 1.56389 1.81944 1.69167 1.69167C1.81944 1.56389 1.97778 1.5 2.16667 1.5C2.35556 1.5 2.51389 1.56389 2.64167 1.69167C2.76944 1.81944 2.83333 1.97778 2.83333 2.16667C2.83333 2.35556 2.76944 2.51389 2.64167 2.64167C2.51389 2.76944 2.35556 2.83333 2.16667 2.83333ZM4.83333 2.83333C4.64444 2.83333 4.48611 2.76944 4.35833 2.64167C4.23056 2.51389 4.16667 2.35556 4.16667 2.16667C4.16667 1.97778 4.23056 1.81944 4.35833 1.69167C4.48611 1.56389 4.64444 1.5 4.83333 1.5C5.02222 1.5 5.18056 1.56389 5.30833 1.69167C5.43611 1.81944 5.5 1.97778 5.5 2.16667C5.5 2.35556 5.43611 2.51389 5.30833 2.64167C5.18056 2.76944 5.02222 2.83333 4.83333 2.83333ZM7.5 2.83333C7.31111 2.83333 7.15278 2.76944 7.025 2.64167C6.89722 2.51389 6.83333 2.35556 6.83333 2.16667C6.83333 1.97778 6.89722 1.81944 7.025 1.69167C7.15278 1.56389 7.31111 1.5 7.5 1.5C7.68889 1.5 7.84722 1.56389 7.975 1.69167C8.10278 1.81944 8.16667 1.97778 8.16667 2.16667C8.16667 2.35556 8.10278 2.51389 7.975 2.64167C7.84722 2.76944 7.68889 2.83333 7.5 2.83333ZM10.1667 2.83333C9.97778 2.83333 9.81945 2.76944 9.69167 2.64167C9.56389 2.51389 9.5 2.35556 9.5 2.16667C9.5 1.97778 9.56389 1.81944 9.69167 1.69167C9.81945 1.56389 9.97778 1.5 10.1667 1.5C10.3556 1.5 10.5139 1.56389 10.6417 1.69167C10.7694 1.81944 10.8333 1.97778 10.8333 2.16667C10.8333 2.35556 10.7694 2.51389 10.6417 2.64167C10.5139 2.76944 10.3556 2.83333 10.1667 2.83333ZM12.8333 2.83333C12.6444 2.83333 12.4861 2.76944 12.3583 2.64167C12.2306 2.51389 12.1667 2.35556 12.1667 2.16667C12.1667 1.97778 12.2306 1.81944 12.3583 1.69167C12.4861 1.56389 12.6444 1.5 12.8333 1.5C13.0222 1.5 13.1806 1.56389 13.3083 1.69167C13.4361 1.81944 13.5 1.97778 13.5 2.16667C13.5 2.35556 13.4361 2.51389 13.3083 2.64167C13.1806 2.76944 13.0222 2.83333 12.8333 2.83333ZM4.83333 13.5C4.64444 13.5 4.48611 13.4361 4.35833 13.3083C4.23056 13.1806 4.16667 13.0222 4.16667 12.8333C4.16667 12.6444 4.23056 12.4861 4.35833 12.3583C4.48611 12.2306 4.64444 12.1667 4.83333 12.1667C5.02222 12.1667 5.18056 12.2306 5.30833 12.3583C5.43611 12.4861 5.5 12.6444 5.5 12.8333C5.5 13.0222 5.43611 13.1806 5.30833 13.3083C5.18056 13.4361 5.02222 13.5 4.83333 13.5ZM2.16667 5.5C1.97778 5.5 1.81944 5.43611 1.69167 5.30833C1.56389 5.18056 1.5 5.02222 1.5 4.83333C1.5 4.64444 1.56389 4.48611 1.69167 4.35833C1.81944 4.23056 1.97778 4.16667 2.16667 4.16667C2.35556 4.16667 2.51389 4.23056 2.64167 4.35833C2.76944 4.48611 2.83333 4.64444 2.83333 4.83333C2.83333 5.02222 2.76944 5.18056 2.64167 5.30833C2.51389 5.43611 2.35556 5.5 2.16667 5.5ZM2.16667 8.16667C1.97778 8.16667 1.81944 8.10278 1.69167 7.975C1.56389 7.84722 1.5 7.68889 1.5 7.5C1.5 7.31111 1.56389 7.15278 1.69167 7.025C1.81944 6.89722 1.97778 6.83333 2.16667 6.83333C2.35556 6.83333 2.51389 6.89722 2.64167 7.025C2.76944 7.15278 2.83333 7.31111 2.83333 7.5C2.83333 7.68889 2.76944 7.84722 2.64167 7.975C2.51389 8.10278 2.35556 8.16667 2.16667 8.16667ZM2.16667 10.8333C1.97778 10.8333 1.81944 10.7694 1.69167 10.6417C1.56389 10.5139 1.5 10.3556 1.5 10.1667C1.5 9.97778 1.56389 9.81945 1.69167 9.69167C1.81944 9.56389 1.97778 9.5 2.16667 9.5C2.35556 9.5 2.51389 9.56389 2.64167 9.69167C2.76944 9.81945 2.83333 9.97778 2.83333 10.1667C2.83333 10.3556 2.76944 10.5139 2.64167 10.6417C2.51389 10.7694 2.35556 10.8333 2.16667 10.8333ZM2.16667 13.5C1.97778 13.5 1.81944 13.4361 1.69167 13.3083C1.56389 13.1806 1.5 13.0222 1.5 12.8333C1.5 12.6444 1.56389 12.4861 1.69167 12.3583C1.81944 12.2306 1.97778 12.1667 2.16667 12.1667C2.35556 12.1667 2.51389 12.2306 2.64167 12.3583C2.76944 12.4861 2.83333 12.6444 2.83333 12.8333C2.83333 13.0222 2.76944 13.1806 2.64167 13.3083C2.51389 13.4361 2.35556 13.5 2.16667 13.5ZM12.8333 5.5C12.6444 5.5 12.4861 5.43611 12.3583 5.30833C12.2306 5.18056 12.1667 5.02222 12.1667 4.83333C12.1667 4.64444 12.2306 4.48611 12.3583 4.35833C12.4861 4.23056 12.6444 4.16667 12.8333 4.16667C13.0222 4.16667 13.1806 4.23056 13.3083 4.35833C13.4361 4.48611 13.5 4.64444 13.5 4.83333C13.5 5.02222 13.4361 5.18056 13.3083 5.30833C13.1806 5.43611 13.0222 5.5 12.8333 5.5Z" fill="#3E3E3E"/>
    <path d="M12.9083 8.94407C12.9083 8.66954 12.8173 8.44928 12.6353 8.28328C12.4534 8.11728 12.2123 8.03428 11.9123 8.03428C11.7271 8.03428 11.5595 8.07419 11.4095 8.15399C11.2595 8.2338 11.1302 8.35032 11.0216 8.50354C10.9195 8.65039 10.7806 8.73498 10.6051 8.75733C10.4295 8.77967 10.2779 8.73338 10.1502 8.61846C10.0608 8.53547 10.0113 8.43331 10.0017 8.31201C9.99215 8.1907 10.0225 8.07578 10.0927 7.96725C10.297 7.66079 10.5572 7.42297 10.8732 7.25378C11.1892 7.08459 11.5356 7 11.9123 7C12.5316 7 13.0343 7.17557 13.4206 7.52672C13.8069 7.87787 14 8.33755 14 8.90577C14 9.19307 13.9393 9.45164 13.818 9.68148C13.6967 9.91132 13.4733 10.1827 13.1477 10.4955C12.9114 10.719 12.7518 10.8929 12.6688 11.0174C12.5858 11.1419 12.5316 11.284 12.506 11.4436C12.4805 11.5968 12.4151 11.7245 12.3097 11.8267C12.2044 11.9288 12.0783 11.9799 11.9314 11.9799C11.7846 11.9799 11.6585 11.9304 11.5532 11.8315C11.4478 11.7325 11.3951 11.6096 11.3951 11.4627C11.3951 11.2138 11.4494 10.9855 11.5579 10.778C11.6665 10.5705 11.8484 10.3518 12.1038 10.122C12.4294 9.83471 12.6449 9.61285 12.7502 9.45643C12.8556 9.30001 12.9083 9.12922 12.9083 8.94407ZM11.9123 14.2783C11.7016 14.2783 11.5212 14.2033 11.3712 14.0532C11.2212 13.9032 11.1461 13.7229 11.1461 13.5122C11.1461 13.3015 11.2212 13.1211 11.3712 12.9711C11.5212 12.821 11.7016 12.746 11.9123 12.746C12.123 12.746 12.3033 12.821 12.4534 12.9711C12.6034 13.1211 12.6784 13.3015 12.6784 13.5122C12.6784 13.7229 12.6034 13.9032 12.4534 14.0532C12.3033 14.2033 12.123 14.2783 11.9123 14.2783Z" fill="#3E3E3E"/>
  </g>
  <defs>
    <clipPath id="clip0_118_11974">
      <rect width="16" height="16" fill="white" transform="matrix(1 0 0 -1 0 16)"/>
    </clipPath>
  </defs>
</svg>