<svg xmlns="http://www.w3.org/2000/svg" width="16" height="16" viewBox="0 0 16 16" fill="none">
  <mask id="mask0_118_11986" style="mask-type:alpha" maskUnits="userSpaceOnUse" x="0" y="0" width="16" height="16">
    <rect width="16" height="16" fill="#D9D9D9"/>
  </mask>
  <g mask="url(#mask0_118_11986)">
    <path d="M3.65007 14.0013C3.37229 14.0013 3.13618 13.9041 2.94173 13.7096C2.74729 13.5152 2.65007 13.2791 2.65007 13.0013C2.65007 12.7235 2.74729 12.4874 2.94173 12.293C3.13618 12.0985 3.37229 12.0013 3.65007 12.0013H4.71673L3.01673 6.43465C2.71673 6.26798 2.46951 6.02354 2.27507 5.70132C2.08062 5.3791 1.9834 5.03465 1.9834 4.66798C1.9834 4.11243 2.17784 3.64021 2.56673 3.25132C2.95562 2.86243 3.42784 2.66798 3.9834 2.66798C4.41673 2.66798 4.80284 2.79298 5.14173 3.04298C5.48062 3.29298 5.71673 3.61243 5.85007 4.00132H7.9834V3.33465C7.9834 3.14576 8.04729 2.98743 8.17507 2.85965C8.30284 2.73187 8.46118 2.66798 8.65007 2.66798C8.75007 2.66798 8.84729 2.69021 8.94173 2.73465C9.03618 2.7791 9.11673 2.84576 9.1834 2.93465L10.3167 1.86798C10.4167 1.76798 10.5362 1.7041 10.6751 1.67632C10.814 1.64854 10.9501 1.66798 11.0834 1.73465L13.6834 2.93465C13.8167 3.00132 13.9084 3.09854 13.9584 3.22632C14.0084 3.3541 14.0056 3.4791 13.9501 3.60132C13.8834 3.73465 13.7862 3.82076 13.6584 3.85965C13.5306 3.89854 13.4056 3.89021 13.2834 3.83465L10.8834 2.73465L9.31673 4.20132V5.13465L10.8834 6.56798L13.2834 5.46798C13.4056 5.41243 13.5334 5.40687 13.6667 5.45132C13.8001 5.49576 13.8945 5.5791 13.9501 5.70132C14.0167 5.83465 14.0223 5.96243 13.9667 6.08465C13.9112 6.20687 13.8167 6.30132 13.6834 6.36798L11.0834 7.60132C10.9501 7.66798 10.814 7.68743 10.6751 7.65965C10.5362 7.63187 10.4167 7.56798 10.3167 7.46798L9.1834 6.40132C9.11673 6.46798 9.03618 6.52909 8.94173 6.58465C8.84729 6.64021 8.75007 6.66798 8.65007 6.66798C8.46118 6.66798 8.30284 6.60409 8.17507 6.47632C8.04729 6.34854 7.9834 6.19021 7.9834 6.00132V5.33465H5.85007C5.81673 5.42354 5.78062 5.50687 5.74173 5.58465C5.70284 5.66243 5.65007 5.74576 5.5834 5.83465L8.91673 12.0013H10.3167C10.5945 12.0013 10.8306 12.0985 11.0251 12.293C11.2195 12.4874 11.3167 12.7235 11.3167 13.0013C11.3167 13.2791 11.2195 13.5152 11.0251 13.7096C10.8306 13.9041 10.5945 14.0013 10.3167 14.0013H3.65007ZM3.9834 5.33465C4.17229 5.33465 4.33062 5.27076 4.4584 5.14298C4.58618 5.01521 4.65007 4.85687 4.65007 4.66798C4.65007 4.47909 4.58618 4.32076 4.4584 4.19298C4.33062 4.06521 4.17229 4.00132 3.9834 4.00132C3.79451 4.00132 3.63618 4.06521 3.5084 4.19298C3.38062 4.32076 3.31673 4.47909 3.31673 4.66798C3.31673 4.85687 3.38062 5.01521 3.5084 5.14298C3.63618 5.27076 3.79451 5.33465 3.9834 5.33465Z" fill="#3E3E3E"/>
  </g>
</svg>