<svg xmlns="http://www.w3.org/2000/svg" width="16" height="16" viewBox="0 0 16 16" fill="none">
  <g clip-path="url(#clip0_118_12004)">
    <path d="M11.9997 6.0026V3.33594C11.9997 2.96927 11.6997 2.66927 11.333 2.66927H3.33301C2.96634 2.66927 2.66634 2.96927 2.66634 3.33594V11.3359C2.66634 11.7026 2.96634 12.0026 3.33301 12.0026H5.34634C5.71301 12.0026 6.01301 12.3026 6.01301 12.6693C6.01301 13.0359 5.71301 13.3359 5.34634 13.3359H2.66634C1.93301 13.3359 1.33301 12.7359 1.33301 12.0026V2.66927C1.33301 1.93594 1.93301 1.33594 2.66634 1.33594H11.9997C12.733 1.33594 13.333 1.93594 13.333 2.66927V6.0026C13.333 6.36927 13.033 6.66927 12.6663 6.66927C12.2997 6.66927 11.9997 6.36927 11.9997 6.0026Z" fill="#3E3E3E"/>
    <path d="M10.2345 7.09687H8.12796C7.95618 7.09687 7.81152 7.04263 7.70303 6.92509C7.59454 6.80756 7.53125 6.6629 7.53125 6.50016V4.39359C7.53125 4.22181 7.5855 4.07715 7.70303 3.96866C7.82057 3.86016 7.96522 3.79688 8.12796 3.79688H10.2345C10.4063 3.79688 10.551 3.85112 10.6595 3.96866C10.768 4.08619 10.8312 4.23085 10.8312 4.39359V6.50016C10.8312 6.67194 10.777 6.8166 10.6595 6.92509C10.5419 7.03359 10.3973 7.09687 10.2345 7.09687Z" fill="#3E3E3E"/>
    <path d="M6.53532 7.09687H4.42874C4.25696 7.09687 4.11231 7.04263 4.00381 6.92509C3.89532 6.80756 3.83203 6.6629 3.83203 6.50016V4.39359C3.83203 4.22181 3.88628 4.07715 4.00381 3.96866C4.12135 3.86016 4.266 3.79688 4.42874 3.79688H6.53532C6.7071 3.79688 6.85176 3.85112 6.96025 3.96866C7.06874 4.08619 7.13203 4.23085 7.13203 4.39359V6.50016C7.13203 6.67194 7.07778 6.8166 6.96025 6.92509C6.84272 7.03359 6.69806 7.09687 6.53532 7.09687Z" fill="#3E3E3E"/>
    <path d="M6.53532 10.8H4.42874C4.25696 10.8 4.11231 10.7458 4.00381 10.6282C3.89532 10.5107 3.83203 10.366 3.83203 10.2033V8.09671C3.83203 7.92493 3.88628 7.78027 4.00381 7.67178C4.12135 7.56329 4.266 7.5 4.42874 7.5H6.53532C6.7071 7.5 6.85176 7.55425 6.96025 7.67178C7.06874 7.78932 7.13203 7.93397 7.13203 8.09671V10.2033C7.13203 10.3751 7.07778 10.5197 6.96025 10.6282C6.84272 10.7367 6.69806 10.8 6.53532 10.8Z" fill="#3E3E3E"/>
    <path d="M12.9083 8.94407C12.9083 8.66954 12.8173 8.44928 12.6353 8.28328C12.4534 8.11728 12.2123 8.03428 11.9123 8.03428C11.7271 8.03428 11.5595 8.07419 11.4095 8.15399C11.2595 8.2338 11.1302 8.35032 11.0216 8.50354C10.9195 8.65039 10.7806 8.73498 10.6051 8.75733C10.4295 8.77967 10.2779 8.73338 10.1502 8.61846C10.0608 8.53547 10.0113 8.43331 10.0017 8.31201C9.99215 8.1907 10.0225 8.07578 10.0927 7.96725C10.297 7.66079 10.5572 7.42297 10.8732 7.25378C11.1892 7.08459 11.5356 7 11.9123 7C12.5316 7 13.0343 7.17557 13.4206 7.52672C13.8069 7.87787 14 8.33755 14 8.90577C14 9.19307 13.9393 9.45164 13.818 9.68148C13.6967 9.91132 13.4733 10.1827 13.1477 10.4955C12.9114 10.719 12.7518 10.8929 12.6688 11.0174C12.5858 11.1419 12.5316 11.284 12.506 11.4436C12.4805 11.5968 12.4151 11.7245 12.3097 11.8267C12.2044 11.9288 12.0783 11.9799 11.9314 11.9799C11.7846 11.9799 11.6585 11.9304 11.5532 11.8315C11.4478 11.7325 11.3951 11.6096 11.3951 11.4627C11.3951 11.2138 11.4494 10.9855 11.5579 10.778C11.6665 10.5705 11.8484 10.3518 12.1038 10.122C12.4294 9.83471 12.6449 9.61285 12.7502 9.45643C12.8556 9.30001 12.9083 9.12922 12.9083 8.94407ZM11.9123 14.2783C11.7016 14.2783 11.5212 14.2033 11.3712 14.0532C11.2212 13.9032 11.1461 13.7229 11.1461 13.5122C11.1461 13.3015 11.2212 13.1211 11.3712 12.9711C11.5212 12.821 11.7016 12.746 11.9123 12.746C12.123 12.746 12.3033 12.821 12.4534 12.9711C12.6034 13.1211 12.6784 13.3015 12.6784 13.5122C12.6784 13.7229 12.6034 13.9032 12.4534 14.0532C12.3033 14.2033 12.123 14.2783 11.9123 14.2783Z" fill="#3E3E3E"/>
  </g>
  <defs>
    <clipPath id="clip0_118_12004">
      <rect width="16" height="16" fill="white" transform="matrix(1 0 0 -1 0 16)"/>
    </clipPath>
  </defs>
</svg>