<svg xmlns="http://www.w3.org/2000/svg" width="16" height="16" viewBox="0 0 16 16" fill="none">
  <path fill-rule="evenodd" clip-rule="evenodd" d="M11.7298 7.33187C11.3898 7.33187 11.1198 7.60187 11.1198 7.94187V9.77188H7.44984V7.33187H9.15984C9.49984 7.33187 9.76984 7.06187 9.76984 6.72187C9.76984 6.38187 9.49984 6.11188 9.15984 6.11188H2.55984V4.89187H8.33984C8.33984 4.89187 8.33984 4.89187 8.34984 4.89187C8.68984 4.89187 8.95984 4.62188 8.95984 4.28188C8.95984 3.94188 8.68984 3.67188 8.34984 3.67188C8.34984 3.67188 8.34984 3.67188 8.33984 3.67188H2.55984C2.21984 3.67188 1.93984 3.79188 1.69984 4.03188C1.45984 4.27188 1.33984 4.56187 1.33984 4.89187V13.4519C1.33984 13.7919 1.45984 14.0719 1.69984 14.3119C1.93984 14.5519 2.22984 14.6719 2.55984 14.6719H11.1198C11.4598 14.6719 11.7398 14.5519 11.9798 14.3119C12.2198 14.0719 12.3398 13.7819 12.3398 13.4519V7.95187C12.3398 7.61187 12.0698 7.34188 11.7298 7.34188V7.33187ZM6.22984 13.4419H2.55984V11.0019H6.22984V13.4419ZM6.22984 9.78187H2.55984V7.34188H6.22984V9.78187ZM11.1198 13.4419H7.44984V11.0019H11.1198V13.4419Z" fill="#3E3E3E"/>
  <path d="M14.1402 1.32812H10.2202C9.9402 1.32812 9.7002 1.55812 9.7002 1.84812C9.7002 2.13812 9.9302 2.36812 10.2202 2.36812H14.1402C14.4202 2.36812 14.6602 2.13812 14.6602 1.84812C14.6602 1.55812 14.4302 1.32812 14.1402 1.32812ZM14.1402 3.08812H10.2202C9.9402 3.08812 9.7002 3.31812 9.7002 3.60812C9.7002 3.89812 9.9302 4.12813 10.2202 4.12813H14.1402C14.4202 4.12813 14.6602 3.89812 14.6602 3.60812C14.6602 3.31812 14.4302 3.08812 14.1402 3.08812ZM12.9502 4.81813H10.2302C9.9502 4.81813 9.7102 5.04813 9.7102 5.33813C9.7102 5.62813 9.9402 5.85813 10.2302 5.85813H12.9502C13.2302 5.85813 13.4702 5.62813 13.4702 5.33813C13.4702 5.04813 13.2402 4.81813 12.9502 4.81813Z" fill="#3E3E3E"/>
</svg>