<svg xmlns="http://www.w3.org/2000/svg" width="16" height="16" viewBox="0 0 16 16" fill="none">
  <path d="M3.36589 6.04948H10.0326C10.3992 6.04948 10.6992 6.34948 10.6992 6.71615C10.6992 7.08281 10.3992 7.38281 10.0326 7.38281H3.36589C2.99922 7.38281 2.69922 7.08281 2.69922 6.71615C2.69922 6.34948 2.99922 6.04948 3.36589 6.04948ZM3.36589 3.38281H10.0326C10.3992 3.38281 10.6992 3.68281 10.6992 4.04948C10.6992 4.41615 10.3992 4.71615 10.0326 4.71615H3.36589C2.99922 4.71615 2.69922 4.41615 2.69922 4.04948C2.69922 3.68281 2.99922 3.38281 3.36589 3.38281ZM3.36589 8.71615H7.36589C7.73255 8.71615 8.03255 9.01615 8.03255 9.38281C8.03255 9.74948 7.73255 10.0495 7.36589 10.0495H3.36589C2.99922 10.0495 2.69922 9.74948 2.69922 9.38281C2.69922 9.01615 2.99922 8.71615 3.36589 8.71615Z" fill="#3E3E3E"/>
  <path d="M10.8979 12.5791L9.26458 11.6399C9.19069 11.5971 9.13333 11.5407 9.0925 11.4707C9.05167 11.4007 9.03125 11.323 9.03125 11.2374V9.3824C9.03125 9.29684 9.05167 9.21906 9.0925 9.14906C9.13333 9.07906 9.19069 9.02267 9.26458 8.9799L10.8979 8.04073C10.9718 7.99795 11.0496 7.97656 11.1312 7.97656C11.2129 7.97656 11.2907 7.99795 11.3646 8.04073L12.9979 8.9799C13.0718 9.02267 13.1292 9.07906 13.17 9.14906C13.2108 9.21906 13.2312 9.29684 13.2312 9.3824V11.2374C13.2312 11.323 13.2108 11.4007 13.17 11.4707C13.1292 11.5407 13.0718 11.5971 12.9979 11.6399L11.3646 12.5791C11.2907 12.6218 11.2129 12.6432 11.1312 12.6432C11.0496 12.6432 10.9718 12.6218 10.8979 12.5791ZM10.8979 10.4441V12.0424L11.1312 12.1766L11.3646 12.0424V10.4441L12.7646 9.63323V9.38823L12.5137 9.2424L11.1312 10.0416L9.74875 9.2424L9.49792 9.38823V9.63323L10.8979 10.4441Z" fill="#3E3E3E"/>
</svg>