<svg xmlns="http://www.w3.org/2000/svg" width="16" height="16" viewBox="0 0 16 16" fill="none">
  <g clip-path="url(#clip0_118_12094)">
    <path d="M4.80033 11.7354C5.97853 11.7354 6.93366 10.7803 6.93366 9.60208C6.93366 8.42388 5.97853 7.46875 4.80033 7.46875C3.62212 7.46875 2.66699 8.42388 2.66699 9.60208C2.66699 10.7803 3.62212 11.7354 4.80033 11.7354Z" fill="#3E3E3E"/>
    <path d="M9.86654 13.3307C10.6029 13.3307 11.1999 12.7338 11.1999 11.9974C11.1999 11.261 10.6029 10.6641 9.86654 10.6641C9.13016 10.6641 8.5332 11.261 8.5332 11.9974C8.5332 12.7338 9.13016 13.3307 9.86654 13.3307Z" fill="#3E3E3E"/>
    <path d="M10.1336 9.06406C11.9009 9.06406 13.3336 7.63137 13.3336 5.86406C13.3336 4.09675 11.9009 2.66406 10.1336 2.66406C8.36628 2.66406 6.93359 4.09675 6.93359 5.86406C6.93359 7.63137 8.36628 9.06406 10.1336 9.06406Z" fill="#3E3E3E"/>
  </g>
  <defs>
    <clipPath id="clip0_118_12094">
      <rect width="16" height="16" fill="white"/>
    </clipPath>
  </defs>
</svg>