<svg xmlns="http://www.w3.org/2000/svg" width="16" height="16" viewBox="0 0 16 16" fill="none">
  <mask id="mask0_118_12106" style="mask-type:alpha" maskUnits="userSpaceOnUse" x="0" y="0" width="16" height="16">
    <rect width="16" height="16" fill="#D9D9D9"/>
  </mask>
  <g mask="url(#mask0_118_12106)">
    <path d="M6.00025 11.3359C5.63358 11.3359 5.31969 11.2054 5.05858 10.9443C4.79747 10.6832 4.66692 10.3693 4.66692 10.0026V2.66927C4.66692 2.3026 4.79747 1.98872 5.05858 1.7276C5.31969 1.46649 5.63358 1.33594 6.00025 1.33594H13.3336C13.7002 1.33594 14.0141 1.46649 14.2752 1.7276C14.5364 1.98872 14.6669 2.3026 14.6669 2.66927V10.0026C14.6669 10.3693 14.5364 10.6832 14.2752 10.9443C14.0141 11.2054 13.7002 11.3359 13.3336 11.3359H6.00025ZM6.00025 10.0026H13.3336V2.66927H6.00025V10.0026ZM3.80025 14.5859C3.43358 14.6304 3.10303 14.5415 2.80858 14.3193C2.51414 14.0971 2.34469 13.8026 2.30025 13.4359L1.41692 6.1526C1.37247 5.78594 1.46692 5.45816 1.70025 5.16927C1.93358 4.88038 2.23358 4.70816 2.60025 4.6526H2.63358C2.82247 4.61927 2.99192 4.66927 3.14192 4.8026C3.29192 4.93594 3.36692 5.1026 3.36692 5.3026C3.36692 5.46927 3.30858 5.61372 3.19192 5.73594C3.07525 5.85816 2.93358 5.93594 2.76692 5.96927H2.75025L3.65025 13.2693L11.5502 12.3026C11.7391 12.2804 11.9058 12.3248 12.0502 12.4359C12.1947 12.547 12.278 12.697 12.3003 12.8859C12.3225 13.0748 12.278 13.2387 12.1669 13.3776C12.0558 13.5165 11.9058 13.597 11.7169 13.6193L3.80025 14.5859Z" fill="#3E3E3E"/>
    <path d="M9.98669 4.90488L9.19996 5.95297L9.80001 6.75303C9.88802 6.87037 9.86402 7.03839 9.74667 7.1264C9.62933 7.2144 9.46132 7.19307 9.37331 7.07306C9.09329 6.69969 8.75726 6.25433 8.54658 5.96897C8.4399 5.82762 8.22655 5.82762 8.11988 5.96897L7.05312 7.39042C6.92245 7.5691 7.04779 7.81978 7.26647 7.81978H12.0669C12.2855 7.81978 12.4109 7.5691 12.2802 7.39308L10.4134 4.90488C10.3067 4.76087 10.0934 4.76087 9.98669 4.90488Z" fill="#3E3E3E"/>
  </g>
</svg>