<svg xmlns="http://www.w3.org/2000/svg" width="12" height="12" viewBox="0 0 12 12" fill="none">
  <path d="M10.1176 7.3941V9.83854C10.1176 10.1747 9.84262 10.4497 9.50651 10.4497H2.17318C1.83707 10.4497 1.56207 10.1747 1.56207 9.83854V2.50521C1.56207 2.1691 1.83707 1.8941 2.17318 1.8941H7.38889C7.725 1.8941 8 1.6191 8 1.28299C8 0.946875 7.725 0.671875 7.38889 0.671875H1.56207C0.889844 0.671875 0.339844 1.22188 0.339844 1.8941V10.4497C0.339844 11.1219 0.889844 11.6719 1.56207 11.6719H10.1176C10.7898 11.6719 11.3398 11.1219 11.3398 10.4497V7.3941C11.3398 7.05799 11.0648 6.78299 10.7287 6.78299C10.3926 6.78299 10.1176 7.05799 10.1176 7.3941Z" fill="#3E3E3E"/>
</svg>