<svg xmlns="http://www.w3.org/2000/svg" width="13" height="13" viewBox="0 0 13 13" fill="none">
  <path d="M1.16667 11.1667C0.977778 11.1667 0.819444 11.2306 0.691667 11.3583C0.563889 11.4861 0.5 11.6444 0.5 11.8333C0.5 12.0222 0.563889 12.1806 0.691667 12.3083C0.819444 12.4361 0.977778 12.5 1.16667 12.5C1.35556 12.5 1.51389 12.4361 1.64167 12.3083C1.76944 12.1806 1.83333 12.0222 1.83333 11.8333C1.83333 11.6444 1.76944 11.4861 1.64167 11.3583C1.51389 11.2306 1.35556 11.1667 1.16667 11.1667ZM3.83333 11.1667C3.64444 11.1667 3.48611 11.2306 3.35833 11.3583C3.23056 11.4861 3.16667 11.6444 3.16667 11.8333C3.16667 12.0222 3.23056 12.1806 3.35833 12.3083C3.48611 12.4361 3.64444 12.5 3.83333 12.5C4.02222 12.5 4.18056 12.4361 4.30833 12.3083C4.43611 12.1806 4.5 12.0222 4.5 11.8333C4.5 11.6444 4.43611 11.4861 4.30833 11.3583C4.18056 11.2306 4.02222 11.1667 3.83333 11.1667ZM6.5 11.1667C6.31111 11.1667 6.15278 11.2306 6.025 11.3583C5.89722 11.4861 5.83333 11.6444 5.83333 11.8333C5.83333 12.0222 5.89722 12.1806 6.025 12.3083C6.15278 12.4361 6.31111 12.5 6.5 12.5C6.68889 12.5 6.84722 12.4361 6.975 12.3083C7.10278 12.1806 7.16667 12.0222 7.16667 11.8333C7.16667 11.6444 7.10278 11.4861 6.975 11.3583C6.84722 11.2306 6.68889 11.1667 6.5 11.1667ZM9.16667 11.1667C8.97778 11.1667 8.81945 11.2306 8.69167 11.3583C8.56389 11.4861 8.5 11.6444 8.5 11.8333C8.5 12.0222 8.56389 12.1806 8.69167 12.3083C8.81945 12.4361 8.97778 12.5 9.16667 12.5C9.35556 12.5 9.51389 12.4361 9.64167 12.3083C9.76945 12.1806 9.83333 12.0222 9.83333 11.8333C9.83333 11.6444 9.76945 11.4861 9.64167 11.3583C9.51389 11.2306 9.35556 11.1667 9.16667 11.1667ZM11.8333 11.1667C11.6444 11.1667 11.4861 11.2306 11.3583 11.3583C11.2306 11.4861 11.1667 11.6444 11.1667 11.8333C11.1667 12.0222 11.2306 12.1806 11.3583 12.3083C11.4861 12.4361 11.6444 12.5 11.8333 12.5C12.0222 12.5 12.1806 12.4361 12.3083 12.3083C12.4361 12.1806 12.5 12.0222 12.5 11.8333C12.5 11.6444 12.4361 11.4861 12.3083 11.3583C12.1806 11.2306 12.0222 11.1667 11.8333 11.1667ZM3.83333 0.5C3.64444 0.5 3.48611 0.563889 3.35833 0.691667C3.23056 0.819444 3.16667 0.977777 3.16667 1.16667C3.16667 1.35555 3.23056 1.51389 3.35833 1.64167C3.48611 1.76944 3.64444 1.83333 3.83333 1.83333C4.02222 1.83333 4.18056 1.76944 4.30833 1.64167C4.43611 1.51389 4.5 1.35555 4.5 1.16667C4.5 0.977777 4.43611 0.819444 4.30833 0.691667C4.18056 0.563889 4.02222 0.5 3.83333 0.5ZM1.16667 8.5C0.977778 8.5 0.819444 8.56389 0.691667 8.69167C0.563889 8.81944 0.5 8.97778 0.5 9.16667C0.5 9.35556 0.563889 9.51389 0.691667 9.64167C0.819444 9.76944 0.977778 9.83333 1.16667 9.83333C1.35556 9.83333 1.51389 9.76944 1.64167 9.64167C1.76944 9.51389 1.83333 9.35556 1.83333 9.16667C1.83333 8.97778 1.76944 8.81944 1.64167 8.69167C1.51389 8.56389 1.35556 8.5 1.16667 8.5ZM1.16667 5.83333C0.977778 5.83333 0.819444 5.89722 0.691667 6.025C0.563889 6.15278 0.5 6.31111 0.5 6.5C0.5 6.68889 0.563889 6.84722 0.691667 6.975C0.819444 7.10278 0.977778 7.16667 1.16667 7.16667C1.35556 7.16667 1.51389 7.10278 1.64167 6.975C1.76944 6.84722 1.83333 6.68889 1.83333 6.5C1.83333 6.31111 1.76944 6.15278 1.64167 6.025C1.51389 5.89722 1.35556 5.83333 1.16667 5.83333ZM1.16667 3.16667C0.977778 3.16667 0.819444 3.23055 0.691667 3.35833C0.563889 3.48611 0.5 3.64444 0.5 3.83333C0.5 4.02222 0.563889 4.18055 0.691667 4.30833C0.819444 4.43611 0.977778 4.5 1.16667 4.5C1.35556 4.5 1.51389 4.43611 1.64167 4.30833C1.76944 4.18055 1.83333 4.02222 1.83333 3.83333C1.83333 3.64444 1.76944 3.48611 1.64167 3.35833C1.51389 3.23055 1.35556 3.16667 1.16667 3.16667ZM1.16667 0.5C0.977778 0.5 0.819444 0.563889 0.691667 0.691667C0.563889 0.819444 0.5 0.977777 0.5 1.16667C0.5 1.35555 0.563889 1.51389 0.691667 1.64167C0.819444 1.76944 0.977778 1.83333 1.16667 1.83333C1.35556 1.83333 1.51389 1.76944 1.64167 1.64167C1.76944 1.51389 1.83333 1.35555 1.83333 1.16667C1.83333 0.977777 1.76944 0.819444 1.64167 0.691667C1.51389 0.563889 1.35556 0.5 1.16667 0.5ZM11.8333 8.5C11.6444 8.5 11.4861 8.56389 11.3583 8.69167C11.2306 8.81944 11.1667 8.97778 11.1667 9.16667C11.1667 9.35556 11.2306 9.51389 11.3583 9.64167C11.4861 9.76944 11.6444 9.83333 11.8333 9.83333C12.0222 9.83333 12.1806 9.76944 12.3083 9.64167C12.4361 9.51389 12.5 9.35556 12.5 9.16667C12.5 8.97778 12.4361 8.81944 12.3083 8.69167C12.1806 8.56389 12.0222 8.5 11.8333 8.5Z" fill="#3E3E3E"/>
</svg>