<svg xmlns="http://www.w3.org/2000/svg" width="16" height="16" viewBox="0 0 16 16" fill="none">
  <path d="M2.00065 3.99998C1.63398 3.99998 1.33398 4.29998 1.33398 4.66665V13.3333C1.33398 14.0666 1.93398 14.6666 2.66732 14.6666H11.334C11.7007 14.6666 12.0007 14.3666 12.0007 14C12.0007 13.6333 11.7007 13.3333 11.334 13.3333H3.33398C2.96732 13.3333 2.66732 13.0333 2.66732 12.6666V4.66665C2.66732 4.29998 2.36732 3.99998 2.00065 3.99998ZM13.334 1.33331H5.33398C4.60065 1.33331 4.00065 1.93331 4.00065 2.66665V10.6666C4.00065 11.4 4.60065 12 5.33398 12H13.334C14.0673 12 14.6673 11.4 14.6673 10.6666V2.66665C14.6673 1.93331 14.0673 1.33331 13.334 1.33331ZM12.0007 7.33331H10.0007V9.33331C10.0007 9.69998 9.70065 9.99998 9.33398 9.99998C8.96732 9.99998 8.66732 9.69998 8.66732 9.33331V7.33331H6.66732C6.30065 7.33331 6.00065 7.03331 6.00065 6.66665C6.00065 6.29998 6.30065 5.99998 6.66732 5.99998H8.66732V3.99998C8.66732 3.63331 8.96732 3.33331 9.33398 3.33331C9.70065 3.33331 10.0007 3.63331 10.0007 3.99998V5.99998H12.0007C12.3673 5.99998 12.6673 6.29998 12.6673 6.66665C12.6673 7.03331 12.3673 7.33331 12.0007 7.33331Z" fill="#747474"/>
</svg>