<svg width="16" height="16" viewBox="0 0 16 16" fill="none" xmlns="http://www.w3.org/2000/svg">
<path d="M2.40078 6.40117C3.28444 6.40117 4.00078 5.68483 4.00078 4.80117C4.00078 3.91752 3.28444 3.20117 2.40078 3.20117C1.51713 3.20117 0.800781 3.91752 0.800781 4.80117C0.800781 5.68483 1.51713 6.40117 2.40078 6.40117Z" fill="#2D76F8"/>
<path d="M2.40078 12.8016C3.28444 12.8016 4.00078 12.0852 4.00078 11.2016C4.00078 10.3179 3.28444 9.60156 2.40078 9.60156C1.51713 9.60156 0.800781 10.3179 0.800781 11.2016C0.800781 12.0852 1.51713 12.8016 2.40078 12.8016Z" fill="#2D76F8"/>
<path d="M8.80117 4.00078C9.68483 4.00078 10.4012 3.28444 10.4012 2.40078C10.4012 1.51713 9.68483 0.800781 8.80117 0.800781C7.91752 0.800781 7.20117 1.51713 7.20117 2.40078C7.20117 3.28444 7.91752 4.00078 8.80117 4.00078Z" fill="#2D76F8"/>
<path d="M8.80117 9.60039C9.68483 9.60039 10.4012 8.88405 10.4012 8.00039C10.4012 7.11674 9.68483 6.40039 8.80117 6.40039C7.91752 6.40039 7.20117 7.11674 7.20117 8.00039C7.20117 8.88405 7.91752 9.60039 8.80117 9.60039Z" fill="#2D76F8"/>
<path d="M8.80117 15.2C9.68483 15.2 10.4012 14.4837 10.4012 13.6C10.4012 12.7163 9.68483 12 8.80117 12C7.91752 12 7.20117 12.7163 7.20117 13.6C7.20117 14.4837 7.91752 15.2 8.80117 15.2Z" fill="#2D76F8"/>
<path d="M13.6 9.60039C14.4837 9.60039 15.2 8.88405 15.2 8.00039C15.2 7.11674 14.4837 6.40039 13.6 6.40039C12.7163 6.40039 12 7.11674 12 8.00039C12 8.88405 12.7163 9.60039 13.6 9.60039Z" fill="#2D76F8"/>
<path d="M8.80078 2.40039L13.6008 8.00039M13.6008 8.00039L8.80078 13.6004M13.6008 8.00039H8.80078" stroke="#2D76F8" stroke-width="1.5" stroke-miterlimit="10"/>
<path d="M2.40039 11.2004L8.80039 2.40039L2.40039 4.80039L8.80039 13.6004L2.40039 11.2004ZM2.40039 11.2004L8.80039 8.00039" stroke="#2D76F8" stroke-width="1.5" stroke-miterlimit="10" stroke-linejoin="bevel"/>
<path d="M2.33398 4.66797L8.80064 8.0013" stroke="#2D76F8" stroke-width="1.5" stroke-miterlimit="10"/>
</svg>
