<svg xmlns="http://www.w3.org/2000/svg" xmlns:xlink="http://www.w3.org/1999/xlink" width="36" height="36" viewBox="0 0 36 36">
    <defs>
        <path id="5j10e6fe0a" d="M31.304 6.027l1.669 2.027-2.224 1.83.001 17.294c0 .369-.124.681-.373.938-.214.22-.467.345-.76.376l-.151.008H8.144l-2.698 2.223-1.669-2.027L31.304 6.027zM27.856 7.5l-10.373 8.542-1.394-1.993-5.2 7.424-5.64 4.643.001-17.294c0-.316.091-.591.274-.824l.1-.114c.213-.22.466-.345.76-.376l.15-.008h21.322zm-5.377 10.485l-1.851 2.552-1.029-1.47-8.244 6.788h16.827l-5.703-7.87z"/>
    </defs>
    <g fill="none" fill-rule="evenodd">
        <g>
            <g>
                <g>
                    <g>
                        <g>
                            <g>
                                <g>
                                    <g>
                                        <g>
                                            <g transform="translate(-1225 -593) translate(1064.25 409) translate(.75) translate(44) translate(24 40) translate(0 36) translate(0 84) translate(70) translate(10 12) translate(12 12)">
                                                <path d="M0 0H36V36H0z" opacity=".2"/>
                                                <mask id="nx6j4z6g4b" fill="#ffffff">
                                                    <use xlink:href="#5j10e6fe0a"/>
                                                </mask>
                                                <path fill="#dbdbdb" d="M0 0H36V36H0z" mask="url(#nx6j4z6g4b)"/>
                                            </g>
                                        </g>
                                    </g>
                                </g>
                            </g>
                        </g>
                    </g>
                </g>
            </g>
        </g>
    </g>
</svg>
