<svg width="20" height="20" viewBox="0 0 20 20" fill="none" xmlns="http://www.w3.org/2000/svg">
<g id="Icon/Line/Precaution">
<path id="Union" fill-rule="evenodd" clip-rule="evenodd" d="M9.99653 16.1106C13.3716 16.1106 16.1076 13.3745 16.1076 9.99946C16.1076 6.62438 13.3716 3.88834 9.99653 3.88834C6.62145 3.88834 3.88542 6.62438 3.88542 9.99946C3.88542 13.3745 6.62145 16.1106 9.99653 16.1106ZM17.2188 9.99946C17.2188 13.9882 13.9853 17.2217 9.99653 17.2217C6.0078 17.2217 2.7743 13.9882 2.7743 9.99946C2.7743 6.01073 6.0078 2.77723 9.99653 2.77723C13.9853 2.77723 17.2188 6.01073 17.2188 9.99946ZM9.99693 13.8879C9.69011 13.8879 9.44138 13.6392 9.44138 13.3324V9.44349C9.44138 9.13667 9.69011 8.88794 9.99693 8.88794C10.3038 8.88794 10.5525 9.13667 10.5525 9.44349V13.3324C10.5525 13.6392 10.3038 13.8879 9.99693 13.8879ZM9.16292 6.94377C9.16292 6.48353 9.53602 6.11043 9.99626 6.11043C10.4565 6.11043 10.8296 6.48353 10.8296 6.94377C10.8296 7.404 10.4565 7.7771 9.99626 7.7771C9.53602 7.7771 9.16292 7.404 9.16292 6.94377Z" fill="#7E7E7F"/>
</g>
</svg>
