<svg width="20" height="20" viewBox="0 0 20 20" fill="none" xmlns="http://www.w3.org/2000/svg">
<path fill-rule="evenodd" clip-rule="evenodd" d="M8.125 1.25C7.54484 1.25 6.98844 1.48047 6.5782 1.8907C6.16797 2.30094 5.9375 2.85734 5.9375 3.4375V3.75H4.375H3.125C2.60723 3.75 2.1875 4.16973 2.1875 4.6875C2.1875 5.20527 2.60723 5.625 3.125 5.625H3.4375V16.5625C3.4375 16.9769 3.60212 17.3743 3.89515 17.6674C4.18817 17.9604 4.5856 18.125 5 18.125H15C15.4144 18.125 15.8118 17.9604 16.1049 17.6674C16.3979 17.3743 16.5625 16.9769 16.5625 16.5625V5.625H16.875C17.3928 5.625 17.8125 5.20527 17.8125 4.6875C17.8125 4.16973 17.3928 3.75 16.875 3.75H15.625H14.0625V3.4375C14.0625 2.85734 13.832 2.30094 13.4218 1.8907C13.0116 1.48047 12.4552 1.25 11.875 1.25H8.125ZM12.1875 3.75V3.4375C12.1875 3.35462 12.1546 3.27513 12.096 3.21653C12.0374 3.15792 11.9579 3.125 11.875 3.125H8.125C8.04212 3.125 7.96263 3.15792 7.90403 3.21653C7.84542 3.27513 7.8125 3.35462 7.8125 3.4375V3.75H12.1875ZM6.875 5.625H5.3125V16.25H14.6875V5.625H13.125H6.875ZM8.125 7.5C8.64277 7.5 9.0625 7.91973 9.0625 8.4375V13.4375C9.0625 13.9553 8.64277 14.375 8.125 14.375C7.60723 14.375 7.1875 13.9553 7.1875 13.4375V8.4375C7.1875 7.91973 7.60723 7.5 8.125 7.5ZM12.8125 8.4375C12.8125 7.91973 12.3928 7.5 11.875 7.5C11.3572 7.5 10.9375 7.91973 10.9375 8.4375V13.4375C10.9375 13.9553 11.3572 14.375 11.875 14.375C12.3928 14.375 12.8125 13.9553 12.8125 13.4375V8.4375Z" fill="#747474"/>
</svg>
