<svg xmlns="http://www.w3.org/2000/svg" xmlns:xlink="http://www.w3.org/1999/xlink" width="16" height="16" viewBox="0 0 16 16">
    <defs>
        <path id="g34lbyof6a" d="M5 .333v2h1v-2h.667v2h1v-2h.666v2h1v-2H10v2h1v-2h.667v2h1.185c.182 0 .341.051.479.152l.099.086c.158.158.237.345.237.56v1.201l2.037.001V5h-2.038v1h2.038v.667h-2.038v1h2.038v.666h-2.038v1h2.038V10h-2.038v1h2.038v.667h-2.038v1.183c0 .183-.05.343-.15.48l-.086.1c-.158.158-.35.237-.578.237h-1.186v2H11v-2h-1v2h-.667v-2h-1v2h-.666v-2h-1v2H6v-2H5v2h-.667v-2H3.148c-.182 0-.341-.051-.479-.152l-.099-.086c-.158-.158-.237-.35-.237-.579v-1.184h-2V11h2v-1h-2v-.667h2v-1h-2v-.666h2v-1h-2V6h2V5h-2v-.667h2V3.13c0-.172.05-.326.152-.462l.085-.098c.158-.159.35-.238.578-.238h1.184l.001-2H5zm7.667 3H3.333v9.334h9.334V3.333zM5.63 7c.207 0 .395.035.563.105.17.07.31.17.425.303l-.35.324-.088-.082c-.15-.123-.324-.185-.523-.185-.15 0-.284.032-.4.095-.118.063-.209.151-.274.266-.065.115-.098.246-.098.395 0 .146.033.276.098.39.065.115.156.205.271.269.116.064.248.096.397.096.157 0 .299-.034.424-.101v-.692h.5v.958l-.135.09c-.095.054-.198.098-.31.133-.17.051-.339.077-.51.077-.245 0-.465-.052-.66-.157-.196-.104-.35-.25-.46-.435-.112-.185-.168-.395-.168-.628 0-.234.056-.444.167-.63.111-.185.266-.33.464-.434.198-.105.42-.157.667-.157zm4.444.04v1.302l.006.12c.031.343.205.514.52.514.171 0 .301-.051.391-.154.09-.102.135-.262.135-.48V7.04h.54v1.322l-.006.144c-.023.277-.115.495-.276.655-.188.187-.45.28-.787.28s-.6-.093-.787-.28c-.188-.186-.282-.453-.282-.799V7.04h.546zm-1.972 0l.151.007c.147.013.278.046.393.098.154.07.273.169.356.297.083.128.125.28.125.455 0 .173-.042.324-.125.453-.083.13-.202.228-.356.297-.154.069-.335.103-.544.103h-.476v.65h-.546V7.04h1.022zm-.03.446h-.446v.819h.445c.165 0 .29-.036.375-.106.085-.071.128-.172.128-.302 0-.133-.043-.234-.128-.305-.086-.071-.21-.106-.375-.106zm4.26 4.847V3.667H3.667v8.666h8.666z"/>
    </defs>
    <g fill="none" fill-rule="evenodd">
        <path fill="#000" fill-opacity="0" d="M0 0H16V16H0z"/>
        <mask id="nm105a4vgb" fill="#ffffff">
            <use xlink:href="#g34lbyof6a"/>
        </mask>
        <use fill="#ffffff" fill-rule="nonzero" xlink:href="#g34lbyof6a"/>
        <path fill="#979899" d="M0 0H16V16H0z" mask="url(#nm105a4vgb)"/>
    </g>
</svg>
