<svg xmlns="http://www.w3.org/2000/svg" xmlns:xlink="http://www.w3.org/1999/xlink" width="48" height="48" viewBox="0 0 48 48">
    <defs>
        <path id="prefix__a" d="M21.75 34.5c1.758 0 3.41-.334 4.957-1.002 1.547-.668 2.9-1.576 4.06-2.725 1.16-1.148 2.075-2.502 2.743-4.06.668-1.559 1.002-3.217 1.002-4.975 0-1.758-.334-3.41-1.002-4.957-.668-1.547-1.582-2.894-2.742-4.043-1.16-1.148-2.514-2.056-4.061-2.724-1.547-.668-3.2-1.002-4.957-1.002-1.758 0-3.41.334-4.957 1.002-1.547.668-2.9 1.576-4.06 2.724-1.16 1.149-2.075 2.496-2.743 4.043-.668 1.547-1.002 3.2-1.002 4.957 0 1.758.334 3.416 1.002 4.975.668 1.558 1.582 2.912 2.742 4.06 1.16 1.149 2.514 2.057 4.061 2.725 1.547.668 3.2 1.002 4.957 1.002zm0-2.988c-1.336 0-2.596-.258-3.78-.774-1.183-.515-2.22-1.213-3.11-2.092-.891-.878-1.589-1.91-2.092-3.093-.504-1.184-.756-2.455-.756-3.815 0-1.336.252-2.595.756-3.779.503-1.184 1.2-2.215 2.091-3.094.891-.879 1.928-1.576 3.112-2.092 1.183-.515 2.443-.773 3.779-.773 1.336 0 2.596.258 3.78.773 1.183.516 2.22 1.213 3.11 2.092.891.88 1.589 1.91 2.092 3.094.504 1.184.756 2.443.756 3.78 0 1.359-.252 2.63-.756 3.814-.503 1.183-1.2 2.215-2.091 3.093-.891.88-1.928 1.577-3.112 2.092-1.183.516-2.443.774-3.779.774zM36.832 39l2.145-2.18-6.082-6.082-2.18 2.145L36.832 39z"/>
    </defs>
    <g fill="none" fill-rule="evenodd">
        <mask id="prefix__b" fill="#ffffff">
            <use xlink:href="#prefix__a"/>
        </mask>
        <use fill="#ffffff" fill-opacity="0" fill-rule="nonzero" xlink:href="#prefix__a"/>
        <path fill="#979899" d="M0 0H48V48H0z" mask="url(#prefix__b)"/>
    </g>
</svg>
