<?xml version="1.0" standalone="no"?>
<!DOCTYPE svg PUBLIC "-//W3C//DTD SVG 20010904//EN"
 "http://www.w3.org/TR/2001/REC-SVG-20010904/DTD/svg10.dtd">
<svg version="1.0" xmlns="http://www.w3.org/2000/svg"
 width="980.000000pt" height="766.000000pt" viewBox="0 0 980.000000 766.000000"
 preserveAspectRatio="xMidYMid meet">

<g transform="translate(0.000000,766.000000) scale(0.100000,-0.100000)"
fill="#747474" stroke="none">
<path d="M1990 7639 c-197 -5 -265 -11 -300 -23 -92 -34 -176 -90 -256 -171
-66 -66 -90 -100 -128 -176 -43 -87 -48 -103 -58 -214 -16 -157 -16 -3730 -1
-3973 10 -158 12 -166 46 -235 87 -175 244 -310 432 -372 44 -14 87 -28 95
-31 9 -3 -305 -324 -903 -922 l-918 -918 16 -80 c19 -89 62 -203 106 -281 39
-67 121 -142 213 -192 l73 -41 4502 0 4502 0 52 26 c75 38 169 107 200 147 60
78 123 230 133 322 5 39 2 62 -11 91 -23 50 -407 433 -1228 1224 -345 332
-627 607 -627 610 0 3 37 13 83 24 45 10 109 29 141 42 187 76 344 246 401
434 31 104 37 609 31 2390 -3 921 -9 1718 -14 1771 -8 84 -15 106 -52 177 -72
140 -203 262 -356 334 l-69 32 -330 7 c-432 10 -5444 8 -5775 -2z m5943 -518
c51 -8 78 -18 108 -42 l39 -31 -2 -2001 -3 -2001 -41 -29 c-34 -24 -59 -31
-135 -41 -133 -16 -5845 -16 -5977 0 -73 9 -101 17 -132 39 l-40 28 0 2006 0
2007 30 22 c54 40 81 44 330 52 396 12 5743 4 5823 -9z m22 -5281 l300 -300
-3345 0 -3345 0 300 300 300 300 2745 0 2745 0 300 -300z m-1977 -919 c78
-159 142 -294 142 -299 0 -6 -123 -13 -317 -17 -373 -9 -2089 -2 -2099 8 -4 4
58 140 139 302 l146 295 924 0 924 0 141 -289z"/>
</g>
</svg>
