<svg id="Layer_1" data-name="Layer 1" xmlns="http://www.w3.org/2000/svg" viewBox="0 0 157.7 174.48"><defs><style>.cls-1{fill:#002e77;}.cls-2{fill:#164abe;}.cls-3{fill:#002f77;}.cls-4{opacity:0.7;}.cls-5{fill:#ffffff;}.cls-6{fill:#f3b95b;}.cls-7{fill:#164abe;}.cls-8{fill:#2d76f8;}.cls-9{fill:#ffe953;}.cls-10{fill:#3babff;}.cls-11{fill:#6cddff;}</style></defs><polygon class="cls-1" points="10.52 165.45 2.14 165.45 2.14 158.35 0 159 0 174.14 2.14 174.14 2.14 167.44 10.52 167.44 10.52 174.14 12.66 174.14 12.66 158.35 10.52 159 10.52 165.45"/><polygon class="cls-1" points="27.58 160.55 28.25 158.56 18.46 158.56 18.46 174.14 27.58 174.14 28.25 172.15 20.6 172.15 20.6 167.38 26.26 167.38 26.93 165.41 20.6 165.41 20.6 160.55 27.58 160.55"/><path class="cls-1" d="M31.1,174.14h2.18l1.41-3.34h6.43l1.4,3.34H44.7L37.9,158Zm9.2-5.33H35.53l2.37-5.66Z"/><polygon class="cls-1" points="51.26 158.3 49.12 158.96 49.12 174.14 58.24 174.14 58.91 172.17 51.26 172.17 51.26 158.3"/><polygon class="cls-1" points="62.42 160.61 67.66 160.61 67.66 174.14 69.8 174.14 69.8 160.61 74.37 160.61 75.04 158.62 63.09 158.62 62.42 160.61"/><polygon class="cls-1" points="90.21 165.45 81.83 165.45 81.83 158.35 79.69 159 79.69 174.14 81.83 174.14 81.83 167.44 90.21 167.44 90.21 174.14 92.35 174.14 92.35 158.35 90.21 159 90.21 165.45"/><path class="cls-1" d="M105.63,158.27a8.1,8.1,0,1,0,0,16.2h.11a8.26,8.26,0,0,0,4.58-1.49l.1-.08v-3l-.44.56a5.84,5.84,0,0,1-4.34,2,6.09,6.09,0,0,1,0-12.18,5.84,5.84,0,0,1,4.35,2l.45.57v-3l-.1-.08A8.15,8.15,0,0,0,105.63,158.27Z"/><path class="cls-1" d="M114.22,174.14h2.18l1.4-3.34h6.43l1.41,3.34h2.18L121,158Zm9.19-5.33h-4.77l2.38-5.66Z"/><path class="cls-1" d="M142.54,163.07c0-3-1.84-4.45-5.62-4.45h-4.68v15.52h2.15v-6.62h2.75l4.65,7,1.66-1.34-4-5.9A3.86,3.86,0,0,0,142.54,163.07Zm-8.15-2.46h2.53c2.35,0,3.44.79,3.44,2.46s-1.13,2.46-3.44,2.46h-2.53Z"/><polygon class="cls-1" points="150.04 167.38 155.7 167.38 156.38 165.41 150.04 165.41 150.04 160.55 157.02 160.55 157.7 158.56 147.9 158.56 147.9 174.14 157.02 174.14 157.7 172.15 150.04 172.15 150.04 167.38"/><polygon class="cls-2" points="64.28 127.32 46.97 117.91 46.97 113.86 91.32 99.9 100.35 87.84 100.35 1.46 104.7 0 122.02 9.38 122.02 98.43 111.43 112.46 64.28 127.32"/><polygon class="cls-3" points="100.35 1.46 117.66 10.84 117.66 97.19 108.63 109.25 64.28 123.27 64.28 127.32 46.97 117.91 46.97 113.86 91.32 99.9 100.35 87.84 100.35 1.46"/><g class="cls-4"><g class="cls-4"><circle class="cls-5" cx="91.7" cy="107.79" r="1.19"/></g><g class="cls-4"><circle class="cls-5" cx="102.39" cy="99.32" r="1.16"/></g><g class="cls-4"><circle class="cls-5" cx="109" cy="20.6" r="1.16"/></g></g><polygon class="cls-6" points="107.85 44.46 94.01 35.15 74.74 41.32 88.58 50.63 107.85 44.46"/><polygon class="cls-7" points="88.58 89.13 69.32 95.3 55.48 85.98 55.48 28.24 74.74 22.07 88.58 31.39 88.58 89.13"/><polygon class="cls-8" points="69.32 37.56 88.58 31.39 88.58 50.63 107.85 44.46 107.85 63.71 88.58 69.88 88.58 89.13 69.32 95.3 69.32 76.05 50.06 82.22 50.06 62.97 69.32 56.8 69.32 37.56"/><polygon class="cls-9" points="88.58 50.63 88.58 69.88 107.85 63.71 107.85 44.46 88.58 50.63"/><polygon class="cls-10" points="69.32 56.8 55.48 47.49 36.22 53.66 36.22 72.91 50.06 82.22 69.32 76.05 69.32 56.8"/><polygon class="cls-11" points="69.32 56.8 69.32 76.05 50.06 82.22 50.06 62.97 69.32 56.8"/></svg>
