<svg xmlns="http://www.w3.org/2000/svg" viewBox="0 0 1299.59 1144.21"><defs><style>.cls-1{fill:#002f77;}.cls-2{fill:#164abe;}.cls-3{opacity:0.4;}.cls-4{fill:#ffffff;}.cls-5{fill:#6cddff;}.cls-6{fill:#3babff;}.cls-7{fill:#164abe;}.cls-8{fill:#2d76f8;}.cls-9{fill:#f3b95b;}.cls-10{fill:#ffe953;}</style></defs><g id="레이어_2" data-name="레이어 2"><g id="Layer_1" data-name="Layer 1"><polygon class="cls-1" points="759.11 39.83 748.15 33.81 734.62 26.36 686.66 0 686.66 807.21 686.9 807.34 1299.59 1144.21 1299.59 1102.83 1299.59 1091.45 1299.59 1073.32 1299.59 614.63 1299.59 337 759.11 39.83"/><polygon class="cls-2" points="734.62 792.2 734.62 26.36 686.66 0 686.66 807.21 686.9 807.34 1299.59 1144.21 1299.59 1102.83 734.86 792.33 734.62 792.2"/><g class="cls-3"><circle class="cls-4" cx="1119.33" cy="560.31" r="11.79"/><circle class="cls-4" cx="1219.91" cy="457.86" r="11.79"/><circle class="cls-4" cx="882.56" cy="203.33" r="11.79"/></g><polygon class="cls-5" points="0.17 229.94 329.51 240.02 1197.41 717.93 1129.84 852 0.17 229.94"/><polygon class="cls-6" points="0.17 229.94 1129.84 852 1129.67 894.24 0 272.18 0.17 229.94"/><polygon class="cls-7" points="247.44 494.18 247.71 630 353.56 688.18 904.92 514.76 904.92 377.35 247.44 494.18"/><polygon class="cls-8" points="247.44 494.18 353.29 552.36 904.92 377.35 799.08 320.68 247.44 494.18"/><polygon class="cls-5" points="567.22 542.19 764 479.27 1197.41 717.93 1129.84 852 567.22 542.19"/><polygon class="cls-9" points="905.2 514.68 1042.16 472.71 904.92 377.35 905.2 514.68"/><polygon class="cls-6" points="567.22 542.19 1129.84 852 1129.67 894.24 567.05 584.43 567.22 542.19"/><polygon class="cls-8" points="0.17 229.94 130.49 301.7 329.51 240.02 0.17 229.94"/><polygon class="cls-10" points="1197.09 717.75 1129.84 852 1000.99 781.04 1197.09 717.75"/><polygon class="cls-9" points="1129.84 852 1000.9 780.99 1000.73 823.24 1129.67 894.24 1197.24 760.17 1197.41 717.93 1129.84 852"/><polygon class="cls-7" points="130.4 301.65 130.23 343.89 0 272.18 0.17 229.94 130.4 301.65"/></g></g></svg>
