<svg width="400" height="210" viewBox="0 0 400 210" fill="none" xmlns="http://www.w3.org/2000/svg">
<path d="M18.72 125.856C19.7227 125.856 20.6827 125.973 21.6 126.208C22.5387 126.421 23.456 126.773 24.352 127.264C25.2693 127.755 26.016 128.48 26.592 129.44C27.1893 130.4 27.552 131.541 27.68 132.864H23.36C23.04 130.688 21.6 129.6 19.04 129.6C17.824 129.6 16.8533 129.835 16.128 130.304C15.424 130.773 15.072 131.445 15.072 132.32C15.072 133.067 15.328 133.643 15.84 134.048C16.3733 134.453 17.1947 134.763 18.304 134.976L20.864 135.488C23.104 135.936 24.7787 136.629 25.888 137.568C26.9973 138.507 27.552 139.84 27.552 141.568C27.552 143.637 26.7733 145.291 25.216 146.528C23.6587 147.765 21.6 148.384 19.04 148.384C16.3307 148.384 14.112 147.712 12.384 146.368C10.6773 145.003 9.74933 143.157 9.6 140.832H13.92C14.0907 141.963 14.656 142.859 15.616 143.52C16.576 144.181 17.8027 144.512 19.296 144.512C20.4907 144.512 21.4187 144.309 22.08 143.904C22.7413 143.477 23.072 142.88 23.072 142.112C23.072 140.875 22.112 140.085 20.192 139.744L16.672 139.072C12.5333 138.283 10.464 136.16 10.464 132.704C10.464 130.635 11.2107 128.981 12.704 127.744C14.2187 126.485 16.224 125.856 18.72 125.856ZM38.533 132.352C40.8583 132.352 42.789 133.109 44.325 134.624C45.861 136.139 46.629 138.059 46.629 140.384C46.629 142.709 45.861 144.629 44.325 146.144C42.789 147.637 40.8583 148.384 38.533 148.384C36.1863 148.384 34.245 147.637 32.709 146.144C31.173 144.629 30.405 142.709 30.405 140.384C30.405 138.059 31.173 136.139 32.709 134.624C34.245 133.109 36.1863 132.352 38.533 132.352ZM35.685 143.392C36.4103 144.181 37.3597 144.576 38.533 144.576C39.7063 144.576 40.645 144.181 41.349 143.392C42.0743 142.603 42.437 141.6 42.437 140.384C42.437 139.189 42.0743 138.187 41.349 137.376C40.6237 136.565 39.685 136.16 38.533 136.16C37.3597 136.16 36.4103 136.565 35.685 137.376C34.9597 138.187 34.597 139.189 34.597 140.384C34.597 141.6 34.9597 142.603 35.685 143.392ZM53.8018 134.496C55.2098 133.152 57.0124 132.48 59.2098 132.48V136.448C56.8631 136.576 55.0604 137.344 53.8018 138.752V148H49.6098V132.736H53.8018V134.496ZM66.3643 134.496C67.7723 133.152 69.5749 132.48 71.7723 132.48V136.448C69.4256 136.576 67.6229 137.344 66.3643 138.752V148H62.1723V132.736H66.3643V134.496ZM87.4388 132.704H91.8548L82.0948 155.424H77.6788L80.8788 147.936L73.1988 132.704H77.6788L82.8308 143.456L87.4388 132.704ZM94.7488 147.52C94.2581 147.989 93.6608 148.224 92.9568 148.224C92.2528 148.224 91.6554 147.989 91.1648 147.52C90.6741 147.051 90.4288 146.464 90.4288 145.76C90.4288 145.077 90.6741 144.501 91.1648 144.032C91.6554 143.563 92.2528 143.328 92.9568 143.328C93.6608 143.328 94.2581 143.563 94.7488 144.032C95.2608 144.501 95.5168 145.077 95.5168 145.76C95.5168 146.464 95.2608 147.051 94.7488 147.52ZM101.749 147.52C101.258 147.989 100.661 148.224 99.9568 148.224C99.2528 148.224 98.6554 147.989 98.1648 147.52C97.6741 147.051 97.4288 146.464 97.4288 145.76C97.4288 145.077 97.6741 144.501 98.1648 144.032C98.6554 143.563 99.2528 143.328 99.9568 143.328C100.661 143.328 101.258 143.563 101.749 144.032C102.261 144.501 102.517 145.077 102.517 145.76C102.517 146.464 102.261 147.051 101.749 147.52ZM108.749 147.52C108.258 147.989 107.661 148.224 106.957 148.224C106.253 148.224 105.655 147.989 105.165 147.52C104.674 147.051 104.429 146.464 104.429 145.76C104.429 145.077 104.674 144.501 105.165 144.032C105.655 143.563 106.253 143.328 106.957 143.328C107.661 143.328 108.258 143.563 108.749 144.032C109.261 144.501 109.517 145.077 109.517 145.76C109.517 146.464 109.261 147.051 108.749 147.52ZM121.021 126.24H125.373V148H121.021V126.24ZM140.585 143.904L141.161 147.712C140.009 148.16 138.782 148.384 137.481 148.384C135.454 148.384 133.876 147.808 132.745 146.656C131.636 145.483 131.081 143.904 131.081 141.92V136.256H127.817V132.736H131.081V127.2H135.273V132.736H140.873V136.256H135.273V141.92C135.273 142.773 135.518 143.424 136.009 143.872C136.5 144.299 137.15 144.512 137.961 144.512C138.729 144.512 139.604 144.309 140.585 143.904ZM143.679 132.608L145.215 129.344C144.212 128.939 143.711 128.256 143.711 127.296C143.711 126.635 143.956 126.069 144.447 125.6C144.937 125.131 145.524 124.896 146.207 124.896C146.911 124.896 147.508 125.131 147.999 125.6C148.489 126.069 148.735 126.635 148.735 127.296C148.735 127.829 148.457 128.587 147.903 129.568L146.175 132.608H143.679ZM152.27 142.72C152.504 144.235 153.603 144.992 155.566 144.992C157.379 144.992 158.286 144.565 158.286 143.712C158.286 143.029 157.763 142.592 156.718 142.4L153.422 141.824C152.12 141.611 151.043 141.141 150.19 140.416C149.336 139.691 148.91 138.667 148.91 137.344C148.91 135.787 149.507 134.56 150.702 133.664C151.896 132.768 153.475 132.32 155.438 132.32C159.662 132.32 161.912 134.037 162.19 137.472H158.318C158.232 136.256 157.272 135.648 155.438 135.648C153.859 135.648 153.07 136.075 153.07 136.928C153.07 137.717 153.699 138.219 154.958 138.432L157.71 138.88C160.76 139.413 162.286 140.896 162.286 143.328C162.286 144.971 161.656 146.229 160.398 147.104C159.139 147.957 157.496 148.384 155.47 148.384C154.574 148.384 153.742 148.288 152.974 148.096C152.206 147.925 151.48 147.637 150.798 147.232C150.115 146.805 149.56 146.208 149.134 145.44C148.728 144.672 148.483 143.755 148.398 142.688L152.27 142.72ZM182.499 132.352C184.547 132.352 186.179 133.024 187.395 134.368C188.632 135.691 189.251 137.472 189.251 139.712V148H185.059V139.968C185.059 138.731 184.76 137.792 184.163 137.152C183.566 136.491 182.712 136.16 181.603 136.16C180.366 136.16 179.192 136.811 178.083 138.112V148H173.891V132.736H178.083V133.888C179.363 132.864 180.835 132.352 182.499 132.352ZM200.283 132.352C202.608 132.352 204.539 133.109 206.075 134.624C207.611 136.139 208.379 138.059 208.379 140.384C208.379 142.709 207.611 144.629 206.075 146.144C204.539 147.637 202.608 148.384 200.283 148.384C197.936 148.384 195.995 147.637 194.459 146.144C192.923 144.629 192.155 142.709 192.155 140.384C192.155 138.059 192.923 136.139 194.459 134.624C195.995 133.109 197.936 132.352 200.283 132.352ZM197.435 143.392C198.16 144.181 199.11 144.576 200.283 144.576C201.456 144.576 202.395 144.181 203.099 143.392C203.824 142.603 204.187 141.6 204.187 140.384C204.187 139.189 203.824 138.187 203.099 137.376C202.374 136.565 201.435 136.16 200.283 136.16C199.11 136.16 198.16 136.565 197.435 137.376C196.71 138.187 196.347 139.189 196.347 140.384C196.347 141.6 196.71 142.603 197.435 143.392ZM222.616 143.904L223.192 147.712C222.04 148.16 220.814 148.384 219.512 148.384C217.486 148.384 215.907 147.808 214.776 146.656C213.667 145.483 213.112 143.904 213.112 141.92V136.256H209.848V132.736H213.112V127.2H217.304V132.736H222.904V136.256H217.304V141.92C217.304 142.773 217.55 143.424 218.04 143.872C218.531 144.299 219.182 144.512 219.992 144.512C220.76 144.512 221.635 144.309 222.616 143.904ZM247.158 132.704H251.574L241.814 155.424H237.398L240.598 147.936L232.918 132.704H237.398L242.55 143.456L247.158 132.704ZM260.189 132.352C262.515 132.352 264.445 133.109 265.981 134.624C267.517 136.139 268.285 138.059 268.285 140.384C268.285 142.709 267.517 144.629 265.981 146.144C264.445 147.637 262.515 148.384 260.189 148.384C257.843 148.384 255.901 147.637 254.365 146.144C252.829 144.629 252.061 142.709 252.061 140.384C252.061 138.059 252.829 136.139 254.365 134.624C255.901 133.109 257.843 132.352 260.189 132.352ZM257.341 143.392C258.067 144.181 259.016 144.576 260.189 144.576C261.363 144.576 262.301 144.181 263.005 143.392C263.731 142.603 264.093 141.6 264.093 140.384C264.093 139.189 263.731 138.187 263.005 137.376C262.28 136.565 261.341 136.16 260.189 136.16C259.016 136.16 258.067 136.565 257.341 137.376C256.616 138.187 256.253 139.189 256.253 140.384C256.253 141.6 256.616 142.603 257.341 143.392ZM282.366 132.736H286.558V148H282.366V146.784C281.022 147.851 279.55 148.384 277.95 148.384C275.924 148.384 274.292 147.701 273.054 146.336C271.817 144.971 271.198 143.168 271.198 140.928V132.736H275.39V140.672C275.39 141.909 275.689 142.869 276.286 143.552C276.884 144.235 277.737 144.576 278.846 144.576C280.084 144.576 281.257 143.904 282.366 142.56V132.736ZM293.843 147.52C293.352 147.989 292.755 148.224 292.051 148.224C291.347 148.224 290.749 147.989 290.259 147.52C289.768 147.051 289.523 146.464 289.523 145.76C289.523 145.077 289.768 144.501 290.259 144.032C290.749 143.563 291.347 143.328 292.051 143.328C292.755 143.328 293.352 143.563 293.843 144.032C294.355 144.501 294.611 145.077 294.611 145.76C294.611 146.464 294.355 147.051 293.843 147.52ZM306.115 126.24H310.467V148H306.115V126.24ZM325.679 143.904L326.255 147.712C325.103 148.16 323.876 148.384 322.575 148.384C320.548 148.384 318.969 147.808 317.839 146.656C316.729 145.483 316.175 143.904 316.175 141.92V136.256H312.911V132.736H316.175V127.2H320.367V132.736H325.967V136.256H320.367V141.92C320.367 142.773 320.612 143.424 321.103 143.872C321.593 144.299 322.244 144.512 323.055 144.512C323.823 144.512 324.697 144.309 325.679 143.904ZM328.773 132.608L330.309 129.344C329.306 128.939 328.805 128.256 328.805 127.296C328.805 126.635 329.05 126.069 329.541 125.6C330.031 125.131 330.618 124.896 331.301 124.896C332.005 124.896 332.602 125.131 333.093 125.6C333.583 126.069 333.829 126.635 333.829 127.296C333.829 127.829 333.551 128.587 332.997 129.568L331.269 132.608H328.773ZM337.363 142.72C337.598 144.235 338.697 144.992 340.659 144.992C342.473 144.992 343.379 144.565 343.379 143.712C343.379 143.029 342.857 142.592 341.811 142.4L338.515 141.824C337.214 141.611 336.137 141.141 335.283 140.416C334.43 139.691 334.003 138.667 334.003 137.344C334.003 135.787 334.601 134.56 335.795 133.664C336.99 132.768 338.569 132.32 340.531 132.32C344.755 132.32 347.006 134.037 347.283 137.472H343.411C343.326 136.256 342.366 135.648 340.531 135.648C338.953 135.648 338.163 136.075 338.163 136.928C338.163 137.717 338.793 138.219 340.051 138.432L342.803 138.88C345.854 139.413 347.379 140.896 347.379 143.328C347.379 144.971 346.75 146.229 345.491 147.104C344.233 147.957 342.59 148.384 340.563 148.384C339.667 148.384 338.835 148.288 338.067 148.096C337.299 147.925 336.574 147.637 335.891 147.232C335.209 146.805 334.654 146.208 334.227 145.44C333.822 144.672 333.577 143.755 333.491 142.688L337.363 142.72ZM369.929 132.736H374.121V148H369.929V146.784C368.585 147.851 367.113 148.384 365.513 148.384C363.486 148.384 361.854 147.701 360.617 146.336C359.379 144.971 358.761 143.168 358.761 140.928V132.736H362.953V140.672C362.953 141.909 363.251 142.869 363.849 143.552C364.446 144.235 365.299 144.576 366.409 144.576C367.646 144.576 368.819 143.904 369.929 142.56V132.736ZM380.957 142.72C381.192 144.235 382.29 144.992 384.253 144.992C386.066 144.992 386.973 144.565 386.973 143.712C386.973 143.029 386.45 142.592 385.405 142.4L382.109 141.824C380.808 141.611 379.73 141.141 378.877 140.416C378.024 139.691 377.597 138.667 377.597 137.344C377.597 135.787 378.194 134.56 379.389 133.664C380.584 132.768 382.162 132.32 384.125 132.32C388.349 132.32 390.6 134.037 390.877 137.472H387.005C386.92 136.256 385.96 135.648 384.125 135.648C382.546 135.648 381.757 136.075 381.757 136.928C381.757 137.717 382.386 138.219 383.645 138.432L386.397 138.88C389.448 139.413 390.973 140.896 390.973 143.328C390.973 144.971 390.344 146.229 389.085 147.104C387.826 147.957 386.184 148.384 384.157 148.384C383.261 148.384 382.429 148.288 381.661 148.096C380.893 147.925 380.168 147.637 379.485 147.232C378.802 146.805 378.248 146.208 377.821 145.44C377.416 144.672 377.17 143.755 377.085 142.688L380.957 142.72ZM397.53 147.52C397.039 147.989 396.442 148.224 395.738 148.224C395.034 148.224 394.437 147.989 393.946 147.52C393.455 147.051 393.21 146.464 393.21 145.76C393.21 145.077 393.455 144.501 393.946 144.032C394.437 143.563 395.034 143.328 395.738 143.328C396.442 143.328 397.039 143.563 397.53 144.032C398.042 144.501 398.298 145.077 398.298 145.76C398.298 146.464 398.042 147.051 397.53 147.52Z" fill="#747474"/>
<g filter="url(#filter0_di_5004_23768)">
<path d="M36.992 33.952C43.712 33.952 49.184 35.936 53.408 39.904C57.632 43.808 59.744 48.832 59.744 54.976C59.744 61.44 57.568 66.752 53.216 70.912C48.928 75.072 43.424 77.152 36.704 77.152C30.048 77.152 24.608 75.456 20.384 72.064C16.224 68.672 13.696 64 12.8 58.048H25.472C27.136 63.36 30.88 66.016 36.704 66.016C39.84 66.016 42.432 65.024 44.48 63.04C46.528 61.056 47.552 58.496 47.552 55.36C47.552 52.352 46.432 49.888 44.192 47.968C42.016 46.048 39.072 45.088 35.36 45.088H15.68V10.72H57.056V22.336H27.68V33.952H36.992ZM97.4525 9.568C106.541 9.568 113.709 12.704 118.957 18.976C124.205 25.248 126.829 33.376 126.829 43.36C126.829 53.344 124.205 61.472 118.957 67.744C113.709 74.016 106.541 77.152 97.4525 77.152C88.3005 77.152 81.1005 74.016 75.8525 67.744C70.6045 61.472 67.9805 53.344 67.9805 43.36C67.9805 33.376 70.6045 25.248 75.8525 18.976C81.1005 12.704 88.3005 9.568 97.4525 9.568ZM97.4525 65.344C102.701 65.344 106.701 63.328 109.453 59.296C112.269 55.2 113.677 49.888 113.677 43.36C113.677 36.832 112.269 31.552 109.453 27.52C106.701 23.424 102.701 21.376 97.4525 21.376C92.1405 21.376 88.0765 23.424 85.2605 27.52C82.5085 31.552 81.1325 36.832 81.1325 43.36C81.1325 49.888 82.5085 55.2 85.2605 59.296C88.0765 63.328 92.1405 65.344 97.4525 65.344ZM164.533 9.568C173.621 9.568 180.789 12.704 186.037 18.976C191.285 25.248 193.909 33.376 193.909 43.36C193.909 53.344 191.285 61.472 186.037 67.744C180.789 74.016 173.621 77.152 164.533 77.152C155.381 77.152 148.181 74.016 142.933 67.744C137.685 61.472 135.061 53.344 135.061 43.36C135.061 33.376 137.685 25.248 142.933 18.976C148.181 12.704 155.381 9.568 164.533 9.568ZM164.533 65.344C169.781 65.344 173.781 63.328 176.533 59.296C179.349 55.2 180.757 49.888 180.757 43.36C180.757 36.832 179.349 31.552 176.533 27.52C173.781 23.424 169.781 21.376 164.533 21.376C159.221 21.376 155.157 23.424 152.341 27.52C149.589 31.552 148.213 36.832 148.213 43.36C148.213 49.888 149.589 55.2 152.341 59.296C155.157 63.328 159.221 65.344 164.533 65.344Z" fill="#C8DBFD"/>
</g>
<path d="M22.352 175.12H24.656L21.072 186.064H18.928L16.496 179.04L14.048 186.064H11.904L8.32 175.12H10.624L12.992 182.64L15.568 175.12H17.408L19.984 182.64L22.352 175.12ZM31.9633 181.92C31.9633 182.293 31.9473 182.587 31.9153 182.8H26.3153C26.5073 183.835 27.1526 184.352 28.2513 184.352C28.8273 184.352 29.2326 184.208 29.4673 183.92H31.7873C31.5313 184.635 31.0833 185.195 30.4433 185.6C29.8139 185.995 29.0779 186.192 28.2352 186.192C27.0299 186.192 26.0486 185.813 25.2913 185.056C24.5446 184.299 24.1713 183.344 24.1713 182.192C24.1713 181.04 24.5393 180.085 25.2753 179.328C26.0113 178.56 26.9553 178.176 28.1073 178.176C29.2379 178.176 30.1606 178.523 30.8753 179.216C31.6006 179.899 31.9633 180.8 31.9633 181.92ZM28.1233 179.952C27.1739 179.952 26.5873 180.427 26.3633 181.376H29.8353C29.7286 180.427 29.1579 179.952 28.1233 179.952ZM32.4488 178.304L33.2168 176.672C32.7154 176.469 32.4648 176.128 32.4648 175.648C32.4648 175.317 32.5874 175.035 32.8328 174.8C33.0781 174.565 33.3714 174.448 33.7128 174.448C34.0648 174.448 34.3634 174.565 34.6088 174.8C34.8541 175.035 34.9768 175.317 34.9768 175.648C34.9768 175.915 34.8381 176.293 34.5608 176.784L33.6968 178.304H32.4488ZM37.7603 179.248C38.4643 178.576 39.3656 178.24 40.4643 178.24V180.224C39.2909 180.288 38.3896 180.672 37.7603 181.376V186H35.6643V178.368H37.7603V179.248ZM49.057 181.92C49.057 182.293 49.041 182.587 49.009 182.8H43.409C43.601 183.835 44.2463 184.352 45.345 184.352C45.921 184.352 46.3263 184.208 46.561 183.92H48.881C48.625 184.635 48.177 185.195 47.537 185.6C46.9077 185.995 46.1717 186.192 45.329 186.192C44.1237 186.192 43.1423 185.813 42.385 185.056C41.6383 184.299 41.265 183.344 41.265 182.192C41.265 181.04 41.633 180.085 42.369 179.328C43.105 178.56 44.049 178.176 45.201 178.176C46.3317 178.176 47.2543 178.523 47.969 179.216C48.6943 179.899 49.057 180.8 49.057 181.92ZM45.217 179.952C44.2677 179.952 43.681 180.427 43.457 181.376H46.929C46.8223 180.427 46.2517 179.952 45.217 179.952ZM62.2914 181.92C62.2914 182.293 62.2754 182.587 62.2434 182.8H56.6434C56.8354 183.835 57.4807 184.352 58.5794 184.352C59.1554 184.352 59.5607 184.208 59.7954 183.92H62.1154C61.8594 184.635 61.4114 185.195 60.7714 185.6C60.142 185.995 59.406 186.192 58.5634 186.192C57.358 186.192 56.3767 185.813 55.6194 185.056C54.8727 184.299 54.4994 183.344 54.4994 182.192C54.4994 181.04 54.8674 180.085 55.6034 179.328C56.3394 178.56 57.2834 178.176 58.4354 178.176C59.566 178.176 60.4887 178.523 61.2034 179.216C61.9287 179.899 62.2914 180.8 62.2914 181.92ZM58.4514 179.952C57.502 179.952 56.9154 180.427 56.6914 181.376H60.1634C60.0567 180.427 59.486 179.952 58.4514 179.952ZM68.247 182.144L68.231 182.16L71.063 186H68.567L66.855 183.616L65.111 186H62.615L65.447 182.16L65.431 182.144L62.615 178.352H65.175L66.823 180.608L68.503 178.352H71.063L68.247 182.144ZM76.5929 178.208C77.6489 178.208 78.5449 178.597 79.2809 179.376C80.0275 180.144 80.4009 181.083 80.4009 182.192C80.4009 183.291 80.0275 184.229 79.2809 185.008C78.5449 185.776 77.6489 186.16 76.5929 186.16C75.7609 186.16 75.0302 185.957 74.4009 185.552V189.728H72.3049V178.368H74.4009V178.816C75.0302 178.411 75.7609 178.208 76.5929 178.208ZM76.2729 184.352C76.8595 184.352 77.3449 184.139 77.7289 183.712C78.1129 183.285 78.3049 182.779 78.3049 182.192C78.3049 181.605 78.1129 181.099 77.7289 180.672C77.3449 180.235 76.8595 180.016 76.2729 180.016C75.4729 180.016 74.8489 180.331 74.4009 180.96V183.408C74.8489 184.037 75.4729 184.352 76.2729 184.352ZM89.4789 181.92C89.4789 182.293 89.4629 182.587 89.4309 182.8H83.8309C84.0229 183.835 84.6682 184.352 85.7669 184.352C86.3429 184.352 86.7482 184.208 86.9829 183.92H89.3029C89.0469 184.635 88.5989 185.195 87.9589 185.6C87.3295 185.995 86.5935 186.192 85.7509 186.192C84.5455 186.192 83.5642 185.813 82.8069 185.056C82.0602 184.299 81.6869 183.344 81.6869 182.192C81.6869 181.04 82.0549 180.085 82.7909 179.328C83.5269 178.56 84.4709 178.176 85.6229 178.176C86.7535 178.176 87.6762 178.523 88.3909 179.216C89.1162 179.899 89.4789 180.8 89.4789 181.92ZM85.6389 179.952C84.6895 179.952 84.1029 180.427 83.8789 181.376H87.3509C87.2442 180.427 86.6735 179.952 85.6389 179.952ZM93.0728 179.248C93.7768 178.576 94.6781 178.24 95.7768 178.24V180.224C94.6034 180.288 93.7021 180.672 93.0728 181.376V186H90.9768V178.368H93.0728V179.248ZM98.538 176.88C98.1753 176.88 97.8713 176.763 97.626 176.528C97.3807 176.293 97.258 176 97.258 175.648C97.258 175.285 97.3807 174.987 97.626 174.752C97.8713 174.517 98.1753 174.4 98.538 174.4C98.89 174.4 99.1887 174.523 99.434 174.768C99.69 175.003 99.818 175.296 99.818 175.648C99.818 176 99.69 176.293 99.434 176.528C99.1887 176.763 98.89 176.88 98.538 176.88ZM97.498 178.368H99.594V186H97.498V178.368ZM109.182 181.92C109.182 182.293 109.166 182.587 109.134 182.8H103.534C103.726 183.835 104.371 184.352 105.47 184.352C106.046 184.352 106.451 184.208 106.686 183.92H109.006C108.75 184.635 108.302 185.195 107.662 185.6C107.033 185.995 106.297 186.192 105.454 186.192C104.249 186.192 103.267 185.813 102.51 185.056C101.763 184.299 101.39 183.344 101.39 182.192C101.39 181.04 101.758 180.085 102.494 179.328C103.23 178.56 104.174 178.176 105.326 178.176C106.457 178.176 107.379 178.523 108.094 179.216C108.819 179.899 109.182 180.8 109.182 181.92ZM105.342 179.952C104.393 179.952 103.806 180.427 103.582 181.376H107.054C106.947 180.427 106.377 179.952 105.342 179.952ZM114.984 178.176C116.008 178.176 116.824 178.512 117.432 179.184C118.051 179.845 118.36 180.736 118.36 181.856V186H116.264V181.984C116.264 181.365 116.115 180.896 115.816 180.576C115.517 180.245 115.091 180.08 114.536 180.08C113.917 180.08 113.331 180.405 112.776 181.056V186H110.68V178.368H112.776V178.944C113.416 178.432 114.152 178.176 114.984 178.176ZM123.876 184.288C124.303 184.288 124.665 184.176 124.964 183.952C125.263 183.728 125.455 183.429 125.54 183.056H127.684C127.567 183.973 127.151 184.725 126.436 185.312C125.721 185.899 124.868 186.192 123.876 186.192C122.735 186.192 121.769 185.808 120.98 185.04C120.201 184.272 119.812 183.323 119.812 182.192C119.812 181.061 120.201 180.112 120.98 179.344C121.769 178.565 122.735 178.176 123.876 178.176C124.857 178.176 125.705 178.475 126.42 179.072C127.145 179.659 127.567 180.411 127.684 181.328H125.54C125.455 180.955 125.263 180.656 124.964 180.432C124.665 180.197 124.303 180.08 123.876 180.08C123.289 180.08 122.815 180.283 122.452 180.688C122.089 181.093 121.908 181.595 121.908 182.192C121.908 182.789 122.089 183.291 122.452 183.696C122.815 184.091 123.289 184.288 123.876 184.288ZM130.538 176.88C130.175 176.88 129.871 176.763 129.626 176.528C129.381 176.293 129.258 176 129.258 175.648C129.258 175.285 129.381 174.987 129.626 174.752C129.871 174.517 130.175 174.4 130.538 174.4C130.89 174.4 131.189 174.523 131.434 174.768C131.69 175.003 131.818 175.296 131.818 175.648C131.818 176 131.69 176.293 131.434 176.528C131.189 176.763 130.89 176.88 130.538 176.88ZM129.498 178.368H131.594V186H129.498V178.368ZM138.14 178.176C139.164 178.176 139.98 178.512 140.588 179.184C141.207 179.845 141.516 180.736 141.516 181.856V186H139.42V181.984C139.42 181.365 139.271 180.896 138.972 180.576C138.673 180.245 138.247 180.08 137.692 180.08C137.073 180.08 136.487 180.405 135.932 181.056V186H133.836V178.368H135.932V178.944C136.572 178.432 137.308 178.176 138.14 178.176ZM148.828 178.368H150.924V186.048C150.924 187.221 150.561 188.149 149.836 188.832C149.11 189.525 148.172 189.872 147.02 189.872C145.921 189.872 145.004 189.563 144.268 188.944C143.532 188.336 143.121 187.552 143.036 186.592H145.164C145.217 187.008 145.404 187.339 145.724 187.584C146.054 187.84 146.486 187.968 147.02 187.968C147.553 187.968 147.985 187.797 148.316 187.456C148.657 187.125 148.828 186.656 148.828 186.048V185.072C148.198 185.477 147.468 185.68 146.636 185.68C145.59 185.68 144.694 185.317 143.948 184.592C143.201 183.856 142.828 182.992 142.828 182C142.828 180.88 143.19 179.963 143.916 179.248C144.652 178.533 145.558 178.176 146.636 178.176C147.468 178.176 148.198 178.379 148.828 178.784V178.368ZM146.956 183.872C147.766 183.872 148.39 183.552 148.828 182.912V180.944C148.39 180.304 147.766 179.984 146.956 179.984C146.348 179.984 145.857 180.171 145.484 180.544C145.11 180.907 144.924 181.392 144.924 182C144.924 182.469 145.116 182.901 145.5 183.296C145.894 183.68 146.38 183.872 146.956 183.872ZM162.734 178.368H164.83V186H162.734V185.568C162.094 185.984 161.363 186.192 160.542 186.192C159.486 186.192 158.584 185.803 157.838 185.024C157.102 184.245 156.734 183.301 156.734 182.192C156.734 181.083 157.102 180.139 157.838 179.36C158.584 178.571 159.486 178.176 160.542 178.176C161.363 178.176 162.094 178.384 162.734 178.8V178.368ZM160.862 184.288C161.694 184.288 162.318 183.989 162.734 183.392V180.976C162.318 180.379 161.694 180.08 160.862 180.08C160.275 180.08 159.79 180.288 159.406 180.704C159.022 181.109 158.83 181.605 158.83 182.192C158.83 182.768 159.022 183.264 159.406 183.68C159.79 184.085 160.275 184.288 160.862 184.288ZM171.156 178.176C172.18 178.176 172.996 178.512 173.604 179.184C174.222 179.845 174.532 180.736 174.532 181.856V186H172.436V181.984C172.436 181.365 172.286 180.896 171.988 180.576C171.689 180.245 171.262 180.08 170.708 180.08C170.089 180.08 169.502 180.405 168.948 181.056V186H166.852V178.368H168.948V178.944C169.588 178.432 170.324 178.176 171.156 178.176ZM181.866 176.88C181.503 176.88 181.199 176.763 180.954 176.528C180.709 176.293 180.586 176 180.586 175.648C180.586 175.285 180.709 174.987 180.954 174.752C181.199 174.517 181.503 174.4 181.866 174.4C182.218 174.4 182.517 174.523 182.762 174.768C183.018 175.003 183.146 175.296 183.146 175.648C183.146 176 183.018 176.293 182.762 176.528C182.517 176.763 182.218 176.88 181.866 176.88ZM180.826 178.368H182.922V186H180.826V178.368ZM189.468 178.176C190.492 178.176 191.308 178.512 191.916 179.184C192.535 179.845 192.844 180.736 192.844 181.856V186H190.748V181.984C190.748 181.365 190.599 180.896 190.3 180.576C190.002 180.245 189.575 180.08 189.02 180.08C188.402 180.08 187.815 180.405 187.26 181.056V186H185.164V178.368H187.26V178.944C187.9 178.432 188.636 178.176 189.468 178.176ZM200.136 183.952L200.424 185.856C199.848 186.08 199.235 186.192 198.584 186.192C197.571 186.192 196.782 185.904 196.216 185.328C195.662 184.741 195.384 183.952 195.384 182.96V180.128H193.752V178.368H195.384V175.6H197.48V178.368H200.28V180.128H197.48V182.96C197.48 183.387 197.603 183.712 197.848 183.936C198.094 184.149 198.419 184.256 198.824 184.256C199.208 184.256 199.646 184.155 200.136 183.952ZM209.01 181.92C209.01 182.293 208.994 182.587 208.962 182.8H203.362C203.554 183.835 204.199 184.352 205.298 184.352C205.874 184.352 206.279 184.208 206.514 183.92H208.834C208.578 184.635 208.13 185.195 207.49 185.6C206.861 185.995 206.125 186.192 205.282 186.192C204.077 186.192 203.095 185.813 202.338 185.056C201.591 184.299 201.218 183.344 201.218 182.192C201.218 181.04 201.586 180.085 202.322 179.328C203.058 178.56 204.002 178.176 205.154 178.176C206.285 178.176 207.207 178.523 207.922 179.216C208.647 179.899 209.01 180.8 209.01 181.92ZM205.17 179.952C204.221 179.952 203.634 180.427 203.41 181.376H206.882C206.775 180.427 206.205 179.952 205.17 179.952ZM212.604 179.248C213.308 178.576 214.209 178.24 215.308 178.24V180.224C214.135 180.288 213.233 180.672 212.604 181.376V186H210.508V178.368H212.604V179.248ZM221.093 178.176C222.117 178.176 222.933 178.512 223.541 179.184C224.16 179.845 224.469 180.736 224.469 181.856V186H222.373V181.984C222.373 181.365 222.224 180.896 221.925 180.576C221.627 180.245 221.2 180.08 220.645 180.08C220.027 180.08 219.44 180.405 218.885 181.056V186H216.789V178.368H218.885V178.944C219.525 178.432 220.261 178.176 221.093 178.176ZM231.921 178.368H234.017V186H231.921V185.568C231.281 185.984 230.551 186.192 229.729 186.192C228.673 186.192 227.772 185.803 227.025 185.024C226.289 184.245 225.921 183.301 225.921 182.192C225.921 181.083 226.289 180.139 227.025 179.36C227.772 178.571 228.673 178.176 229.729 178.176C230.551 178.176 231.281 178.384 231.921 178.8V178.368ZM230.049 184.288C230.881 184.288 231.505 183.989 231.921 183.392V180.976C231.505 180.379 230.881 180.08 230.049 180.08C229.463 180.08 228.977 180.288 228.593 180.704C228.209 181.109 228.017 181.605 228.017 182.192C228.017 182.768 228.209 183.264 228.593 183.68C228.977 184.085 229.463 184.288 230.049 184.288ZM236.039 174.64H238.135V186H236.039V174.64ZM245.713 183.36C245.83 184.117 246.38 184.496 247.361 184.496C248.268 184.496 248.721 184.283 248.721 183.856C248.721 183.515 248.46 183.296 247.937 183.2L246.289 182.912C245.638 182.805 245.1 182.571 244.673 182.208C244.246 181.845 244.033 181.333 244.033 180.672C244.033 179.893 244.332 179.28 244.929 178.832C245.526 178.384 246.316 178.16 247.297 178.16C249.409 178.16 250.534 179.019 250.673 180.736H248.737C248.694 180.128 248.214 179.824 247.297 179.824C246.508 179.824 246.113 180.037 246.113 180.464C246.113 180.859 246.428 181.109 247.057 181.216L248.433 181.44C249.958 181.707 250.721 182.448 250.721 183.664C250.721 184.485 250.406 185.115 249.777 185.552C249.148 185.979 248.326 186.192 247.313 186.192C246.865 186.192 246.449 186.144 246.065 186.048C245.681 185.963 245.318 185.819 244.977 185.616C244.636 185.403 244.358 185.104 244.145 184.72C243.942 184.336 243.82 183.877 243.777 183.344L245.713 183.36ZM259.635 181.92C259.635 182.293 259.619 182.587 259.587 182.8H253.987C254.179 183.835 254.824 184.352 255.923 184.352C256.499 184.352 256.904 184.208 257.139 183.92H259.459C259.203 184.635 258.755 185.195 258.115 185.6C257.486 185.995 256.75 186.192 255.907 186.192C254.702 186.192 253.72 185.813 252.963 185.056C252.216 184.299 251.843 183.344 251.843 182.192C251.843 181.04 252.211 180.085 252.947 179.328C253.683 178.56 254.627 178.176 255.779 178.176C256.91 178.176 257.832 178.523 258.547 179.216C259.272 179.899 259.635 180.8 259.635 181.92ZM255.795 179.952C254.846 179.952 254.259 180.427 254.035 181.376H257.507C257.4 180.427 256.83 179.952 255.795 179.952ZM263.229 179.248C263.933 178.576 264.834 178.24 265.933 178.24V180.224C264.76 180.288 263.858 180.672 263.229 181.376V186H261.133V178.368H263.229V179.248ZM273.222 178.368H275.446L271.958 186H270.134L266.646 178.368H268.87L271.046 183.312L273.222 178.368ZM283.479 181.92C283.479 182.293 283.463 182.587 283.431 182.8H277.831C278.023 183.835 278.668 184.352 279.767 184.352C280.343 184.352 280.748 184.208 280.983 183.92H283.303C283.047 184.635 282.599 185.195 281.959 185.6C281.33 185.995 280.594 186.192 279.751 186.192C278.546 186.192 277.564 185.813 276.807 185.056C276.06 184.299 275.687 183.344 275.687 182.192C275.687 181.04 276.055 180.085 276.791 179.328C277.527 178.56 278.471 178.176 279.623 178.176C280.754 178.176 281.676 178.523 282.391 179.216C283.116 179.899 283.479 180.8 283.479 181.92ZM279.639 179.952C278.69 179.952 278.103 180.427 277.879 181.376H281.351C281.244 180.427 280.674 179.952 279.639 179.952ZM287.073 179.248C287.777 178.576 288.678 178.24 289.777 178.24V180.224C288.603 180.288 287.702 180.672 287.073 181.376V186H284.977V178.368H287.073V179.248ZM299.452 178.208C300.508 178.208 301.404 178.597 302.14 179.376C302.887 180.144 303.26 181.083 303.26 182.192C303.26 183.291 302.887 184.229 302.14 185.008C301.404 185.776 300.508 186.16 299.452 186.16C298.62 186.16 297.89 185.957 297.26 185.552V189.728H295.164V178.368H297.26V178.816C297.89 178.411 298.62 178.208 299.452 178.208ZM299.132 184.352C299.719 184.352 300.204 184.139 300.588 183.712C300.972 183.285 301.164 182.779 301.164 182.192C301.164 181.605 300.972 181.099 300.588 180.672C300.204 180.235 299.719 180.016 299.132 180.016C298.332 180.016 297.708 180.331 297.26 180.96V183.408C297.708 184.037 298.332 184.352 299.132 184.352ZM306.854 179.248C307.558 178.576 308.459 178.24 309.558 178.24V180.224C308.385 180.288 307.483 180.672 306.854 181.376V186H304.758V178.368H306.854V179.248ZM314.423 178.176C315.585 178.176 316.551 178.555 317.319 179.312C318.087 180.069 318.471 181.029 318.471 182.192C318.471 183.355 318.087 184.315 317.319 185.072C316.551 185.819 315.585 186.192 314.423 186.192C313.249 186.192 312.279 185.819 311.511 185.072C310.743 184.315 310.359 183.355 310.359 182.192C310.359 181.029 310.743 180.069 311.511 179.312C312.279 178.555 313.249 178.176 314.423 178.176ZM312.999 183.696C313.361 184.091 313.836 184.288 314.423 184.288C315.009 184.288 315.479 184.091 315.831 183.696C316.193 183.301 316.375 182.8 316.375 182.192C316.375 181.595 316.193 181.093 315.831 180.688C315.468 180.283 314.999 180.08 314.423 180.08C313.836 180.08 313.361 180.283 312.999 180.688C312.636 181.093 312.455 181.595 312.455 182.192C312.455 182.8 312.636 183.301 312.999 183.696ZM324.327 178.176C325.383 178.176 326.279 178.565 327.015 179.344C327.762 180.123 328.135 181.067 328.135 182.176C328.135 183.285 327.762 184.235 327.015 185.024C326.279 185.803 325.383 186.192 324.327 186.192C323.506 186.192 322.775 185.984 322.135 185.568V186H320.039V174.64H322.135V178.8C322.775 178.384 323.506 178.176 324.327 178.176ZM324.007 184.288C324.594 184.288 325.079 184.085 325.463 183.68C325.847 183.264 326.039 182.763 326.039 182.176C326.039 181.6 325.847 181.109 325.463 180.704C325.079 180.288 324.594 180.08 324.007 180.08C323.175 180.08 322.551 180.379 322.135 180.976V183.392C322.551 183.989 323.175 184.288 324.007 184.288ZM329.711 174.64H331.807V186H329.711V174.64ZM341.166 181.92C341.166 182.293 341.15 182.587 341.118 182.8H335.518C335.71 183.835 336.356 184.352 337.454 184.352C338.03 184.352 338.436 184.208 338.67 183.92H340.99C340.734 184.635 340.286 185.195 339.646 185.6C339.017 185.995 338.281 186.192 337.438 186.192C336.233 186.192 335.252 185.813 334.494 185.056C333.748 184.299 333.374 183.344 333.374 182.192C333.374 181.04 333.742 180.085 334.478 179.328C335.214 178.56 336.158 178.176 337.31 178.176C338.441 178.176 339.364 178.523 340.078 179.216C340.804 179.899 341.166 180.8 341.166 181.92ZM337.326 179.952C336.377 179.952 335.79 180.427 335.566 181.376H339.038C338.932 180.427 338.361 179.952 337.326 179.952ZM351.912 178.176C352.872 178.176 353.672 178.517 354.312 179.2C354.963 179.872 355.288 180.757 355.288 181.856V186H353.192V181.984C353.192 181.365 353.043 180.896 352.744 180.576C352.446 180.245 352.019 180.08 351.464 180.08C350.867 180.08 350.36 180.373 349.944 180.96C349.998 181.28 350.024 181.579 350.024 181.856V186H347.928V181.984C347.928 181.365 347.779 180.896 347.48 180.576C347.182 180.245 346.755 180.08 346.2 180.08C345.678 180.08 345.198 180.373 344.76 180.96V186H342.664V178.368H344.76V178.848C345.24 178.4 345.87 178.176 346.648 178.176C347.63 178.176 348.446 178.528 349.096 179.232C349.512 178.859 349.934 178.592 350.36 178.432C350.787 178.261 351.304 178.176 351.912 178.176ZM358.828 185.76C358.582 185.995 358.284 186.112 357.932 186.112C357.58 186.112 357.281 185.995 357.036 185.76C356.79 185.525 356.668 185.232 356.668 184.88C356.668 184.539 356.79 184.251 357.036 184.016C357.281 183.781 357.58 183.664 357.932 183.664C358.284 183.664 358.582 183.781 358.828 184.016C359.084 184.251 359.212 184.539 359.212 184.88C359.212 185.232 359.084 185.525 358.828 185.76ZM13.312 194.12C14.6133 194.12 15.6587 194.472 16.448 195.176C17.248 195.869 17.648 196.787 17.648 197.928C17.648 199.144 17.2213 200.12 16.368 200.856C15.5147 201.592 14.3893 201.96 12.992 201.96H11.296V205H9.12V194.12H13.312ZM13.232 199.96C13.9147 199.96 14.464 199.773 14.88 199.4C15.296 199.027 15.504 198.536 15.504 197.928C15.504 197.395 15.296 196.963 14.88 196.632C14.464 196.291 13.9147 196.12 13.232 196.12H11.296V199.96H13.232ZM19.0236 193.64H21.1196V205H19.0236V193.64ZM30.4789 200.92C30.4789 201.293 30.4629 201.587 30.4309 201.8H24.8309C25.0229 202.835 25.6682 203.352 26.7669 203.352C27.3429 203.352 27.7482 203.208 27.9829 202.92H30.3029C30.0469 203.635 29.5989 204.195 28.9589 204.6C28.3295 204.995 27.5935 205.192 26.7509 205.192C25.5455 205.192 24.5642 204.813 23.8069 204.056C23.0602 203.299 22.6869 202.344 22.6869 201.192C22.6869 200.04 23.0549 199.085 23.7909 198.328C24.5269 197.56 25.4709 197.176 26.6229 197.176C27.7535 197.176 28.6762 197.523 29.3909 198.216C30.1162 198.899 30.4789 199.8 30.4789 200.92ZM26.6389 198.952C25.6895 198.952 25.1029 199.427 24.8789 200.376H28.3509C28.2442 199.427 27.6735 198.952 26.6389 198.952ZM37.765 197.368H39.861V205H37.765V204.568C37.125 204.984 36.3943 205.192 35.573 205.192C34.517 205.192 33.6157 204.803 32.869 204.024C32.133 203.245 31.765 202.301 31.765 201.192C31.765 200.083 32.133 199.139 32.869 198.36C33.6157 197.571 34.517 197.176 35.573 197.176C36.3943 197.176 37.125 197.384 37.765 197.8V197.368ZM35.893 203.288C36.725 203.288 37.349 202.989 37.765 202.392V199.976C37.349 199.379 36.725 199.08 35.893 199.08C35.3063 199.08 34.821 199.288 34.437 199.704C34.053 200.109 33.861 200.605 33.861 201.192C33.861 201.768 34.053 202.264 34.437 202.68C34.821 203.085 35.3063 203.288 35.893 203.288ZM43.291 202.36C43.4083 203.117 43.9577 203.496 44.939 203.496C45.8457 203.496 46.299 203.283 46.299 202.856C46.299 202.515 46.0377 202.296 45.515 202.2L43.867 201.912C43.2163 201.805 42.6777 201.571 42.251 201.208C41.8243 200.845 41.611 200.333 41.611 199.672C41.611 198.893 41.9097 198.28 42.507 197.832C43.1043 197.384 43.8937 197.16 44.875 197.16C46.987 197.16 48.1123 198.019 48.251 199.736H46.315C46.2723 199.128 45.7923 198.824 44.875 198.824C44.0857 198.824 43.691 199.037 43.691 199.464C43.691 199.859 44.0057 200.109 44.635 200.216L46.011 200.44C47.5363 200.707 48.299 201.448 48.299 202.664C48.299 203.485 47.9843 204.115 47.355 204.552C46.7257 204.979 45.9043 205.192 44.891 205.192C44.443 205.192 44.027 205.144 43.643 205.048C43.259 204.963 42.8963 204.819 42.555 204.616C42.2137 204.403 41.9363 204.104 41.723 203.72C41.5203 203.336 41.3977 202.877 41.355 202.344L43.291 202.36ZM57.2133 200.92C57.2133 201.293 57.1973 201.587 57.1653 201.8H51.5653C51.7573 202.835 52.4026 203.352 53.5013 203.352C54.0773 203.352 54.4826 203.208 54.7173 202.92H57.0373C56.7813 203.635 56.3333 204.195 55.6933 204.6C55.0639 204.995 54.3279 205.192 53.4852 205.192C52.2799 205.192 51.2986 204.813 50.5413 204.056C49.7946 203.299 49.4213 202.344 49.4213 201.192C49.4213 200.04 49.7893 199.085 50.5253 198.328C51.2613 197.56 52.2053 197.176 53.3573 197.176C54.4879 197.176 55.4106 197.523 56.1253 198.216C56.8506 198.899 57.2133 199.8 57.2133 200.92ZM53.3733 198.952C52.4239 198.952 51.8373 199.427 51.6133 200.376H55.0853C54.9786 199.427 54.4079 198.952 53.3733 198.952ZM68.4956 202.952L68.7836 204.856C68.2076 205.08 67.5943 205.192 66.9436 205.192C65.9303 205.192 65.141 204.904 64.5756 204.328C64.021 203.741 63.7436 202.952 63.7436 201.96V199.128H62.1116V197.368H63.7436V194.6H65.8396V197.368H68.6396V199.128H65.8396V201.96C65.8396 202.387 65.9623 202.712 66.2076 202.936C66.453 203.149 66.7783 203.256 67.1836 203.256C67.5676 203.256 68.005 203.155 68.4956 202.952ZM72.354 198.248C73.058 197.576 73.9593 197.24 75.058 197.24V199.224C73.8847 199.288 72.9833 199.672 72.354 200.376V205H70.258V197.368H72.354V198.248ZM82.8913 197.352H85.0993L80.2193 208.712H78.0113L79.6113 204.968L75.7713 197.352H78.0113L80.5873 202.728L82.8913 197.352ZM94.8588 197.368H96.9548V205H94.8588V204.568C94.2188 204.984 93.4881 205.192 92.6668 205.192C91.6108 205.192 90.7094 204.803 89.9628 204.024C89.2268 203.245 88.8588 202.301 88.8588 201.192C88.8588 200.083 89.2268 199.139 89.9628 198.36C90.7094 197.571 91.6108 197.176 92.6668 197.176C93.4881 197.176 94.2188 197.384 94.8588 197.8V197.368ZM92.9868 203.288C93.8188 203.288 94.4428 202.989 94.8588 202.392V199.976C94.4428 199.379 93.8188 199.08 92.9868 199.08C92.4001 199.08 91.9148 199.288 91.5308 199.704C91.1468 200.109 90.9548 200.605 90.9548 201.192C90.9548 201.768 91.1468 202.264 91.5308 202.68C91.9148 203.085 92.4001 203.288 92.9868 203.288ZM104.609 197.368H106.705V205.048C106.705 206.221 106.342 207.149 105.617 207.832C104.891 208.525 103.953 208.872 102.801 208.872C101.702 208.872 100.785 208.563 100.049 207.944C99.3128 207.336 98.9021 206.552 98.8168 205.592H100.945C100.998 206.008 101.185 206.339 101.505 206.584C101.835 206.84 102.267 206.968 102.801 206.968C103.334 206.968 103.766 206.797 104.097 206.456C104.438 206.125 104.609 205.656 104.609 205.048V204.072C103.979 204.477 103.249 204.68 102.417 204.68C101.371 204.68 100.475 204.317 99.7288 203.592C98.9821 202.856 98.6088 201.992 98.6088 201C98.6088 199.88 98.9714 198.963 99.6968 198.248C100.433 197.533 101.339 197.176 102.417 197.176C103.249 197.176 103.979 197.379 104.609 197.784V197.368ZM102.737 202.872C103.547 202.872 104.171 202.552 104.609 201.912V199.944C104.171 199.304 103.547 198.984 102.737 198.984C102.129 198.984 101.638 199.171 101.265 199.544C100.891 199.907 100.705 200.392 100.705 201C100.705 201.469 100.897 201.901 101.281 202.296C101.675 202.68 102.161 202.872 102.737 202.872ZM114.281 197.368H116.377V205H114.281V204.568C113.641 204.984 112.91 205.192 112.089 205.192C111.033 205.192 110.131 204.803 109.385 204.024C108.649 203.245 108.281 202.301 108.281 201.192C108.281 200.083 108.649 199.139 109.385 198.36C110.131 197.571 111.033 197.176 112.089 197.176C112.91 197.176 113.641 197.384 114.281 197.8V197.368ZM112.409 203.288C113.241 203.288 113.865 202.989 114.281 202.392V199.976C113.865 199.379 113.241 199.08 112.409 199.08C111.822 199.08 111.337 199.288 110.953 199.704C110.569 200.109 110.377 200.605 110.377 201.192C110.377 201.768 110.569 202.264 110.953 202.68C111.337 203.085 111.822 203.288 112.409 203.288ZM119.679 195.88C119.316 195.88 119.012 195.763 118.767 195.528C118.521 195.293 118.399 195 118.399 194.648C118.399 194.285 118.521 193.987 118.767 193.752C119.012 193.517 119.316 193.4 119.679 193.4C120.031 193.4 120.329 193.523 120.575 193.768C120.831 194.003 120.959 194.296 120.959 194.648C120.959 195 120.831 195.293 120.575 195.528C120.329 195.763 120.031 195.88 119.679 195.88ZM118.639 197.368H120.735V205H118.639V197.368ZM127.281 197.176C128.305 197.176 129.121 197.512 129.729 198.184C130.347 198.845 130.657 199.736 130.657 200.856V205H128.561V200.984C128.561 200.365 128.411 199.896 128.113 199.576C127.814 199.245 127.387 199.08 126.833 199.08C126.214 199.08 125.627 199.405 125.073 200.056V205H122.977V197.368H125.073V197.944C125.713 197.432 126.449 197.176 127.281 197.176ZM136.711 193.64H138.807V205H136.711V193.64ZM146.374 197.368H148.47V205H146.374V204.568C145.734 204.984 145.004 205.192 144.182 205.192C143.126 205.192 142.225 204.803 141.478 204.024C140.742 203.245 140.374 202.301 140.374 201.192C140.374 200.083 140.742 199.139 141.478 198.36C142.225 197.571 143.126 197.176 144.182 197.176C145.004 197.176 145.734 197.384 146.374 197.8V197.368ZM144.502 203.288C145.334 203.288 145.958 202.989 146.374 202.392V199.976C145.958 199.379 145.334 199.08 144.502 199.08C143.916 199.08 143.43 199.288 143.046 199.704C142.662 200.109 142.47 200.605 142.47 201.192C142.47 201.768 142.662 202.264 143.046 202.68C143.43 203.085 143.916 203.288 144.502 203.288ZM155.964 202.952L156.252 204.856C155.676 205.08 155.063 205.192 154.412 205.192C153.399 205.192 152.61 204.904 152.044 204.328C151.49 203.741 151.212 202.952 151.212 201.96V199.128H149.58V197.368H151.212V194.6H153.308V197.368H156.108V199.128H153.308V201.96C153.308 202.387 153.431 202.712 153.676 202.936C153.922 203.149 154.247 203.256 154.652 203.256C155.036 203.256 155.474 203.155 155.964 202.952ZM164.838 200.92C164.838 201.293 164.822 201.587 164.79 201.8H159.19C159.382 202.835 160.028 203.352 161.126 203.352C161.702 203.352 162.108 203.208 162.342 202.92H164.662C164.406 203.635 163.958 204.195 163.318 204.6C162.689 204.995 161.953 205.192 161.11 205.192C159.905 205.192 158.924 204.813 158.166 204.056C157.42 203.299 157.046 202.344 157.046 201.192C157.046 200.04 157.414 199.085 158.15 198.328C158.886 197.56 159.83 197.176 160.982 197.176C162.113 197.176 163.036 197.523 163.75 198.216C164.476 198.899 164.838 199.8 164.838 200.92ZM160.998 198.952C160.049 198.952 159.462 199.427 159.238 200.376H162.71C162.604 199.427 162.033 198.952 160.998 198.952ZM168.432 198.248C169.136 197.576 170.037 197.24 171.136 197.24V199.224C169.963 199.288 169.061 199.672 168.432 200.376V205H166.336V197.368H168.432V198.248ZM173.296 204.76C173.051 204.995 172.752 205.112 172.4 205.112C172.048 205.112 171.75 204.995 171.504 204.76C171.259 204.525 171.136 204.232 171.136 203.88C171.136 203.539 171.259 203.251 171.504 203.016C171.75 202.781 172.048 202.664 172.4 202.664C172.752 202.664 173.051 202.781 173.296 203.016C173.552 203.251 173.68 203.539 173.68 203.88C173.68 204.232 173.552 204.525 173.296 204.76Z" fill="#DBDBDB"/>
<defs>
<filter id="filter0_di_5004_23768" x="0.799805" y="0.568359" width="205.109" height="91.584" filterUnits="userSpaceOnUse" color-interpolation-filters="sRGB">
<feFlood flood-opacity="0" result="BackgroundImageFix"/>
<feColorMatrix in="SourceAlpha" type="matrix" values="0 0 0 0 0 0 0 0 0 0 0 0 0 0 0 0 0 0 127 0" result="hardAlpha"/>
<feOffset dy="3"/>
<feGaussianBlur stdDeviation="6"/>
<feComposite in2="hardAlpha" operator="out"/>
<feColorMatrix type="matrix" values="0 0 0 0 0.176471 0 0 0 0 0.462745 0 0 0 0 0.972549 0 0 0 0.1 0"/>
<feBlend mode="normal" in2="BackgroundImageFix" result="effect1_dropShadow_5004_23768"/>
<feBlend mode="normal" in="SourceGraphic" in2="effect1_dropShadow_5004_23768" result="shape"/>
<feColorMatrix in="SourceAlpha" type="matrix" values="0 0 0 0 0 0 0 0 0 0 0 0 0 0 0 0 0 0 127 0" result="hardAlpha"/>
<feOffset dy="3"/>
<feGaussianBlur stdDeviation="2"/>
<feComposite in2="hardAlpha" operator="arithmetic" k2="-1" k3="1"/>
<feColorMatrix type="matrix" values="0 0 0 0 0.176471 0 0 0 0 0.462745 0 0 0 0 0.972549 0 0 0 0.12 0"/>
<feBlend mode="normal" in2="shape" result="effect2_innerShadow_5004_23768"/>
</filter>
</defs>
</svg>
