<svg id="Layer_1" data-name="Layer 1" xmlns="http://www.w3.org/2000/svg" viewBox="0 0 172.69 173.86"><defs><style>.cls-1{fill:#282828;}.cls-2{fill:#545454;}.cls-3{fill:#292929;}.cls-4{opacity:0.7;}.cls-5{fill:#ffffff;}.cls-6{fill:#dfdfdf;}.cls-7{fill:silver;}.cls-8{fill:#bfbfbf;}.cls-9{fill:#6e6e6e;}.cls-10{fill:#474747;}</style></defs><polygon class="cls-1" points="0 173.35 2.14 173.35 2.14 157.56 0 158.22 0 173.35"/><polygon class="cls-1" points="18.98 168.8 7.94 157.23 7.94 173.35 10.08 173.35 10.08 162.47 21.12 173.95 21.12 157.6 18.98 158.26 18.98 168.8"/><polygon class="cls-1" points="25.73 159.83 30.97 159.83 30.97 173.35 33.11 173.35 33.11 159.83 37.68 159.83 38.35 157.84 26.41 157.84 25.73 159.83"/><polygon class="cls-1" points="52.13 159.77 52.8 157.78 43.01 157.78 43.01 173.35 52.13 173.35 52.8 171.36 45.15 171.36 45.15 166.59 50.81 166.59 51.48 164.62 45.15 164.62 45.15 159.77 52.13 159.77"/><polygon class="cls-1" points="59.17 157.52 57.04 158.18 57.04 173.35 66.16 173.35 66.83 171.38 59.17 171.38 59.17 157.52"/><polygon class="cls-1" points="73.62 157.52 71.48 158.18 71.48 173.35 80.6 173.35 81.28 171.38 73.62 171.38 73.62 157.52"/><polygon class="cls-1" points="85.93 173.35 88.07 173.35 88.07 157.56 85.93 158.22 85.93 173.35"/><path class="cls-1" d="M101.14,167.85h4v2.41a5.89,5.89,0,0,1-3.8,1.42,6.1,6.1,0,0,1-.06-12.19,5.88,5.88,0,0,1,4.58,2.17l.46.63v-3.08l-.1-.08a7.94,7.94,0,0,0-4.94-1.65,8.11,8.11,0,0,0,.06,16.21h.12a8.16,8.16,0,0,0,5.78-2.56l.06-.07v-5.2h-5.49Z"/><polygon class="cls-1" points="121.6 159.77 122.27 157.78 112.48 157.78 112.48 173.35 121.6 173.35 122.27 171.36 114.61 171.36 114.61 166.59 120.27 166.59 120.95 164.62 114.61 164.62 114.61 159.77 121.6 159.77"/><polygon class="cls-1" points="137.55 168.8 126.5 157.23 126.5 173.35 128.64 173.35 128.64 162.47 139.69 173.95 139.69 157.6 137.55 158.26 137.55 168.8"/><path class="cls-1" d="M152.92,157.48a8.11,8.11,0,0,0,0,16.21H153a8.19,8.19,0,0,0,4.57-1.5l.1-.07v-3l-.44.55a5.84,5.84,0,0,1-4.34,2,6.1,6.1,0,0,1,0-12.19,5.89,5.89,0,0,1,4.36,2l.44.57v-3l-.1-.07A8.21,8.21,0,0,0,152.92,157.48Z"/><polygon class="cls-1" points="165.03 166.59 170.69 166.59 171.37 164.62 165.03 164.62 165.03 159.77 172.02 159.77 172.69 157.78 162.9 157.78 162.9 173.35 172.02 173.35 172.69 171.36 165.03 171.36 165.03 166.59"/><polygon class="cls-2" points="67.68 127.32 50.37 117.91 50.37 113.86 94.72 99.9 103.75 87.84 103.75 1.46 108.1 0 125.42 9.38 125.42 98.43 114.83 112.46 67.68 127.32"/><polygon class="cls-3" points="103.75 1.46 121.06 10.84 121.06 97.19 112.03 109.25 67.68 123.27 67.68 127.32 50.37 117.91 50.37 113.86 94.72 99.9 103.75 87.84 103.75 1.46"/><g class="cls-4"><g class="cls-4"><circle class="cls-5" cx="95.1" cy="107.79" r="1.19"/></g><g class="cls-4"><circle class="cls-5" cx="105.79" cy="99.32" r="1.16"/></g><g class="cls-4"><circle class="cls-5" cx="112.4" cy="20.6" r="1.16"/></g></g><polygon class="cls-6" points="115.95 31.06 89.32 66.25 116.04 57.71 115.95 31.06"/><polygon class="cls-7" points="115.95 31.06 103.43 22.67 76.79 57.86 89.32 66.25 115.95 31.06"/><path class="cls-8" d="M64.22,31.73V73.51l35,21.9V53.64Zm3.06,40.09V37.25L96.12,55.33V89.89Z"/><polygon class="cls-9" points="60.34 104.54 60.34 75.56 89.32 66.25 60.34 104.54"/><polygon class="cls-10" points="60.34 104.54 47.81 96.15 47.81 67.17 76.79 57.86 89.32 66.25 60.34 75.56 60.34 104.54"/></svg>
