<svg xmlns="http://www.w3.org/2000/svg" viewBox="0 0 670.92 129.45"><defs><style>.cls-1{fill:#002f77;}.cls-2{fill:#164abe;}.cls-3{opacity:0.4;}.cls-4{fill:#ffffff;}.cls-5{fill:#6cddff;}.cls-6{fill:#3babff;}.cls-7{fill:#164abe;}.cls-8{fill:#2d76f8;}.cls-9{fill:#f3b95b;}.cls-10{fill:#ffe953;}</style></defs><g id="레이어_2" data-name="레이어 2"><g id="Layer_1" data-name="Layer 1"><polygon class="cls-1" points="85.88 4.51 84.64 3.83 83.11 2.98 77.69 0 77.69 91.33 77.71 91.34 147.03 129.45 147.03 124.77 147.03 123.48 147.03 121.43 147.03 69.54 147.03 38.13 85.88 4.51"/><polygon class="cls-2" points="83.11 89.63 83.11 2.98 77.69 0 77.69 91.33 77.71 91.34 147.03 129.45 147.03 124.77 83.14 89.64 83.11 89.63"/><g class="cls-3"><circle class="cls-4" cx="126.64" cy="63.39" r="1.33"/><circle class="cls-4" cx="138.02" cy="51.8" r="1.33"/><circle class="cls-4" cx="99.85" cy="23" r="1.33"/></g><polygon class="cls-5" points="0.02 26.01 37.28 27.16 135.47 81.22 127.83 96.39 0.02 26.01"/><polygon class="cls-6" points="0.02 26.01 127.83 96.39 127.81 101.17 0 30.79 0.02 26.01"/><polygon class="cls-7" points="28 55.91 28.02 71.28 40 77.86 102.38 58.24 102.38 42.69 28 55.91"/><polygon class="cls-8" points="28 55.91 39.97 62.49 102.38 42.69 90.41 36.28 28 55.91"/><polygon class="cls-5" points="64.17 61.34 86.44 54.22 135.47 81.22 127.83 96.39 64.17 61.34"/><polygon class="cls-9" points="102.41 58.23 117.91 53.48 102.38 42.69 102.41 58.23"/><polygon class="cls-6" points="64.17 61.34 127.83 96.39 127.81 101.17 64.15 66.12 64.17 61.34"/><polygon class="cls-8" points="0.02 26.01 14.76 34.13 37.28 27.16 0.02 26.01"/><polygon class="cls-10" points="135.44 81.2 127.83 96.39 113.25 88.36 135.44 81.2"/><polygon class="cls-9" points="127.83 96.39 113.24 88.36 113.22 93.14 127.81 101.17 135.45 86 135.47 81.22 127.83 96.39"/><polygon class="cls-7" points="14.75 34.13 14.73 38.91 0 30.79 0.02 26.01 14.75 34.13"/><path class="cls-4" d="M211.19,43.08V68.24c0,.53,0,1.07,0,1.61,0,4.46.08,9.5-2.25,11.85a4.88,4.88,0,0,1-3.67,1.36c-3.48,0-5.12-.84-6.66-2.21l-.65-.57v6.83l.21.11a12.7,12.7,0,0,0,6.23,1.48c4.14,0,7.12-1,9.11-3,3.4-3.41,3.39-9.4,3.37-15.73V41.35Z"/><path class="cls-4" d="M267.86,41a23.7,23.7,0,1,0,23.7,23.7A23.72,23.72,0,0,0,267.86,41Zm0,42.13a18.44,18.44,0,1,1,17.93-18.43A18.21,18.21,0,0,1,267.86,83.12Z"/><polygon class="cls-4" points="351.61 75.12 318.82 40.78 318.82 87.39 324.46 87.39 324.46 54.56 357.25 88.66 357.25 41.47 351.61 43.21 351.61 75.12"/><polygon class="cls-4" points="443.56 47.25 458.99 47.25 458.99 87.39 464.63 87.39 464.63 47.25 478.29 47.25 480.05 42.05 445.32 42.05 443.56 47.25"/><polygon class="cls-4" points="537.14 62.31 511.56 62.31 511.56 41.35 505.92 43.09 505.92 87.39 511.56 87.39 511.56 67.51 537.14 67.51 537.14 87.39 542.78 87.39 542.78 41.35 537.14 43.09 537.14 62.31"/><polygon class="cls-4" points="665.28 75.12 632.5 40.78 632.5 87.39 638.14 87.39 638.14 54.56 670.92 88.66 670.92 41.47 665.28 43.21 665.28 75.12"/><polygon class="cls-4" points="401.98 40.75 382.32 87.39 388.02 87.39 401.98 54.22 415.93 87.39 421.64 87.39 401.98 40.75"/><polygon class="cls-4" points="587.64 40.75 567.98 87.39 573.69 87.39 587.64 54.22 601.59 87.39 607.3 87.39 587.64 40.75"/></g></g></svg>
