<svg xmlns="http://www.w3.org/2000/svg" viewBox="0 0 341.01 110.25"><defs><style>.cls-1{fill:#282828;}.cls-2{fill:#545454;}.cls-3{fill:#292929;}.cls-4{opacity:0.7;}.cls-5{fill:#ffffff;}.cls-6{fill:#474747;}.cls-7{fill:#6e6e6e;}.cls-8{fill:#939393;}.cls-9{fill:#bfbfbf;}.cls-10{fill:silver;}.cls-11{fill:#dfdfdf;}</style></defs><g id="레이어_2" data-name="레이어 2"><g id="Layer_1" data-name="Layer 1"><polygon class="cls-1" points="127.74 62.92 113.56 35.33 105.67 74.7 110.9 74.7 115.56 49.91 127.74 74.28 139.97 49.91 144.53 74.7 149.76 74.7 141.98 35.22 127.74 62.92"/><path class="cls-1" d="M158.62,74.7h5.3l3.42-8.11H183l3.42,8.11h5.3L175.15,35.49Zm22.35-13H169.38L175.16,48Z"/><path class="cls-1" d="M227.45,47.82C227.45,40.54,223,37,213.79,37H202.41V74.7h5.25V58.63h6.67l11.31,16.92,4-3.27L219.89,58C225,56.6,227.45,53.27,227.45,47.82Zm-19.79-6h6.13c5.71,0,8.37,1.89,8.37,6s-2.74,6-8.37,6h-6.13Z"/><polygon class="cls-1" points="268.01 39.86 264.41 36.6 245.68 57.85 245.68 36.33 240.48 37.93 240.48 74.7 245.68 74.7 245.68 65.19 249.02 61.37 265.99 75.44 270.01 72.16 252.47 57.5 268.01 39.86"/><polygon class="cls-1" points="301.85 41.69 303.48 36.85 279.68 36.85 279.68 74.7 301.85 74.7 303.48 69.87 284.87 69.87 284.87 58.27 298.63 58.27 300.27 53.49 284.87 53.49 284.87 41.69 301.85 41.69"/><path class="cls-1" d="M331.24,58c5.09-1.35,7.57-4.68,7.57-10.13,0-7.28-4.47-10.81-13.67-10.81H313.77V74.7H319V58.63h6.67L337,75.55l4-3.27ZM319,41.85h6.13c5.71,0,8.37,1.89,8.37,6s-2.74,6-8.37,6H319Z"/><polygon class="cls-2" points="16.51 110.25 1.52 102.1 1.52 98.59 39.93 86.51 47.74 76.07 47.74 1.27 51.52 0 66.51 8.12 66.51 85.23 57.34 97.38 16.51 110.25"/><polygon class="cls-3" points="47.74 1.27 62.73 9.39 62.73 84.16 54.92 94.6 16.51 106.74 16.51 110.25 1.52 102.1 1.52 98.59 39.93 86.51 47.74 76.07 47.74 1.27"/><g class="cls-4"><g class="cls-4"><circle class="cls-5" cx="40.26" cy="93.33" r="1.03"/></g><g class="cls-4"><circle class="cls-5" cx="49.51" cy="86" r="1.01"/></g><g class="cls-4"><circle class="cls-5" cx="55.24" cy="17.84" r="1"/></g></g><polygon class="cls-6" points="15.17 54.86 0 59.73 0 74.9 12.92 83.58 28.09 78.7 28.09 63.53 15.17 54.86"/><polygon class="cls-7" points="12.92 68.4 12.92 83.58 28.09 78.7 28.09 63.53 12.92 68.4"/><polygon class="cls-8" points="15.17 8.61 0 13.49 0 28.66 12.92 37.33 28.09 32.46 28.09 17.29 15.17 8.61"/><polygon class="cls-9" points="12.92 22.16 12.92 37.33 28.09 32.46 28.09 17.29 12.92 22.16"/><polygon class="cls-10" points="43.01 34 55.93 42.67 55.93 57.84 40.76 62.71 27.84 54.04 27.84 38.87 43.01 34"/><polygon class="cls-11" points="40.76 47.54 40.76 62.71 55.93 57.84 55.93 42.67 40.76 47.54"/></g></g></svg>
