<svg xmlns="http://www.w3.org/2000/svg" viewBox="0 0 340.66 110.25"><defs><style>.cls-1{fill:#002e77;}.cls-2{fill:#164abe;}.cls-3{fill:#002f77;}.cls-4{opacity:0.7;}.cls-5{fill:#ffffff;}.cls-6{fill:#164abe;}.cls-7{fill:#2d76f8;}.cls-8{fill:#3babff;}.cls-9{fill:#6cddff;}.cls-10{fill:#f3b95b;}.cls-11{fill:#ffe953;}</style></defs><g id="레이어_2" data-name="레이어 2"><g id="Layer_1" data-name="Layer 1"><polygon class="cls-1" points="127.4 62.92 113.21 35.33 105.33 74.7 110.55 74.7 115.21 49.91 127.4 74.28 139.63 49.91 144.19 74.7 149.41 74.7 141.63 35.22 127.4 62.92"/><path class="cls-1" d="M158.28,74.7h5.3L167,66.59h15.62L186,74.7h5.3L174.81,35.49Zm22.35-13H169L174.81,48Z"/><path class="cls-1" d="M227.11,47.82c0-7.28-4.47-10.81-13.67-10.81H202.07V74.7h5.24V58.63H214L225.3,75.55l4-3.27L219.54,58C224.63,56.6,227.11,53.27,227.11,47.82Zm-19.8-6h6.13c5.71,0,8.37,1.89,8.37,6s-2.74,6-8.37,6h-6.13Z"/><polygon class="cls-1" points="267.67 39.86 264.07 36.6 245.33 57.85 245.33 36.33 240.14 37.93 240.14 74.7 245.33 74.7 245.33 65.19 248.67 61.37 265.64 75.44 269.66 72.16 252.12 57.5 267.67 39.86"/><polygon class="cls-1" points="301.5 41.69 303.13 36.85 279.33 36.85 279.33 74.7 301.5 74.7 303.13 69.87 284.53 69.87 284.53 58.27 298.28 58.27 299.92 53.49 284.53 53.49 284.53 41.69 301.5 41.69"/><path class="cls-1" d="M330.9,58c5.09-1.35,7.56-4.68,7.56-10.13C338.46,40.54,334,37,324.79,37H313.42V74.7h5.25V58.63h6.67l11.31,16.92,4-3.27Zm-12.23-16.1h6.12c5.72,0,8.38,1.89,8.38,6s-2.74,6-8.38,6h-6.12Z"/><polygon class="cls-2" points="16.51 110.25 1.52 102.1 1.52 98.59 39.93 86.51 47.74 76.07 47.74 1.27 51.52 0 66.51 8.12 66.51 85.23 57.34 97.38 16.51 110.25"/><polygon class="cls-3" points="47.74 1.27 62.73 9.39 62.73 84.16 54.92 94.6 16.51 106.74 16.51 110.25 1.52 102.1 1.52 98.59 39.93 86.51 47.74 76.07 47.74 1.27"/><g class="cls-4"><g class="cls-4"><circle class="cls-5" cx="40.26" cy="93.33" r="1.03"/></g><g class="cls-4"><circle class="cls-5" cx="49.51" cy="86" r="1.01"/></g><g class="cls-4"><circle class="cls-5" cx="55.24" cy="17.84" r="1"/></g></g><polygon class="cls-6" points="15.17 54.86 0 59.73 0 74.9 12.92 83.58 28.09 78.7 28.09 63.53 15.17 54.86"/><polygon class="cls-7" points="12.92 68.4 12.92 83.58 28.09 78.7 28.09 63.53 12.92 68.4"/><polygon class="cls-8" points="15.17 8.61 0 13.49 0 28.66 12.92 37.33 28.09 32.46 28.09 17.29 15.17 8.61"/><polygon class="cls-9" points="12.92 22.16 12.92 37.33 28.09 32.46 28.09 17.29 12.92 22.16"/><polygon class="cls-10" points="43.01 34 55.93 42.67 55.93 57.84 40.76 62.71 27.84 54.04 27.84 38.87 43.01 34"/><polygon class="cls-11" points="40.76 47.54 40.76 62.71 55.93 57.84 55.93 42.67 40.76 47.54"/></g></g></svg>
