<svg xmlns="http://www.w3.org/2000/svg" viewBox="0 0 656.7 974.49"><defs><style>.cls-1{fill:#164abe;}.cls-2{fill:#002f77;}.cls-3{opacity:0.7;}.cls-4{fill:#ffffff;}.cls-5{fill:#f3b95b;}.cls-6{fill:#164abe;}.cls-7{fill:#2d76f8;}.cls-8{fill:#ffe953;}.cls-9{fill:#3babff;}.cls-10{fill:#6cddff;}</style></defs><g id="레이어_2" data-name="레이어 2"><g id="Layer_1" data-name="Layer 1"><polygon class="cls-1" points="214.81 974.49 82.3 902.46 82.3 871.41 421.75 764.61 490.84 672.33 490.84 11.19 524.19 0 656.7 71.78 656.7 753.37 575.66 860.72 214.81 974.49"/><polygon class="cls-2" points="490.84 11.19 623.35 82.97 623.35 743.85 554.25 836.13 214.81 943.44 214.81 974.49 82.3 902.46 82.3 871.41 421.75 764.61 490.84 672.33 490.84 11.19"/><g class="cls-3"><g class="cls-3"><circle class="cls-4" cx="424.68" cy="824.96" r="9.08"/></g><g class="cls-3"><circle class="cls-4" cx="506.45" cy="760.17" r="8.89"/></g><g class="cls-3"><circle class="cls-4" cx="557.1" cy="157.7" r="8.84"/></g></g><polygon class="cls-5" points="548.25 340.3 442.31 269.01 294.88 316.25 400.81 387.54 548.25 340.3"/><polygon class="cls-6" points="400.82 682.17 253.38 729.39 147.43 658.1 147.43 216.16 294.88 168.92 400.82 240.21 400.82 682.17"/><polygon class="cls-7" points="253.38 287.45 400.82 240.21 400.81 387.54 548.25 340.3 548.25 487.63 400.81 534.84 400.82 682.17 253.38 729.39 253.39 582.06 105.94 629.27 105.94 481.97 253.39 434.73 253.38 287.45"/><polygon class="cls-8" points="400.81 387.54 400.81 534.84 548.25 487.63 548.25 340.3 400.81 387.54"/><polygon class="cls-9" points="253.39 434.73 147.44 363.44 0 410.68 0 557.98 105.94 629.27 253.39 582.06 253.39 434.73"/><polygon class="cls-10" points="253.39 434.73 253.39 582.06 105.94 629.27 105.94 481.97 253.39 434.73"/></g></g></svg>
