<svg xmlns="http://www.w3.org/2000/svg" width="16" height="16" viewBox="0 0 16 16" fill="none">
  <path d="M12.7613 5.01624L9.65022 1.90513C9.56555 1.82259 9.45179 1.77668 9.33355 1.77735H4.00022C3.76447 1.77735 3.53838 1.871 3.37168 2.0377C3.20498 2.2044 3.11133 2.43049 3.11133 2.66624V12.444C3.11133 12.6798 3.20498 12.9059 3.37168 13.0726C3.53838 13.2393 3.76447 13.3329 4.00022 13.3329H12.0002C12.236 13.3329 12.4621 13.2393 12.6288 13.0726C12.7955 12.9059 12.8891 12.6798 12.8891 12.444V5.33291C12.8898 5.21466 12.8439 5.10091 12.7613 5.01624ZM9.33355 5.33291V2.84957L11.8169 5.33291H9.33355Z" fill="#3E3E3E"/>
</svg>