<svg xmlns="http://www.w3.org/2000/svg" xmlns:xlink="http://www.w3.org/1999/xlink" width="220" height="72" viewBox="0 0 220 72">
    <defs>
        <path id="prefix__a" d="M0 72L219.333 72 219.333 0 0 0z"/>
    </defs>
    <g fill="none" fill-rule="evenodd">
        <path fill="#A6A7A7" d="M70.621 53.37l2.046.629c-.14.59-.354 1.08-.648 1.474-.298.394-.665.693-1.1.892-.437.202-.995.302-1.668.302-.819 0-1.487-.122-2.01-.365-.516-.246-.966-.676-1.344-1.29-.374-.616-.564-1.405-.564-2.363 0-1.28.332-2.267.994-2.952.662-.689 1.6-1.03 2.811-1.03.948 0 1.693.197 2.235.588.542.396.948 1.001 1.21 1.817l-2.064.473c-.068-.24-.145-.414-.227-.523-.127-.179-.287-.323-.475-.422-.187-.1-.397-.147-.63-.147-.526 0-.93.216-1.21.651-.211.32-.315.827-.315 1.52 0 .857.127 1.444.38 1.76.255.316.61.478 1.072.478.445 0 .784-.127 1.01-.38.23-.254.395-.628.497-1.113M74 48.667L76.358 48.667 76.358 51.463 78.948 51.463 78.948 48.667 81.333 48.667 81.333 56.667 78.948 56.667 78.948 53.435 76.358 53.435 76.358 56.667 74 56.667zM87.64 48.667H90v4.683c0 .472-.07.907-.212 1.318-.14.414-.361.775-.663 1.084-.3.31-.617.527-.949.653-.458.174-1.009.262-1.651.262-.374 0-.78-.028-1.224-.081-.436-.051-.804-.16-1.1-.32-.296-.16-.568-.382-.81-.674-.248-.3-.415-.6-.506-.908-.146-.502-.218-.944-.218-1.334v-4.683h2.362v4.799c0 .428.113.763.346 1.004.23.239.55.362.96.362.41 0 .726-.119.957-.358.23-.236.348-.573.348-1.008v-4.8zM91.333 48.667L93.542 48.667 96.422 53.086 96.422 48.667 98.667 48.667 98.667 56.667 96.422 56.667 93.555 52.271 93.555 56.667 91.333 56.667zM104.256 53.747V52.13H108v3.284c-.717.486-1.352.816-1.905.99-.553.175-1.208.263-1.964.263-.931 0-1.69-.158-2.278-.471-.59-.313-1.046-.778-1.368-1.397-.325-.62-.485-1.332-.485-2.131 0-.846.178-1.581.53-2.207.353-.62.876-1.097 1.555-1.42.535-.25 1.247-.374 2.149-.374.866 0 1.517.076 1.946.233.432.154.787.394 1.074.72.282.326.498.737.637 1.24l-2.34.407c-.093-.289-.26-.511-.49-.667-.232-.153-.527-.233-.885-.233-.532 0-.96.18-1.274.546-.319.363-.476.936-.476 1.724 0 .837.16 1.431.48 1.794.317.355.765.536 1.339.536.273 0 .532-.042.776-.114.248-.078.53-.208.849-.388v-.718h-1.614zM111.584 54.952h1.136c.387 0 .659-.073.816-.225.155-.152.238-.355.238-.614 0-.234-.083-.423-.238-.568-.155-.144-.429-.219-.82-.219h-1.132v1.626zm0-3.145h.963c.349 0 .592-.063.725-.195.136-.134.206-.327.206-.576 0-.234-.07-.416-.206-.548-.133-.129-.37-.196-.707-.196h-.98v1.515zm-2.25-3.14h4.174c.695 0 1.228.19 1.603.572.368.383.558.854.558 1.422 0 .475-.131.878-.4 1.217-.177.227-.437.404-.78.534.517.14.9.377 1.147.715.243.334.364.756.364 1.266 0 .414-.086.787-.261 1.114-.174.334-.41.596-.712.789-.186.119-.47.208-.845.257-.504.08-.837.114-1.003.114h-3.846v-8zM121.64 48.667H124v4.683c0 .472-.072.907-.212 1.318-.142.414-.361.775-.663 1.084-.3.31-.618.527-.946.653-.463.174-1.01.262-1.655.262-.37 0-.78-.028-1.217-.081-.441-.051-.809-.16-1.105-.32-.295-.16-.565-.382-.81-.674-.245-.3-.416-.6-.505-.908-.146-.502-.22-.944-.22-1.334v-4.683h2.363v4.799c0 .428.114.763.344 1.004.23.239.552.362.964.362.405 0 .72-.119.952-.358.233-.236.35-.573.35-1.008v-4.8zM126 48.667L128.329 48.667 128.329 51.688 130.774 48.667 133.88 48.667 131.12 51.675 134 56.667 131.127 56.667 129.542 53.396 128.329 54.722 128.329 56.667 126 56.667zM137.333 48.667L144.667 48.667 144.667 50.636 142.206 50.636 142.206 56.667 139.794 56.667 139.794 50.636 137.333 50.636zM145.333 48.667L151.873 48.667 151.873 50.381 147.779 50.381 147.779 51.639 151.596 51.639 151.596 53.264 147.779 53.264 147.779 54.843 152 54.843 152 56.667 145.333 56.667zM158.624 53.37l2.043.629c-.14.59-.354 1.08-.647 1.474-.297.394-.661.693-1.098.892-.44.202-.993.302-1.668.302-.82 0-1.491-.122-2.01-.365-.517-.246-.965-.676-1.345-1.29-.376-.616-.566-1.405-.566-2.363 0-1.28.336-2.267.998-2.952.662-.689 1.597-1.03 2.808-1.03.95 0 1.695.197 2.237.588.543.396.945 1.001 1.21 1.817l-2.066.473c-.069-.24-.145-.414-.225-.523-.127-.179-.287-.323-.477-.422-.187-.1-.395-.147-.629-.147-.526 0-.926.216-1.209.651-.21.32-.314.827-.314 1.52 0 .857.125 1.444.378 1.76.254.316.612.478 1.07.478.448 0 .785-.127 1.014-.38.225-.254.392-.628.496-1.113M161.333 48.667L163.697 48.667 163.697 51.463 166.282 51.463 166.282 48.667 168.667 48.667 168.667 56.667 166.282 56.667 166.282 53.435 163.697 53.435 163.697 56.667 161.333 56.667zM170 48.667L172.205 48.667 175.087 53.086 175.087 48.667 177.333 48.667 177.333 56.667 175.087 56.667 172.223 52.271 172.223 56.667 170 56.667zM181.05 52.682c0 .784.145 1.346.434 1.686.29.345.686.512 1.185.512.514 0 .912-.165 1.198-.502.281-.333.418-.934.418-1.801 0-.73-.145-1.263-.438-1.602-.293-.335-.696-.506-1.199-.506-.482 0-.867.173-1.162.515-.291.344-.436.907-.436 1.698m-2.383-.013c0-1.262.35-2.246 1.055-2.949.701-.705 1.679-1.053 2.935-1.053 1.284 0 2.276.346 2.97 1.037.697.688 1.04 1.657 1.04 2.903 0 .904-.149 1.646-.452 2.23-.304.574-.743 1.026-1.32 1.347-.57.324-1.29.483-2.144.483-.874 0-1.592-.139-2.164-.416-.568-.279-1.035-.718-1.389-1.322-.353-.601-.531-1.352-.531-2.26M190.439 52.07h.6c.467 0 .793-.083.984-.248.186-.165.287-.375.287-.635 0-.248-.084-.46-.25-.635-.161-.17-.472-.26-.927-.26h-.694v1.777zM188 48.666h4.033c.879 0 1.537.21 1.977.637.436.425.657 1.032.657 1.817 0 .81-.242 1.437-.718 1.894-.477.455-1.206.68-2.18.68h-1.33v2.972H188v-8zM198.77 53.608l-.799-2.874-.803 2.874h1.601zm.48 1.736h-2.56l-.372 1.323H194l2.748-8h2.503l2.749 8h-2.38l-.37-1.323zM205.658 51.896h.96c.105 0 .307-.034.607-.107.149-.034.276-.116.373-.248.093-.132.14-.286.14-.457 0-.257-.076-.452-.224-.586-.155-.137-.439-.206-.855-.206h-1v1.604zm-2.325 4.77v-8h3.84c.713 0 1.26.065 1.632.196.377.132.68.373.906.726.232.355.353.789.353 1.296 0 .442-.091.826-.268 1.146-.18.323-.417.583-.728.783-.197.125-.463.234-.804.318.275.096.475.195.599.295.082.065.205.203.369.423.156.21.267.38.318.494l1.117 2.324h-2.604l-1.227-2.447c-.154-.319-.292-.527-.415-.623-.166-.119-.348-.18-.56-.18h-.203v3.25h-2.325zM211.333 48.667L213.665 48.667 213.665 51.688 216.109 48.667 219.213 48.667 216.451 51.675 219.333 56.667 216.461 56.667 214.871 53.396 213.665 54.722 213.665 56.667 211.333 56.667z"/>
        <path fill="#231916" d="M72.645 39.87c-.703.606-1.052 1.339-1.052 2.204 0 .85.35 1.566 1.052 2.16.665.589 1.437.883 2.304.883.84 0 1.592-.294 2.264-.884.698-.593 1.051-1.309 1.051-2.159 0-.865-.353-1.598-1.051-2.203-.672-.577-1.424-.868-2.264-.868-.867 0-1.64.291-2.304.868zm4.184-10.6c.23.472 1.027.813 2.4 1.025 1.052.165 2.632.27 4.747.316v2.23l-.02-.022c-2.161-.032-3.807-.124-4.932-.274-1.951-.276-3.288-.766-4.018-1.477-.742.71-2.104 1.201-4.084 1.477-1.128.15-2.738.242-4.842.274l-.046.021v-2.203c2.194-.047 3.777-.146 4.75-.298 1.356-.197 2.15-.552 2.377-1.069h-7.127v-2.119h7.447v-1.818h3.076v1.818h7.419v2.12h-7.147zm2.77 9.393c.916.953 1.373 2.093 1.373 3.426 0 1.544-.625 2.822-1.871 3.832-1.157.94-2.518 1.412-4.087 1.412-1.643 0-3.043-.472-4.2-1.412-1.246-.996-1.871-2.273-1.871-3.832 0-1.333.454-2.473 1.361-3.426.864-.88 1.964-1.463 3.3-1.749v-.613h-8.27v-2.334h19.333v2.334h-8.294v.636c1.295.27 2.372.847 3.226 1.726z"/>
        <mask id="prefix__b" fill="#ffffff">
            <use xlink:href="#prefix__a"/>
        </mask>
        <path fill="#231916" d="M91.366 31.052h12.603v-1.1H91.366v1.1zm-1.104 2.281c-.533 0-.922-.129-1.165-.39-.272-.273-.412-.73-.412-1.369v-4.907h2.68v1.094h12.605v-1.094h2.676v4.907c0 .639-.136 1.096-.408 1.37-.243.26-.634.389-1.167.389H90.262zm16.384 6.145V46h-2.676v-4.176H88.685v-2.346h7.674v-2.22H88v-2.344h19.333v2.344h-8.357v2.22h7.67zM127.408 46H130V26.667h-2.592V46zm-6.326-13.301h2.084v-6.032h2.563V45.99h-2.563V35.138h-2.084v-2.44zm-6.4 2.373v4.207h7.026v2.349h-8.126c-.534 0-.923-.125-1.171-.367-.277-.257-.411-.69-.411-1.303V26.667h8.771v2.348h-6.089v3.748h5.335v2.31h-5.335zM148.507 28.979L134.407 28.979 134.407 26.667 151.156 26.667 151.156 42.326 152.667 42.326 152.667 44.667 133.333 44.667 133.333 42.326 148.507 42.326 148.507 35.574 134.499 35.574 134.499 33.267 148.507 33.267zM174.745 36.475h-7.103v5.85H176v2.342h-19.333v-2.342h8.355v-5.85h-5.61c-.55 0-.946-.131-1.187-.387-.26-.271-.387-.717-.387-1.336v-8.085h2.706v7.494h14.201v2.314zM182.12 39.285h3.146v-10.27h-3.147v10.27zm5.722 0h5.48V26.667h2.666v6.887h2.679v2.35h-2.68V46h-2.664v-4.366H178v-2.35h1.547V29.017H178v-2.35h11.479v2.35h-1.637v10.269zM215.174 28.979L201.076 28.979 201.076 26.667 217.823 26.667 217.823 42.326 219.333 42.326 219.333 44.667 200 44.667 200 42.326 215.174 42.326 215.174 35.574 201.17 35.574 201.17 33.267 215.174 33.267z" mask="url(#prefix__b)"/>
        <path fill="#45B035" d="M17.048 16.815l.638-.568c.377-.316 1.136-.84 1.136-.84s-.159-.22-.232-.348L12.185 4.011c-.003-.005-.003-.009-.007-.011-1.402.866-2.716 1.863-3.921 2.972L7.11 8.095C2.704 12.688 0 18.909 0 25.758c0 14.126 11.5 25.575 25.68 25.575.109 0 .212-.002.32-.004V38.16c-.108.004-.211.004-.32.004-6.88 0-12.456-5.554-12.456-12.405 0-3.182 1.201-6.082 3.182-8.279l.642-.664z" mask="url(#prefix__b)"/>
        <path fill="#EF8211" d="M23.638 13.333l1.029-.128V0C23.073.057 21.514.244 20 .545l3.51 12.342.128.446zM30.667 13.783l.558.217.253-.416L38 2.854c-1.221-.599-2.496-1.108-3.818-1.52L30.8 13.33l-.133.452zM36 17.847l.12.153s.278-.18.428-.267l10.785-6.238c-.659-.994-1.383-1.94-2.17-2.828l-8.813 8.828c-.121.12-.35.352-.35.352M33.333 15.1l.303.233.346-.347 8.685-8.716c-.918-.828-1.899-1.585-2.933-2.27l-6.151 10.69-.25.41zM27.333 13.223l.747.11.112-.477L31.333.57C30.035.272 28.7.076 27.333 0V13.223zM38 20.667l.456-.141 12.21-3.518c-.407-1.04-.882-2.042-1.422-3.008l-10.848 6.427-.396.24zM20.877 14L22 13.552l-.12-.45L18.455.666c-1.55.459-3.04 1.051-4.454 1.762l6.645 11.182.232.389zM51.333 24c-.077-1.132-.215-2.243-.416-3.333L39.333 24h12z" mask="url(#prefix__b)"/>
        <path fill="#ED7700" d="M23.638 13.333l1.029-.128V0C23.073.057 21.514.244 20 .545l3.51 12.342.128.446zM30.667 13.783l.556.217.255-.416L38 2.854c-1.221-.599-2.496-1.108-3.818-1.52L30.8 13.33l-.133.452zM36 17.847l.12.153s.278-.18.428-.267l10.785-6.238c-.659-.994-1.383-1.94-2.17-2.828l-8.813 8.828c-.121.12-.35.352-.35.352M33.333 15.1l.303.233.346-.347 8.685-8.716c-.918-.828-1.899-1.585-2.933-2.27l-6.151 10.69-.25.41zM27.333 13.223l.747.11.112-.477L31.333.57C30.035.272 28.7.076 27.333 0V13.223zM38 20.667l.456-.141 12.21-3.518c-.407-1.04-.882-2.042-1.422-3.008l-10.848 6.427-.396.24zM20.877 14L22 13.552l-.12-.45L18.455.666c-1.55.459-3.04 1.051-4.454 1.762l6.645 11.182.232.389zM51.333 24c-.077-1.132-.215-2.243-.416-3.333L39.333 24h12z" mask="url(#prefix__b)"/>
        <path fill="#45B035" d="M17.048 16.815l.638-.568c.377-.316 1.136-.84 1.136-.84s-.158-.22-.232-.348L12.185 4.011c-.003-.005-.003-.009-.007-.011-1.402.866-2.716 1.863-3.921 2.972L7.11 8.095C2.706 12.688 0 18.909 0 25.758c0 14.126 11.5 25.575 25.68 25.575.109 0 .212-.002.32-.004V38.16c-.108.004-.211.004-.32.004-6.88 0-12.456-5.554-12.456-12.405 0-3.182 1.201-6.082 3.182-8.279l.642-.664z" mask="url(#prefix__b)"/>
        <path fill="#0060B0" d="M40.193 27.333h-.306c-.885 5.613-5.474 10.012-11.22 10.687v34.647l13.722-16.935V40.818H51.073L62 27.333H40.193z" mask="url(#prefix__b)"/>
    </g>
</svg>
