<svg xmlns="http://www.w3.org/2000/svg" xmlns:xlink="http://www.w3.org/1999/xlink" width="20" height="20" viewBox="0 0 20 20">
    <defs>
        <path id="lf2a06st1a" d="M14.167 17.083c.38 0 .705-.135.976-.407.271-.27.407-.596.407-.976V8.75c0-.38-.136-.705-.407-.977-.271-.27-.597-.406-.976-.406h-.7v-1.4c0-.76-.271-1.41-.814-1.953C12.11 3.47 11.459 3.2 10.7 3.2H9.3c-.76 0-1.41.271-1.953.814-.543.542-.814 1.193-.814 1.953v1.4h-.7c-.38 0-.705.135-.976.406-.271.272-.407.597-.407.977v6.95c0 .38.136.705.407.976.271.272.597.407.976.407h8.334zm-2.084-9.716H7.917v-1.4c0-.38.135-.705.407-.977.27-.271.596-.407.976-.407h1.4c.38 0 .705.136.976.407.272.272.407.597.407.977v1.4zm-1.383 6.25H9.3v-2.784h1.4v2.784z"/>
    </defs>
    <g fill="none" fill-rule="evenodd">
        <g>
            <g>
                <g>
                    <g transform="translate(-880 -210) translate(682 193) translate(20 17) translate(178)">
                        <path d="M0 0H20V20H0z" opacity=".2"/>
                        <mask id="2i4va5fi3b" fill="#ffffff">
                            <use xlink:href="#lf2a06st1a"/>
                        </mask>
                        <path fill="#747474" d="M0 0H20V20H0z" mask="url(#2i4va5fi3b)"/>
                    </g>
                </g>
            </g>
        </g>
    </g>
</svg>
