<svg xmlns="http://www.w3.org/2000/svg" width="16" height="16" viewBox="0 0 16 16" fill="none">
<path d="M2.40078 6.39971C3.28444 6.39971 4.00078 5.68336 4.00078 4.79971C4.00078 3.91605 3.28444 3.19971 2.40078 3.19971C1.51713 3.19971 0.800781 3.91605 0.800781 4.79971C0.800781 5.68336 1.51713 6.39971 2.40078 6.39971Z" fill="#747474"/>
<path d="M2.40078 12.7996C3.28444 12.7996 4.00078 12.0833 4.00078 11.1996C4.00078 10.316 3.28444 9.59961 2.40078 9.59961C1.51713 9.59961 0.800781 10.316 0.800781 11.1996C0.800781 12.0833 1.51713 12.7996 2.40078 12.7996Z" fill="#747474"/>
<path d="M8.79922 3.9998C9.68287 3.9998 10.3992 3.28346 10.3992 2.3998C10.3992 1.51615 9.68287 0.799805 8.79922 0.799805C7.91556 0.799805 7.19922 1.51615 7.19922 2.3998C7.19922 3.28346 7.91556 3.9998 8.79922 3.9998Z" fill="#747474"/>
<path d="M8.79922 9.5999C9.68287 9.5999 10.3992 8.88356 10.3992 7.9999C10.3992 7.11625 9.68287 6.3999 8.79922 6.3999C7.91556 6.3999 7.19922 7.11625 7.19922 7.9999C7.19922 8.88356 7.91556 9.5999 8.79922 9.5999Z" fill="#747474"/>
<path d="M8.79922 15.2C9.68287 15.2 10.3992 14.4837 10.3992 13.6C10.3992 12.7163 9.68287 12 8.79922 12C7.91556 12 7.19922 12.7163 7.19922 13.6C7.19922 14.4837 7.91556 15.2 8.79922 15.2Z" fill="#747474"/>
<path d="M13.6 9.5999C14.4837 9.5999 15.2 8.88356 15.2 7.9999C15.2 7.11625 14.4837 6.3999 13.6 6.3999C12.7163 6.3999 12 7.11625 12 7.9999C12 8.88356 12.7163 9.5999 13.6 9.5999Z" fill="#747474"/>
<path d="M8.80078 2.3999L13.6008 7.9999M13.6008 7.9999L8.80078 13.5999M13.6008 7.9999H8.80078" stroke="#747474" stroke-width="1.5" stroke-miterlimit="10"/>
<path d="M2.40234 11.1999L8.80234 2.3999L2.40234 4.7999L8.80234 13.5999L2.40234 11.1999ZM2.40234 11.1999L8.80234 7.9999" stroke="#747474" stroke-width="1.5" stroke-miterlimit="10" stroke-linejoin="bevel"/>
<path d="M2.33594 4.6665L8.80259 7.99984" stroke="#747474" stroke-width="1.5" stroke-miterlimit="10"/>
</svg>