<svg xmlns="http://www.w3.org/2000/svg" xmlns:xlink="http://www.w3.org/1999/xlink" width="48" height="48" viewBox="0 0 48 48">
    <defs>
        <path id="vxw1syaaka" d="M24 41c2.292 0 4.453-.436 6.484-1.309 2.032-.872 3.802-2.063 5.313-3.574 1.51-1.51 2.702-3.275 3.574-5.293.872-2.018 1.309-4.186 1.309-6.504 0-2.291-.437-4.446-1.309-6.465-.872-2.018-2.064-3.782-3.574-5.293-1.51-1.51-3.281-2.701-5.313-3.574C28.454 8.116 26.292 7.68 24 7.68s-4.453.436-6.484 1.308c-2.032.873-3.802 2.064-5.313 3.575-1.51 1.51-2.702 3.274-3.574 5.292-.872 2.019-1.309 4.174-1.309 6.465 0 2.318.437 4.486 1.309 6.504.872 2.018 2.064 3.783 3.574 5.293 1.51 1.51 3.281 2.702 5.313 3.574C19.546 40.564 21.708 41 24 41zm0-3.32c-1.849 0-3.58-.352-5.195-1.055-1.615-.703-3.028-1.66-4.239-2.871-1.21-1.211-2.161-2.624-2.851-4.238-.69-1.615-1.035-3.347-1.035-5.196 0-1.823.345-3.548 1.035-5.175.69-1.628 1.64-3.04 2.851-4.239 1.211-1.198 2.624-2.148 4.239-2.851C20.419 11.352 22.15 11 24 11c1.849 0 3.58.352 5.195 1.055 1.615.703 3.028 1.653 4.239 2.851 1.21 1.198 2.161 2.61 2.851 4.239.69 1.627 1.035 3.352 1.035 5.175 0 1.85-.345 3.581-1.035 5.196-.69 1.614-1.64 3.027-2.851 4.238-1.211 1.21-2.624 2.168-4.239 2.871-1.614.703-3.346 1.055-5.195 1.055zM22.32 31l10-10-2.304-2.383-7.657 7.695-4.336-4.335-2.343 2.343L22.32 31z"/>
    </defs>
    <g fill="none" fill-rule="evenodd">
        <g>
            <path d="M0 0H48V48H0z" opacity=".2"/>
            <mask id="hfiory905b" fill="#ffffff">
                <use xlink:href="#vxw1syaaka"/>
            </mask>
            <path fill="#c1c1c1" d="M0 0H48V48H0z" mask="url(#hfiory905b)"/>
        </g>
    </g>
</svg>
