<svg xmlns="http://www.w3.org/2000/svg" xmlns:xlink="http://www.w3.org/1999/xlink" width="30" height="30" viewBox="0 0 30 30">
    <defs>
        <path id="a3wrauouta" d="M15 10c.57 0 1.058-.203 1.465-.61.407-.407.61-.896.61-1.465 0-.586-.203-1.083-.61-1.49-.407-.406-.895-.61-1.465-.61-.57 0-1.058.204-1.465.61-.407.407-.61.904-.61 1.49 0 .57.203 1.058.61 1.465.407.407.895.61 1.465.61zm0 7.3c.57 0 1.058-.204 1.465-.61.407-.407.61-.904.61-1.49 0-.57-.203-1.058-.61-1.465-.407-.407-.895-.61-1.465-.61-.57 0-1.058.203-1.465.61-.407.407-.61.896-.61 1.465 0 .586.203 1.083.61 1.49.407.406.895.61 1.465.61zm0 7.275c.57 0 1.058-.203 1.465-.61.407-.407.61-.895.61-1.465 0-.57-.203-1.058-.61-1.465-.407-.407-.895-.61-1.465-.61-.57 0-1.058.203-1.465.61-.407.407-.61.895-.61 1.465 0 .57.203 1.058.61 1.465.407.407.895.61 1.465.61z"/>
    </defs>
    <g fill="none" fill-rule="evenodd">
        <g>
            <g>
                <g transform="translate(-1390 -201) translate(1082 189) translate(308 12)">
                    <path d="M0 0H30V30H0z" opacity=".2"/>
                    <mask id="5nb260kerb" fill="#ffffff">
                        <use xlink:href="#a3wrauouta"/>
                    </mask>
                    <path fill="#c1c1c1" d="M0 0H30V30H0z" mask="url(#5nb260kerb)"/>
                </g>
            </g>
        </g>
    </g>
</svg>
