<svg width="16" height="16" viewBox="0 0 16 16" fill="none" xmlns="http://www.w3.org/2000/svg">
<path d="M8 0.5C6.51664 0.5 5.06659 0.939867 3.83323 1.76398C2.59986 2.58809 1.63856 3.75943 1.07091 5.12987C0.50325 6.50032 0.354725 8.00832 0.644114 9.46318C0.933503 10.918 1.64781 12.2544 2.6967 13.3033C3.7456 14.3522 5.08197 15.0665 6.53682 15.3559C7.99168 15.6453 9.49968 15.4967 10.8701 14.9291C12.2406 14.3614 13.4119 13.4001 14.236 12.1668C15.0601 10.9334 15.5 9.48336 15.5 8C15.4962 6.01205 14.7048 4.10661 13.2991 2.70091C11.8934 1.29521 9.98795 0.503812 8 0.5ZM7.85577 3.96154C8.02693 3.96154 8.19424 4.01229 8.33655 4.10738C8.47886 4.20247 8.58978 4.33763 8.65528 4.49575C8.72078 4.65388 8.73792 4.82788 8.70453 4.99575C8.67114 5.16362 8.58872 5.31782 8.46769 5.43884C8.34666 5.55987 8.19247 5.64229 8.0246 5.67568C7.85673 5.70907 7.68273 5.69193 7.5246 5.62643C7.36647 5.56093 7.23132 5.45002 7.13623 5.3077C7.04114 5.16539 6.99039 4.99808 6.99039 4.82692C6.99039 4.59741 7.08156 4.37729 7.24385 4.215C7.40614 4.05271 7.62626 3.96154 7.85577 3.96154ZM8.57692 12.0385H8C7.84699 12.0385 7.70025 11.9777 7.59206 11.8695C7.48386 11.7613 7.42308 11.6145 7.42308 11.4615V8C7.27007 8 7.12333 7.93922 7.01513 7.83102C6.90694 7.72283 6.84616 7.57609 6.84616 7.42308C6.84616 7.27007 6.90694 7.12332 7.01513 7.01513C7.12333 6.90694 7.27007 6.84615 7.42308 6.84615H8C8.15301 6.84615 8.29975 6.90694 8.40795 7.01513C8.51614 7.12332 8.57692 7.27007 8.57692 7.42308V10.8846C8.72993 10.8846 8.87668 10.9454 8.98487 11.0536C9.09307 11.1618 9.15385 11.3085 9.15385 11.4615C9.15385 11.6145 9.09307 11.7613 8.98487 11.8695C8.87668 11.9777 8.72993 12.0385 8.57692 12.0385Z" fill="#C1C1C1"/>
</svg>
