<svg width="64" height="64" viewBox="0 0 64 64" fill="none" xmlns="http://www.w3.org/2000/svg">
<rect width="64" height="64" rx="8" fill="#DEE9FF"/>
<g clip-path="url(#clip0_433_31355)">
<path d="M39.546 28.7077L30.1193 38.1344L24.466 32.481L26.346 30.601L30.1193 34.3744L37.666 26.8277L39.546 28.7077ZM21.3327 32.001C21.3327 28.8944 22.6927 26.1077 24.826 24.161L27.9993 27.3344V19.3344H19.9993L22.9327 22.2677C20.3193 24.6944 18.666 28.1477 18.666 32.001C18.666 38.921 23.9327 44.601 30.666 45.2677V42.5744C25.4127 41.921 21.3327 37.4277 21.3327 32.001ZM45.3327 32.001C45.3327 25.081 40.066 19.401 33.3327 18.7344V21.4277C38.586 22.081 42.666 26.5744 42.666 32.001C42.666 35.1077 41.306 37.8944 39.1727 39.841L35.9993 36.6677V44.6677H43.9993L41.066 41.7344C43.6793 39.3077 45.3327 35.8544 45.3327 32.001Z" fill="#164ABE"/>
</g>
<defs>
<clipPath id="clip0_433_31355">
<rect width="32" height="32" fill="white" transform="translate(16 16)"/>
</clipPath>
</defs>
</svg>
