<svg width="23" height="20" viewBox="0 0 23 20" fill="none" xmlns="http://www.w3.org/2000/svg">
    <path d="M13.046 11.668h-.896v-.833a.805.805 0 0 0-.263-.59.931.931 0 0 0-.633-.244.931.931 0 0 0-.634.244.805.805 0 0 0-.262.59v.833h-.896a.932.932 0 0 0-.634.244.805.805 0 0 0-.262.59c0 .22.094.432.262.589a.932.932 0 0 0 .634.244h.896v.833c0 .221.094.433.262.59a.931.931 0 0 0 .634.243.931.931 0 0 0 .633-.244.805.805 0 0 0 .263-.589v-.833h.896a.931.931 0 0 0 .633-.244.805.805 0 0 0 .262-.59.805.805 0 0 0-.262-.589.931.931 0 0 0-.633-.244zm5.375-4.217a1.026 1.026 0 0 0-.054-.225v-.075a.89.89 0 0 0-.17-.233l-5.375-5a.966.966 0 0 0-.251-.158h-.08a.83.83 0 0 0-.297-.092h-5.42c-.713 0-1.397.263-1.9.732a2.415 2.415 0 0 0-.788 1.768v11.667c0 .663.283 1.299.787 1.767a2.794 2.794 0 0 0 1.901.733h8.96c.712 0 1.396-.264 1.9-.733a2.415 2.415 0 0 0 .787-1.767V7.45zM13.046 4.51l2.32 2.158h-1.425a.931.931 0 0 1-.633-.244.805.805 0 0 1-.262-.59V4.51zm3.583 11.325a.805.805 0 0 1-.262.589.931.931 0 0 1-.634.244H6.774a.931.931 0 0 1-.634-.244.805.805 0 0 1-.262-.59V4.169c0-.221.094-.433.262-.59a.931.931 0 0 1 .634-.243h4.48v2.5c0 .663.283 1.299.787 1.767a2.794 2.794 0 0 0 1.9.733h2.688v7.5z" fill="#2D76F8"/>
</svg>
