<svg width="24" height="24" viewBox="0 0 24 24" fill="none" xmlns="http://www.w3.org/2000/svg">
    <path fill-rule="evenodd" clip-rule="evenodd" d="M12.794 4.832c.173-.643.717-.958 1.361-.785.644.172.959.717.786 1.36L11.202 19.36c-.172.644-.716.958-1.36.785-.644-.172-.959-.716-.786-1.36l3.739-13.953zm8.873 8.042-3.334 3.333a1.074 1.074 0 0 1-1.555 0c-.222-.222-.334-.444-.334-.777 0-.334.112-.556.334-.778l2.555-2.556-2.555-2.555a1.074 1.074 0 0 1 0-1.556 1.074 1.074 0 0 1 1.555 0l3.334 3.333a1.074 1.074 0 0 1 0 1.556zM2 12.096c0-.333.111-.555.333-.778l3.334-3.333a1.074 1.074 0 0 1 1.555 0 1.074 1.074 0 0 1 0 1.556l-2.555 2.555 2.555 2.556a1.074 1.074 0 0 1 0 1.555 1.074 1.074 0 0 1-1.555 0l-3.334-3.333C2.111 12.652 2 12.43 2 12.096z" fill="#2D76F8"/>
</svg>
