<svg width="24" height="24" viewBox="0 0 24 24" fill="none" xmlns="http://www.w3.org/2000/svg">
    <path fill-rule="evenodd" clip-rule="evenodd" d="M12 7a5 5 0 0 0-4.899 4H3.25c-.332 0-.65.105-.884.293C2.132 11.48 2 11.735 2 12c0 .265.132.52.366.707.235.188.552.293.884.293h3.851a5 5 0 0 0 9.798 0h3.851c.331 0 .65-.105.884-.293.234-.187.366-.442.366-.707 0-.265-.132-.52-.366-.707A1.424 1.424 0 0 0 20.75 11h-3.851A5 5 0 0 0 12 7zm0 8.333a3.334 3.334 0 1 1 0-6.667 3.334 3.334 0 0 1 0 6.667z" fill="#2D76F8"/>
</svg>
