<svg xmlns="http://www.w3.org/2000/svg" xmlns:xlink="http://www.w3.org/1999/xlink" width="16" height="16" viewBox="0 0 16 16">
    <defs>
        <path id="bpgijx0gla" d="M5.333.333v2h2.333v-2h.667v2h2.333v-2h.667v2h1.519c.182 0 .341.051.479.152l.099.086c.158.158.237.345.237.56v1.535h2.037v.667h-2.038v2.333h2.038v.667h-2.038v2.333h2.038v.667h-2.038v1.517c0 .183-.05.343-.15.48l-.086.1c-.158.158-.35.237-.578.237h-1.52l.001 2h-.666v-2H8.331l.001 2h-.666v-2H5.332v2h-.666v-2H3.147c-.182 0-.341-.051-.479-.152l-.099-.086c-.158-.158-.237-.35-.237-.579v-1.518l-2 .001v-.666h2V8.331l-2 .001v-.666h2V5.331l-2 .001v-.666h2V3.13c0-.172.05-.326.152-.462l.085-.098c.158-.159.35-.238.578-.238h1.518v-2h.667zm7.334 3H3.333v9.334h9.334V3.333zM5.724 7c.222 0 .423.036.602.108.18.072.33.176.452.31l-.38.325-.09-.085c-.157-.128-.341-.192-.555-.192-.158 0-.3.032-.424.096-.125.064-.222.154-.291.269-.07.114-.105.245-.105.391 0 .147.035.277.105.392.07.115.166.204.29.268.125.064.267.097.425.097.256 0 .471-.094.644-.28l.38.323-.096.097c-.103.091-.222.163-.357.217-.18.072-.382.108-.604.108-.26 0-.497-.052-.708-.157-.21-.104-.377-.25-.498-.435-.12-.186-.18-.396-.18-.63 0-.234.06-.444.18-.63.121-.185.287-.33.498-.435.211-.105.448-.157.712-.157zM8.15 7l.158.007c.154.013.29.047.411.101.161.072.285.175.372.308.087.132.13.29.13.471 0 .18-.043.336-.13.47-.087.134-.211.236-.372.307-.16.071-.35.106-.569.106h-.497v.674h-.57V7H8.15zm1.923 0v1.325l.006.123c.031.348.205.523.52.523.172 0 .302-.052.392-.157.09-.104.135-.267.135-.489V7h.54v1.346l-.006.146c-.023.282-.115.505-.276.667-.188.19-.45.285-.788.285-.337 0-.6-.095-.788-.285-.187-.19-.281-.46-.281-.813V7h.546zm-1.949.306h-.43v.916h.43c.159 0 .28-.04.362-.119.083-.079.124-.191.124-.337 0-.149-.041-.262-.124-.342-.082-.079-.203-.118-.362-.118zM3 3.333c.184 0 .333-.149.333-.333 0-.184-.149-.333-.333-.333-.184 0-.333.149-.333.333 0 .184.149.333.333.333zm0 10c.184 0 .333-.149.333-.333 0-.184-.149-.333-.333-.333-.184 0-.333.149-.333.333 0 .184.149.333.333.333zm10-10c.184 0 .333-.149.333-.333 0-.184-.149-.333-.333-.333-.184 0-.333.149-.333.333 0 .184.149.333.333.333zm0 10c.184 0 .333-.149.333-.333 0-.184-.149-.333-.333-.333-.184 0-.333.149-.333.333 0 .184.149.333.333.333zm-.667-1V3.667H3.667v8.666h8.666z"/>
    </defs>
    <g fill="none" fill-rule="evenodd">
        <path fill="#000" fill-opacity="0" d="M0 0H16V16H0z"/>
        <mask id="cl4unfgynb" fill="#ffffff">
            <use xlink:href="#bpgijx0gla"/>
        </mask>
        <use fill="#ffffff" fill-rule="nonzero" xlink:href="#bpgijx0gla"/>
        <path fill="#979899" d="M0 0H16V16H0z" mask="url(#cl4unfgynb)"/>
    </g>
</svg>
