<svg width="16" height="16" viewBox="0 0 16 16" fill="none" xmlns="http://www.w3.org/2000/svg">
<g id="Icon/Filled/File download" clip-path="url(#clip0_2418_37828)">
<path id="Vector" d="M11.0587 6H9.9987V2.66667C9.9987 2.3 9.6987 2 9.33203 2H6.66536C6.2987 2 5.9987 2.3 5.9987 2.66667V6H4.9387C4.34536 6 4.04536 6.72 4.46536 7.14L7.52536 10.2C7.78536 10.46 8.20536 10.46 8.46536 10.2L11.5254 7.14C11.9454 6.72 11.652 6 11.0587 6ZM3.33203 12.6667C3.33203 13.0333 3.63203 13.3333 3.9987 13.3333H11.9987C12.3654 13.3333 12.6654 13.0333 12.6654 12.6667C12.6654 12.3 12.3654 12 11.9987 12H3.9987C3.63203 12 3.33203 12.3 3.33203 12.6667Z" fill="#7E7E7F"/>
</g>
<defs>
<clipPath id="clip0_2418_37828">
<rect width="16" height="16" fill="white"/>
</clipPath>
</defs>
</svg>
