<svg width="178" height="178" viewBox="0 0 178 178" fill="none" xmlns="http://www.w3.org/2000/svg">
<rect x="0.5" y="0.5" width="177" height="177" rx="9.5" fill="#F5F7FB" fill-opacity="0.5"/>
<rect x="0.5" y="0.5" width="177" height="177" rx="9.5" stroke="#DBDBDB"/>
<path fill-rule="evenodd" clip-rule="evenodd" d="M89 35.7143C70.0645 35.7143 54.7143 51.0645 54.7143 70C54.7143 88.9355 70.0645 104.286 89 104.286C107.935 104.286 123.286 88.9355 123.286 70C123.286 51.0645 107.935 35.7143 89 35.7143ZM49 70C49 47.9086 66.9086 30 89 30C111.091 30 129 47.9086 129 70C129 92.0914 111.091 110 89 110C66.9086 110 49 92.0914 49 70Z" fill="#F0F0F0"/>
<mask id="path-3-inside-1_250_26191" fill="white">
<path d="M85.7752 33.1408C85.6308 31.4902 86.8527 30.0233 88.5094 30.003C92.7476 29.951 96.9737 30.5729 101.028 31.8513C106.038 33.4309 110.688 35.9817 114.712 39.3582C118.735 42.7347 122.055 46.8707 124.48 51.5301C126.443 55.301 127.79 59.3549 128.475 63.5378C128.742 65.1729 127.51 66.6308 125.859 66.7752V66.7752C124.209 66.9196 122.767 65.6949 122.478 64.0635C121.875 60.6651 120.757 57.3723 119.158 54.3006C117.097 50.3401 114.275 46.8245 110.855 43.9545C107.434 41.0845 103.482 38.9163 99.224 37.5736C95.9212 36.5323 92.4844 36.0034 89.033 36C87.3761 35.9984 85.9196 34.7913 85.7752 33.1408V33.1408Z"/>
</mask>
<path d="M85.7752 33.1408C85.6308 31.4902 86.8527 30.0233 88.5094 30.003C92.7476 29.951 96.9737 30.5729 101.028 31.8513C106.038 33.4309 110.688 35.9817 114.712 39.3582C118.735 42.7347 122.055 46.8707 124.48 51.5301C126.443 55.301 127.79 59.3549 128.475 63.5378C128.742 65.1729 127.51 66.6308 125.859 66.7752V66.7752C124.209 66.9196 122.767 65.6949 122.478 64.0635C121.875 60.6651 120.757 57.3723 119.158 54.3006C117.097 50.3401 114.275 46.8245 110.855 43.9545C107.434 41.0845 103.482 38.9163 99.224 37.5736C95.9212 36.5323 92.4844 36.0034 89.033 36C87.3761 35.9984 85.9196 34.7913 85.7752 33.1408V33.1408Z" stroke="#2D76F8" stroke-width="24" mask="url(#path-3-inside-1_250_26191)"/>
<path d="M79.344 135.696H82.466C84.762 135.696 86.4 136.494 86.4 138.804C86.4 141.058 84.762 142.094 82.522 142.094H80.968V146H79.344V135.696ZM82.368 140.792C84.062 140.792 84.804 140.162 84.804 138.804C84.804 137.446 83.95 136.998 82.312 136.998H80.968V140.792H82.368ZM88.4225 135.696H90.0465V146H88.4225V135.696ZM92.7428 135.696H98.8328V137.054H94.3668V139.924H98.1468V141.296H94.3668V144.628H98.9868V146H92.7428V135.696Z" fill="#747474"/>
</svg>
