<svg xmlns="http://www.w3.org/2000/svg" width="40" height="40" viewBox="0 0 40 40" fill="none">
  <path d="M26.6654 11.6693H9.9987C8.9987 11.6693 8.33203 12.3359 8.33203 13.3359V17.5026H20.832C21.832 17.5026 22.4987 18.1693 22.4987 19.1693V31.6693H26.6654C27.6654 31.6693 28.332 31.0026 28.332 30.0026V13.3359C28.332 12.3359 27.6654 11.6693 26.6654 11.6693ZM18.332 20.0026H4.9987C3.9987 20.0026 3.33203 20.6693 3.33203 21.6693V35.0026C3.33203 36.0026 3.9987 36.6693 4.9987 36.6693H18.332C19.332 36.6693 19.9987 36.0026 19.9987 35.0026V21.6693C19.9987 20.6693 19.332 20.0026 18.332 20.0026ZM34.9987 3.33594H14.9987C13.9987 3.33594 13.332 4.0026 13.332 5.0026V9.16927H29.1654C30.1654 9.16927 30.832 9.83594 30.832 10.8359V26.6693H34.9987C35.9987 26.6693 36.6654 26.0026 36.6654 25.0026V5.0026C36.6654 4.0026 35.9987 3.33594 34.9987 3.33594Z" fill="#FFAB31"/>
</svg>