<svg width="18" height="8" viewBox="0 0 18 8" fill="none" xmlns="http://www.w3.org/2000/svg">
<path fill-rule="evenodd" clip-rule="evenodd" d="M5.03849 1.24105C4.49441 1.1332 3.93058 1.18904 3.41823 1.40152C2.90588 1.61401 2.46802 1.97359 2.15997 2.43485C1.85191 2.8961 1.6875 3.43831 1.6875 3.99297C1.6875 4.54763 1.85191 5.08985 2.15997 5.5511C2.46802 6.01235 2.90588 6.37193 3.41823 6.58442C3.93058 6.7969 4.49441 6.85274 5.03849 6.74489C5.57727 6.63809 6.07273 6.3755 6.46352 5.98987L7.06347 5.31406C7.26971 5.08174 7.62524 5.0606 7.85756 5.26685C8.08988 5.47309 8.11102 5.82862 7.90477 6.06094L7.29305 6.75C7.28555 6.75845 7.2778 6.76668 7.2698 6.77466C6.71984 7.32366 6.01949 7.69732 5.25724 7.84842C4.49499 7.99952 3.70506 7.92128 2.98726 7.62359C2.26946 7.3259 1.65601 6.82212 1.22443 6.17591C0.792844 5.5297 0.5625 4.77005 0.5625 3.99297C0.5625 3.21589 0.792845 2.45625 1.22443 1.81003C1.65601 1.16382 2.26946 0.660038 2.98726 0.362349C3.70506 0.0646589 4.49499 -0.0135785 5.25724 0.137523C6.01949 0.288624 6.71984 0.662283 7.2698 1.21128C7.27779 1.21925 7.28553 1.22747 7.29302 1.2359L11.5141 5.98985C11.9049 6.3755 12.4003 6.63809 12.9391 6.74489C13.4832 6.85274 14.047 6.7969 14.5594 6.58442C15.0717 6.37193 15.5096 6.01235 15.8176 5.5511C16.1257 5.08985 16.2901 4.54763 16.2901 3.99297C16.2901 3.43831 16.1257 2.8961 15.8176 2.43485C15.5096 1.97359 15.0717 1.61401 14.5594 1.40152C14.047 1.18904 13.4832 1.1332 12.9391 1.24105C12.4003 1.34785 11.9049 1.61044 11.5141 1.99607L10.9141 2.67188C10.7079 2.9042 10.3524 2.92534 10.1201 2.71909C9.88773 2.51285 9.8666 2.15732 10.0728 1.925L10.6846 1.23594C10.6921 1.22749 10.6998 1.21927 10.7078 1.21128C11.2578 0.662283 11.9581 0.288624 12.7204 0.137523C13.4826 -0.0135785 14.2726 0.0646589 14.9904 0.362349C15.7082 0.660038 16.3216 1.16382 16.7532 1.81003C17.1848 2.45625 17.4151 3.21589 17.4151 3.99297C17.4151 4.77005 17.1848 5.5297 16.7532 6.17591C16.3216 6.82212 15.7082 7.3259 14.9904 7.62359C14.2726 7.92128 13.4826 7.99952 12.7204 7.84842C11.9581 7.69732 11.2578 7.32366 10.7078 6.77466C10.6998 6.76669 10.6921 6.75848 10.6846 6.75004L6.46353 1.99609C6.07274 1.61045 5.57727 1.34785 5.03849 1.24105Z" fill="#3E3E3E"/>
</svg>
