<svg width="24" height="24" viewBox="0 0 24 24" fill="none" xmlns="http://www.w3.org/2000/svg">
<rect width="24" height="24" fill="white"/>
<path d="M11.4429 12.3462C11.4429 12.64 11.2714 12.9067 11.0041 13.0286L6.4079 15.1248C6.03103 15.2966 5.58618 15.1305 5.4143 14.7536C5.24242 14.3767 5.4086 13.9319 5.78546 13.76L8.88544 12.3462L5.78546 10.9324C5.4086 10.7605 5.24242 10.3157 5.4143 9.93878C5.58618 9.56192 6.03103 9.39574 6.4079 9.56762L11.0041 11.6638C11.2714 11.7857 11.4429 12.0524 11.4429 12.3462Z" fill="#3BABFF"/>
<path d="M12.8467 14.5962C12.4325 14.5962 12.0967 14.932 12.0967 15.3462C12.0967 15.7604 12.4325 16.0962 12.8467 16.0962H16.8467C17.2609 16.0962 17.5967 15.7604 17.5967 15.3462C17.5967 14.932 17.2609 14.5962 16.8467 14.5962H12.8467Z" fill="#3BABFF"/>
<path fill-rule="evenodd" clip-rule="evenodd" d="M22 20V4C22 2.89543 21.1046 2 20 2H4C2.89543 2 2 2.89543 2 4V20C2 21.1046 2.89543 22 4 22H20C21.1046 22 22 21.1046 22 20ZM3.5 20V7.25H20.5V20C20.5 20.2761 20.2761 20.5 20 20.5H4C3.72386 20.5 3.5 20.2761 3.5 20Z" fill="#3BABFF"/>
</svg>
