<svg xmlns="http://www.w3.org/2000/svg" width="24" height="24" viewBox="0 0 24 24" fill="none">
  <path d="M21 7.19085L16.8469 3.02835C16.5672 2.7416 16.1878 2.5737 15.7875 2.5596C15.5844 2.55492 15.3824 2.59157 15.1938 2.66731C15.0053 2.74305 14.8341 2.85632 14.6906 3.00023L12.2156 5.46585L3.44063 14.2502C3.30084 14.3889 3.18993 14.554 3.1143 14.7358C3.03867 14.9177 2.99983 15.1127 3 15.3096V19.5002C3 19.8981 3.15804 20.2796 3.43934 20.5609C3.72064 20.8422 4.10218 21.0002 4.5 21.0002H8.69063C9.08798 20.9985 9.46864 20.8402 9.75 20.5596L21 9.3096C21.2783 9.02721 21.4342 8.64668 21.4342 8.25023C21.4342 7.85378 21.2783 7.47325 21 7.19085ZM18 10.1909L13.8094 6.00023L15.75 4.0596L19.9406 8.25023L18 10.1909Z" fill="#C1C1C1"/>
</svg>