<svg width="25" height="25" viewBox="0 0 25 25" fill="none" xmlns="http://www.w3.org/2000/svg">
<path fill-rule="evenodd" clip-rule="evenodd" d="M7 2C7 0.89543 7.89543 0 9 0H16C17.1046 0 18 0.895431 18 2V4V6V23C18 24.1046 17.1046 25 16 25H9C7.89543 25 7 24.1046 7 23V6V4V2ZM19 23H23C24.1046 23 25 22.1046 25 21V8C25 6.89543 24.1046 6 23 6H19V23ZM6 6V23H2C0.89543 23 0 22.1046 0 21V8C0 6.89543 0.895431 6 2 6H6ZM9 5H16V6H9V5ZM16 7H9V8H16V7ZM9 9H16V10H9V9ZM5 8H1V9H5V8ZM20 8H24V9H20V8ZM5 10H1V11H5V10ZM20 10H24V11H20V10ZM5 12H1V13H5V12ZM20 12H24V13H20V12ZM12.5 21C13.8807 21 15 19.8807 15 18.5C15 17.1193 13.8807 16 12.5 16C11.1193 16 10 17.1193 10 18.5C10 19.8807 11.1193 21 12.5 21Z" fill="#747474"/>
</svg>
